<?xml version="1.0" encoding="utf-8"?>
<!-- Generator: Adobe Illustrator 17.0.0, SVG Export Plug-In . SVG Version: 6.00 Build 0)  -->
<!DOCTYPE svg PUBLIC "-//W3C//DTD SVG 1.1//EN" "http://www.w3.org/Graphics/SVG/1.1/DTD/svg11.dtd">
<svg version="1.1" id="Capa_1" xmlns="http://www.w3.org/2000/svg" xmlns:xlink="http://www.w3.org/1999/xlink" x="0px" y="0px"
	 width="628.469px" height="239.988px" viewBox="0 0 628.469 239.988" enable-background="new 0 0 628.469 239.988"
	 xml:space="preserve">
<g>
	<g>
		<g>
			<g>
				<g>
					<path fill="#87868A" d="M574.827,117.75c-0.115-1.435-0.204-2.978-0.261-4.661c-0.057-1.679-0.061-3.422-0.061-5.219V88.457
						c0.004-3.3-0.343-6.397-1.178-9.304c-0.802-2.885-2.159-5.445-3.98-7.671c-1.826-2.194-4.321-3.93-7.381-5.173
						c-3.064-1.271-6.851-1.908-11.376-1.94l-0.433,0.014c-3.147,0.032-6.017,0.304-8.631,0.784
						c-2.721,0.497-5.076,1.142-7.109,1.869c-2.041,0.751-3.702,1.503-4.983,2.251l3.111,11.183
						c1.192-0.784,2.617-1.493,4.278-2.105c1.586-0.641,3.301-1.153,5.151-1.532c1.861-0.379,3.723-0.591,5.595-0.591
						c0.949,0,1.783,0.079,2.588,0.157c0.934,0.115,1.786,0.29,2.474,0.555c1.328,0.455,2.323,1.038,3.029,1.761
						c0.712,0.744,1.188,1.525,1.45,2.334c0.254,0.852,0.383,1.618,0.369,2.373v0.823c-2.563-0.025-5.019,0.086-7.321,0.311
						c-2.044,0.218-3.948,0.519-5.785,0.934c-3.92,0.859-7.267,2.162-10.066,3.927c-2.799,1.779-4.986,4.002-6.483,6.687
						c-1.5,2.703-2.252,5.835-2.262,9.483c0,2.23,0.394,4.396,1.195,6.429c0.777,2.03,1.926,3.855,3.454,5.456
						c1.5,1.622,3.336,2.871,5.506,3.805c2.173,0.931,4.65,1.411,7.406,1.432c2.516,0,4.843-0.361,7.034-1.049
						c0.634-0.204,1.249-0.44,1.861-0.709c2.642-1.174,4.897-2.867,6.683-5.094h0.34l1.009,5.598h15.225
						C575.081,120.41,574.966,119.196,574.827,117.75z M558.034,101.126c0,0.53-0.039,1.031-0.057,1.532
						c-0.082,0.515-0.165,0.985-0.276,1.45c-0.383,1.185-0.981,2.259-1.847,3.229c-0.813,0.956-1.829,1.711-3.029,2.291
						c-0.848,0.397-1.736,0.641-2.67,0.777c-0.433,0.054-0.83,0.082-1.253,0.086c-1.285,0-2.413-0.24-3.411-0.716
						c-1.003-0.508-1.79-1.217-2.37-2.202c-0.569-0.984-0.873-2.223-0.891-3.694c0.018-2.223,0.755-4.009,2.108-5.312
						c1.396-1.292,3.279-2.205,5.631-2.76l0.186-0.04c2.323-0.505,4.926-0.755,7.879-0.684V101.126z"/>
					<path fill="#87868A" d="M440.911,72.252h-0.24c-0.92-1.547-2.076-2.896-3.451-4.074c-1.382-1.181-2.971-2.112-4.883-2.767
						c-1.178-0.426-2.463-0.72-3.837-0.88c-0.863-0.093-1.775-0.147-2.738-0.161c-3.347,0.032-6.519,0.705-9.479,2.058
						c-2.978,1.36-5.591,3.326-7.868,5.899c-2.288,2.552-4.07,5.631-5.377,9.246c-1.303,3.594-1.958,7.646-1.983,12.139
						c0.025,4.027,0.605,7.721,1.722,11.054c1.131,3.333,2.692,6.207,4.775,8.613c2.023,2.434,4.457,4.306,7.27,5.627
						c2.817,1.306,5.899,1.972,9.271,1.99c1.557-0.018,3.011-0.168,4.406-0.466c1.439-0.326,2.81-0.805,4.078-1.435
						c2.509-1.26,4.593-3.039,6.218-5.413h0.215v3.669c-0.021,3.419-0.63,6.204-1.854,8.38c-1.246,2.173-2.907,3.759-5.033,4.797
						c-1.146,0.559-2.341,0.952-3.623,1.217c-1.16,0.225-2.352,0.34-3.615,0.326c-2.141-0.029-4.181-0.236-6.164-0.615
						c-1.965-0.437-3.759-0.967-5.416-1.597c-1.647-0.648-3.046-1.31-4.242-2.015l-3.315,13.123
						c1.647,0.956,3.544,1.765,5.688,2.409c2.119,0.641,4.342,1.121,6.719,1.443c2.387,0.333,4.771,0.494,7.145,0.494
						c1.074,0.011,2.126-0.018,3.2-0.075c1.615-0.104,3.19-0.283,4.793-0.54c2.617-0.412,5.137-1.117,7.542-2.123
						c2.42-1.006,4.621-2.377,6.637-4.117c2.008-1.851,3.644-4.066,4.861-6.622c1.196-2.531,2.073-5.344,2.588-8.452
						c0.54-3.1,0.82-6.454,0.791-10.044V82.182c0-2.757,0.029-5.169,0.065-7.213c0.036-2.037,0.078-3.812,0.157-5.323
						c0.065-1.532,0.147-2.85,0.211-4.027h-14.687L440.911,72.252z M438.795,96.558c0,0.755-0.036,1.56-0.114,2.359
						c-0.086,0.827-0.229,1.571-0.448,2.209c-0.376,1.396-0.984,2.613-1.854,3.658c-0.823,1.074-1.858,1.897-3.068,2.509
						c-1.188,0.587-2.505,0.902-3.98,0.913c-0.276,0-0.569,0-0.831-0.036c-2.015-0.15-3.751-0.805-5.215-1.951
						c-1.65-1.299-2.917-3.068-3.777-5.305c-0.852-2.223-1.306-4.743-1.306-7.546c0.029-3.401,0.562-6.275,1.521-8.638
						c0.999-2.348,2.345-4.145,4.013-5.373c1.443-1.063,3.032-1.676,4.765-1.819c0.261-0.025,0.555-0.036,0.831-0.036
						c1.55,0,2.96,0.319,4.181,0.977c1.214,0.619,2.227,1.511,3.064,2.656c0.823,1.139,1.471,2.485,1.876,4.02
						c0.114,0.44,0.211,0.956,0.251,1.507c0.064,0.537,0.093,1.117,0.093,1.69V96.558z"/>
					<path fill="#87868A" d="M512.655,70.19c-1.751-1.969-3.798-3.415-6.168-4.389c-2.355-0.959-4.922-1.432-7.743-1.432
						c-2.244,0.032-4.288,0.322-6.103,0.898c-1.822,0.573-3.461,1.303-4.833,2.223c-1.424,0.92-2.606,1.883-3.579,2.892
						c-0.963,1.027-1.74,1.983-2.273,2.889h-0.344l-0.784-7.653h-14.684c0.118,2.47,0.218,5.166,0.308,8.144
						c0.078,2.953,0.139,6.2,0.139,9.662v38.034h16.914V89.252c0-0.813,0.068-1.596,0.15-2.334c0.122-0.752,0.308-1.425,0.512-1.99
						c0.365-1.092,0.927-2.119,1.665-3.107c0.766-0.988,1.722-1.815,2.853-2.449c1.149-0.616,2.488-0.938,4.038-0.945
						c2.037,0.007,3.701,0.526,4.986,1.536c1.253,0.999,2.133,2.42,2.742,4.217c0.573,1.811,0.856,3.913,0.856,6.322v30.957h16.914
						V88.354c-0.014-4.106-0.494-7.678-1.475-10.682C515.769,74.647,514.402,72.148,512.655,70.19z"/>
					<path fill="#87868A" d="M362.126,59.29c-1.89-2.778-4.106-5.162-6.744-7.127c-2.391-1.865-5.076-3.422-8.018-4.629
						c-2.935-1.217-6.286-2.126-9.987-2.703c-0.974-0.15-1.94-0.286-2.968-0.401c-2.978-0.337-6.2-0.48-9.733-0.48
						c-4.328,0-8.419,0.114-12.35,0.397c-3.902,0.286-7.432,0.677-10.571,1.192v75.574c2.087,0.301,4.732,0.548,7.893,0.773
						c3.186,0.225,6.977,0.351,11.341,0.365c4.789,0,9.26-0.329,13.42-1.02c2.226-0.361,4.367-0.845,6.425-1.421
						c5.857-1.629,10.8-4.124,14.777-7.503c2.409-2.079,4.575-4.603,6.468-7.582c1.861-2.982,3.297-6.433,4.371-10.356
						c1.052-3.898,1.564-8.308,1.625-13.206c-0.061-4.539-0.537-8.609-1.575-12.253C365.491,65.286,364.03,62.075,362.126,59.29z
						 M346.862,96.909c-2.076,3.977-5.005,6.969-8.788,8.903c-1.153,0.605-2.373,1.099-3.666,1.514
						c-2.917,0.923-6.175,1.36-9.733,1.335c-1.07,0-2.158,0-3.229-0.039c-1.038-0.018-1.93-0.125-2.692-0.301V57.973
						c0.734-0.186,1.722-0.333,2.975-0.469c1.267-0.143,2.824-0.212,4.736-0.212c2.875,0,5.513,0.326,7.943,0.981
						c1.658,0.437,3.215,1.045,4.689,1.794c3.505,1.847,6.218,4.582,8.104,8.222c1.908,3.608,2.846,8.112,2.846,13.427
						C350.012,87.845,348.974,92.914,346.862,96.909z"/>
					<rect x="376.391" y="65.619" fill="#87868A" width="16.904" height="55.839"/>
				</g>
				<g>
					<path fill="#5D9E6A" d="M287.833,116.848c-0.036-1.776-0.1-3.708-0.165-5.788c-0.047-2.073-0.065-4.159-0.065-6.275V40.286
						h-16.91v30.363h-0.229c-1.235-1.951-3.107-3.494-5.592-4.604c-1.543-0.687-3.215-1.149-5.087-1.417
						c-1.16-0.157-2.395-0.243-3.68-0.258c-3.268,0-6.379,0.669-9.311,1.976c-2.921,1.342-5.531,3.261-7.782,5.803
						c-2.284,2.545-4.045,5.645-5.348,9.304c-1.26,3.705-1.926,7.897-1.926,12.607c0.022,4.349,0.626,8.284,1.822,11.799
						c1.178,3.519,2.867,6.515,4.972,9.042c2.105,2.502,4.568,4.417,7.381,5.767c2.821,1.35,5.828,2.023,9.096,2.044
						c1.629,0,3.229-0.172,4.776-0.523c0.673-0.15,1.335-0.333,1.969-0.548c2.162-0.702,4.131-1.743,5.846-3.157
						c1.776-1.407,3.258-3.157,4.421-5.241h0.24l0.762,8.215h15.049C287.972,120.18,287.894,118.641,287.833,116.848z
						 M270.694,96.558c0,0.755,0,1.428-0.089,2.079c-0.076,0.666-0.183,1.296-0.362,1.93c-0.351,1.65-0.988,3.093-1.901,4.324
						c-0.913,1.275-2.03,2.23-3.39,2.942c-1.36,0.691-2.864,1.056-4.493,1.067c-0.233,0-0.458-0.011-0.673-0.025
						c-2.087-0.122-3.891-0.744-5.463-1.858c-1.718-1.253-3.05-3.035-4.005-5.341c-0.92-2.276-1.425-5.026-1.461-8.183
						c0-2.219,0.251-4.288,0.773-6.186c0.49-1.929,1.242-3.594,2.233-5.044c0.974-1.453,2.166-2.599,3.63-3.419
						c1.271-0.691,2.692-1.095,4.292-1.203c0.247-0.014,0.508-0.025,0.755-0.025c1.758,0.025,3.322,0.43,4.693,1.185
						c1.35,0.748,2.477,1.783,3.376,3.075c0.891,1.299,1.521,2.721,1.854,4.306c0.064,0.479,0.122,0.992,0.14,1.532
						c0.089,0.555,0.089,1.074,0.089,1.536V96.558z"/>
					<path fill="#5D9E6A" d="M134.186,113.089c-0.068-1.679-0.068-3.422-0.068-5.219V88.457c0-3.3-0.369-6.397-1.192-9.304
						c-0.795-2.885-2.141-5.445-3.977-7.671c-1.822-2.194-4.303-3.93-7.352-5.173c-3.104-1.271-6.887-1.908-11.408-1.94
						l-0.458,0.014c-3.122,0.032-5.989,0.304-8.598,0.784c-2.696,0.497-5.072,1.142-7.134,1.869
						c-2.023,0.751-3.684,1.503-4.951,2.251l3.121,11.183c1.199-0.766,2.617-1.482,4.231-2.105c1.625-0.641,3.358-1.153,5.212-1.532
						c1.847-0.379,3.691-0.591,5.574-0.591c0.949,0,1.801,0.079,2.545,0.157c0.966,0.115,1.811,0.29,2.534,0.555
						c1.303,0.455,2.305,1.038,3.007,1.761c0.705,0.744,1.178,1.525,1.439,2.334c0.268,0.852,0.408,1.618,0.379,2.373v0.823
						c-2.574-0.025-5.033,0.086-7.36,0.311c-2.001,0.218-3.938,0.519-5.763,0.934c-3.913,0.859-7.245,2.169-10.052,3.927
						c-2.792,1.779-4.99,4.002-6.49,6.687c-1.507,2.703-2.252,5.835-2.284,9.483c0,2.244,0.419,4.396,1.228,6.429
						c0.77,2.03,1.93,3.862,3.422,5.456c1.525,1.622,3.368,2.871,5.534,3.805c2.176,0.931,4.653,1.411,7.417,1.432
						c2.498,0,4.847-0.361,6.988-1.049c0.673-0.204,1.278-0.44,1.894-0.709c2.649-1.152,4.89-2.867,6.676-5.094h0.34l1.02,5.598
						h15.242c-0.193-1.049-0.347-2.262-0.44-3.708C134.336,116.314,134.258,114.771,134.186,113.089z M117.644,101.126
						c0,0.53-0.018,1.031-0.061,1.532c-0.071,0.515-0.157,0.985-0.268,1.45c-0.376,1.185-0.985,2.259-1.843,3.229
						c-0.834,0.956-1.876,1.711-3.018,2.291c-0.863,0.397-1.74,0.641-2.724,0.777c-0.38,0.054-0.784,0.086-1.214,0.086
						c-1.292,0-2.402-0.24-3.426-0.716c-0.966-0.508-1.797-1.217-2.348-2.202c-0.58-0.984-0.884-2.223-0.913-3.694
						c0.061-2.223,0.752-4.005,2.115-5.312c1.411-1.292,3.279-2.205,5.663-2.76l0.122-0.04c2.327-0.505,4.979-0.755,7.914-0.684
						V101.126z"/>
					<rect x="144.793" y="40.286" fill="#5D9E6A" width="16.867" height="81.173"/>
					<path fill="#5D9E6A" d="M223.99,103.521V65.63h-17.05v33.223c0,0.677-0.029,1.371-0.079,2.023
						c-0.093,0.641-0.236,1.228-0.462,1.736c-0.358,0.934-0.92,1.876-1.657,2.789c-0.727,0.931-1.64,1.7-2.789,2.323
						c-1.099,0.597-2.459,0.92-4.005,0.938c-1.969-0.018-3.562-0.53-4.847-1.561c-1.21-1.041-2.133-2.52-2.713-4.464
						c-0.619-1.94-0.909-4.256-0.909-6.984V65.63h-17.035v32.761c0.036,4.31,0.497,7.993,1.471,11.083
						c0.931,3.075,2.277,5.598,3.97,7.546c1.729,1.944,3.734,3.39,6.071,4.31c2.309,0.923,4.901,1.382,7.642,1.382
						c2.438-0.021,4.625-0.343,6.472-0.956c1.897-0.608,3.547-1.385,4.904-2.345c1.4-0.927,2.549-1.937,3.479-2.957
						c0.927-1.045,1.661-2.005,2.162-2.878h0.347l0.763,7.882h14.705c-0.118-2.341-0.258-5.004-0.315-7.983
						C224.029,110.49,223.99,107.193,223.99,103.521z"/>
					<path fill="#5D9E6A" d="M71.087,81.545c-2.9-2.184-6.533-4.095-10.958-5.756c-3.218-1.235-5.863-2.355-7.897-3.408
						c-2.048-1.021-3.58-2.126-4.571-3.286c-0.956-1.146-1.428-2.549-1.428-4.152c0-1.353,0.387-2.588,1.181-3.712
						c0.791-1.099,2.012-1.994,3.633-2.678c1.6-0.659,3.619-1.01,6.082-1.031c2.452,0.022,4.682,0.226,6.666,0.609
						c1.99,0.394,3.744,0.88,5.277,1.424c1.482,0.577,2.752,1.103,3.766,1.611l3.78-13.922c-2.216-1.117-4.904-2.058-8.079-2.813
						c-3.154-0.762-6.852-1.135-11.083-1.178c-4.41,0.018-8.398,0.605-11.874,1.772c-3.519,1.16-6.487,2.792-8.949,4.879
						c-2.438,2.108-4.317,4.557-5.599,7.356c-1.278,2.806-1.94,5.867-1.958,9.167c0.018,3.705,0.867,7.006,2.606,9.895
						c1.672,2.831,4.045,5.326,7.134,7.464c3.053,2.087,6.708,3.877,10.875,5.369c2.957,1.07,5.376,2.141,7.241,3.204
						c1.851,1.063,3.229,2.205,4.056,3.433c0.856,1.213,1.299,2.617,1.267,4.195c0,1.689-0.444,3.165-1.371,4.399
						c-0.891,1.246-2.234,2.202-3.974,2.885c-1.786,0.698-3.963,1.049-6.576,1.049c-2.409-0.011-4.768-0.24-7.066-0.702
						c-2.295-0.444-4.453-1.059-6.436-1.797c-1.987-0.716-3.751-1.471-5.298-2.302l-3.454,14.401
						c1.435,0.816,3.286,1.575,5.513,2.298c2.22,0.72,4.654,1.321,7.381,1.786c2.703,0.455,5.509,0.684,8.38,0.705
						c5.148-0.021,9.59-0.655,13.381-1.94c3.834-1.253,6.963-2.978,9.451-5.223c2.509-2.209,4.356-4.747,5.591-7.632
						c1.217-2.864,1.822-5.928,1.822-9.186c0-3.597-0.698-6.815-2.101-9.64C76.102,86.256,73.954,83.739,71.087,81.545z"/>
				</g>
				<g>
					<path fill-rule="evenodd" clip-rule="evenodd" fill="#87868A" d="M392.589,40.468c3.844,4.496,3.404,11.362-0.981,15.299
						c-4.417,3.963-11.076,3.494-14.92-1.013c-3.87-4.504-3.394-11.344,0.974-15.292C382.061,35.514,388.741,35.958,392.589,40.468z
						"/>
				</g>
			</g>
			<g>
				<path fill="#5D9E6A" d="M42.918,153.154c0,0.078,0.02,0.154,0.026,0.223c0.353,0.514,0.54,0.89,0.54,1.142
					c0,0.448-0.344,0.825-1.067,1.11c-0.33,0.033-0.864,0.046-1.581,0.046c-1.62,0-3.184-0.088-4.706-0.249
					c-4.654-0.53-7.289-1.594-7.799-3.246c0-5.354,0.206-10.031,0.681-14.047c0.242-2.222,0.56-4.327,1.024-6.303l1.911-0.488
					c0.088,0.799,0.15,1.613,0.15,2.448c0,1.224-0.118,2.602-0.275,4.12l-0.563,4.536c-0.18,1.692-0.285,3.152-0.285,4.425
					c0,1.541,0.131,2.981,0.419,4.34c1.014,0.606,2.543,1.073,4.542,1.404c1.489,0.233,3.106,0.409,4.772,0.488
					C41.337,153.134,42.087,153.154,42.918,153.154z"/>
				<path fill="#5D9E6A" d="M49.424,155.674h-0.582c-1.44,0-2.441-0.651-3.037-1.95c-0.265-0.563-0.485-1.44-0.704-2.631
					c-0.016-0.17-0.049-0.35-0.049-0.53c0-1.207,1.001-2.585,2.955-4.137c0.992-0.776,2.242-1.159,3.711-1.159
					c0.52,0,1.201,0.059,2.101,0.157c0.939,0.115,1.646,0.174,2.065,0.174c-0.01-1.702-0.71-2.936-2.065-3.675
					c-0.37-0.2-0.766-0.291-1.175-0.291c-0.625,0-1.332,0.249-2.121,0.756l-2.229,1.466c-0.308,0-0.56-0.17-0.795-0.517
					c-0.219-0.308-0.327-0.612-0.327-0.916c0-0.213,0.059-0.416,0.177-0.602c2.095-1.787,3.937-2.674,5.57-2.674
					c2.088,0,3.554,0.959,4.392,2.854c0.416,0.992,0.782,2.638,1.054,4.942c0.272,2.399,0.606,4.094,0.917,5.118
					C57.246,153.792,53.937,155.003,49.424,155.674z M55.256,147.924c-1.047-0.334-1.967-0.494-2.743-0.494
					c-1.859,0-3.355,0.795-4.507,2.389c-0.354,0.514-0.53,1.011-0.53,1.551c0,0.864,0.416,1.42,1.204,1.653
					c0.402,0.111,0.798,0.167,1.168,0.137c0.713-0.033,2.242-0.282,4.631-0.73c0.776-0.252,1.384-0.589,1.816-1.047l-0.167-1.892
					C55.986,148.749,55.685,148.225,55.256,147.924z"/>
				<path fill="#5D9E6A" d="M86.898,152.653c-0.749,1.561-2.428,2.474-5.001,2.788c-0.845,0.095-1.905,0.157-3.168,0.157h-0.851
					h-0.517h-2.782c-0.74-0.586-1.106-1.286-1.106-2.127c0-0.085,0.029-0.249,0.066-0.468c0.043-0.059,0.15-0.092,0.252-0.092
					l1.028,0.223c0.157,0.033,1.001,0.088,2.543,0.174c0.848,0.026,1.46,0.026,1.82,0.026c3.194,0,4.88-0.766,5.073-2.32
					c0.059-0.677-1.663-1.659-5.161-2.913c-0.426-0.151-1.679-0.589-3.764-1.303c-0.366-0.118-0.72-0.373-1.041-0.753
					c-0.448-0.481-0.664-1.018-0.664-1.61c0-0.134,0.026-0.321,0.091-0.553c0.445-1.312,2.533-2.566,6.245-3.741
					c1.499-0.485,2.821-0.799,4.032-0.939l0.213,1.676c-0.337,0.327-1.136,0.655-2.343,1.018c-1.437,0.416-2.366,0.736-2.831,0.995
					c-0.929,0.458-1.384,1.064-1.384,1.81c0,0.553,1.031,1.06,3.08,1.502c1.299,0.294,2.17,0.514,2.572,0.681
					c0.9,0.282,1.728,0.834,2.52,1.653c0.893,0.923,1.358,1.912,1.358,2.88C87.176,151.868,87.087,152.283,86.898,152.653z"/>
				<path fill="#5D9E6A" d="M93.211,155.674h-0.599c-1.427,0-2.461-0.651-3.047-1.95c-0.249-0.563-0.478-1.44-0.694-2.631
					c-0.04-0.17-0.049-0.35-0.049-0.53c0-1.207,0.975-2.585,2.962-4.137c0.992-0.776,2.209-1.159,3.721-1.159
					c0.485,0,1.172,0.059,2.075,0.157c0.969,0.115,1.65,0.174,2.082,0.174c-0.02-1.702-0.707-2.936-2.082-3.675
					c-0.36-0.2-0.759-0.291-1.188-0.291c-0.622,0-1.312,0.249-2.108,0.756l-2.235,1.466c-0.265,0-0.563-0.17-0.779-0.517
					c-0.226-0.308-0.327-0.612-0.327-0.916c0-0.213,0.059-0.416,0.187-0.602c2.085-1.787,3.93-2.674,5.547-2.674
					c2.091,0,3.554,0.959,4.382,2.854c0.442,0.992,0.799,2.638,1.077,4.942c0.268,2.399,0.579,4.094,0.929,5.118
					C101.006,153.792,97.711,155.003,93.211,155.674z M99.023,147.924c-1.047-0.334-1.97-0.494-2.733-0.494
					c-1.856,0-3.351,0.795-4.507,2.389c-0.363,0.514-0.566,1.011-0.566,1.551c0,0.864,0.435,1.42,1.24,1.653
					c0.393,0.111,0.782,0.167,1.148,0.137c0.746-0.033,2.275-0.282,4.644-0.73c0.772-0.252,1.391-0.589,1.833-1.047l-0.187-1.892
					C99.753,148.749,99.462,148.225,99.023,147.924z"/>
				<path fill="#5D9E6A" d="M108.354,140.017l-0.334,5.521c-0.085,1.839-0.164,3.397-0.164,4.628c0,1.99,0.111,3.741,0.33,5.246
					c-0.609,0.229-1.011,0.376-1.155,0.426c-0.396,0.199-0.746,0.425-1.001,0.717c-0.327-1.728-0.488-3.983-0.488-6.784
					c0-3.459,0.295-8.565,0.9-15.317c0.209-0.016,0.393-0.016,0.481,0c0.605,0.059,1.116,0.321,1.587,0.775
					C108.511,136.754,108.449,138.328,108.354,140.017z"/>
				<path fill="#5D9E6A" d="M125.798,155.268c-0.494-0.537-0.89-0.979-1.168-1.309c-0.465-0.625-0.851-1.322-1.123-2.068
					c-0.314,0.183-1.064,0.651-2.219,1.437c-0.91,0.602-1.702,1.051-2.373,1.325c-0.949,0.419-1.911,0.615-2.824,0.615h-0.481
					c-0.118-0.016-0.196-0.029-0.268-0.029c-2.648,0-3.993-3.95-3.993-11.857v-1.421c0-0.979,0.753-1.476,2.284-1.499
					c0.275,0.779,0.445,2.101,0.498,3.947c0.075,2.366,0.141,3.793,0.226,4.323c0.226,1.604,0.759,2.772,1.574,3.502
					c0.206,0.141,0.445,0.196,0.72,0.196c1.394,0,2.956-0.871,4.716-2.612c1.44-1.43,2.17-3.528,2.17-6.307
					c0-0.9-0.016-1.479-0.029-1.721c-0.026-0.268-0.095-0.648-0.115-1.129c-0.023-0.232,0.157-0.455,0.517-0.644
					c0.331-0.193,0.612-0.272,0.874-0.272c0.252,0,0.484,0.059,0.723,0.161c0.445,0.285,0.651,1.103,0.651,2.441
					c0,0.648-0.056,1.492-0.18,2.533c-0.262,2.291-0.389,3.561-0.389,3.767c0,0.167,0,0.275,0,0.337
					c0.069,1.139,0.183,1.951,0.409,2.415c0.17,0.416,0.517,0.884,1.064,1.391c0.641,0.632,1.086,1.149,1.397,1.532
					C127.961,154.941,127.087,155.268,125.798,155.268z"/>
				<path fill="#5D9E6A" d="M141.622,155.566c-0.893,0.167-1.564,0.471-2.068,0.871v-2.006c-0.913,0.357-1.751,0.583-2.536,0.681
					c-2.042,0.288-3.162,0.419-3.309,0.419c-1.614,0-2.883-0.71-3.793-2.186c-0.789-1.253-1.185-2.746-1.185-4.487
					c0-3.015,1.083-5.247,3.348-6.69c1.66-1.09,3.826-1.669,6.464-1.722c-0.347-2.167-0.507-4.245-0.523-6.225
					c0.164-0.206,0.416-0.295,0.766-0.295c0.648,0,1.178,0.245,1.568,0.766c0.043,0.18,0.33,3.057,0.861,8.643
					c0.367,3.463,0.537,6.356,0.537,8.67C141.749,153.213,141.681,154.404,141.622,155.566z M139.19,145.947
					c-0.046-0.949-0.213-1.735-0.465-2.347c-0.563-0.088-1.067-0.131-1.564-0.131c-1.486,0-3.06,0.485-4.673,1.486
					c-0.52,0.311-0.907,0.939-1.191,1.902c-0.219,0.795-0.344,1.607-0.344,2.409c0,1.231,0.484,2.186,1.43,2.854
					c0.596,0.451,1.162,0.671,1.653,0.671c2.167,0,3.895-0.671,5.246-2.016C139.281,149.24,139.249,147.636,139.19,145.947z"/>
				<path fill="#5D9E6A" d="M173.685,153.73c0.016,0.137-0.737,0.402-2.226,0.789c-2.173,0.553-4.798,0.825-7.9,0.825h-1.542
					c-1.882,0-3.613-0.913-5.23-2.73c-0.681-0.972-1.054-2.212-1.054-3.724c0-3.891,1.731-6.627,5.135-8.195
					c1.757-0.805,3.567-1.211,5.403-1.211c1.201,0,2.33,0.523,3.315,1.551c0.7,0.73,1.253,1.597,1.65,2.615
					c0.016,0.088,0.036,0.19,0.082,0.344c0,0.072,0.01,0.193,0.052,0.344c-0.052,0.046-0.118,0.098-0.229,0.193
					c-3.973,2.268-8.251,3.878-12.914,4.824c-0.056,0.033-0.075,0.098-0.075,0.19c0,0.389,0.164,0.874,0.484,1.47
					c0.321,0.582,0.658,0.956,1.008,1.1c1.29,0.55,2.697,0.818,4.186,0.818c0.893,0,1.902-0.105,3.047-0.318l3.41-0.655
					c1.348-0.252,2.33-0.393,2.9-0.393c0.187,0,0.295,0.066,0.354,0.193c0,0,0.01,0.15,0.039,0.438L173.685,153.73z
					 M167.526,143.532c-0.203-1.178-1.005-1.754-2.376-1.754c-0.367,0-0.838,0.072-1.424,0.22c-1.816,0.448-3.348,1.401-4.543,2.834
					c-0.504,0.592-0.762,1.139-0.762,1.633c0,0.275,0.108,0.481,0.304,0.625c0.92-0.193,1.892-0.534,2.978-1.008
					c0.504-0.245,1.597-0.73,3.198-1.446c0.291-0.134,0.952-0.416,1.882-0.831C166.838,143.771,167.054,143.682,167.526,143.532z"/>
				<path fill="#5D9E6A" d="M188.072,152.653c-0.743,1.561-2.396,2.474-4.981,2.788c-0.841,0.095-1.905,0.157-3.152,0.157h-0.884
					h-0.481h-2.802c-0.733-0.586-1.087-1.286-1.087-2.127c0-0.085,0.023-0.249,0.056-0.468c0.036-0.059,0.111-0.092,0.232-0.092
					l1.051,0.223c0.144,0.033,0.998,0.088,2.517,0.174c0.874,0.026,1.473,0.026,1.826,0.026c3.197,0,4.883-0.766,5.092-2.32
					c0.056-0.677-1.643-1.659-5.171-2.913c-0.416-0.151-1.695-0.589-3.77-1.303c-0.36-0.118-0.704-0.373-1.041-0.753
					c-0.438-0.481-0.648-1.018-0.648-1.61c0-0.134,0.023-0.321,0.075-0.553c0.448-1.312,2.543-2.566,6.261-3.741
					c1.486-0.485,2.821-0.799,4.013-0.939l0.236,1.676c-0.347,0.327-1.132,0.655-2.379,1.018c-1.414,0.416-2.353,0.736-2.811,0.995
					c-0.923,0.458-1.361,1.064-1.361,1.81c0,0.553,1.018,1.06,3.066,1.502c1.312,0.294,2.17,0.514,2.563,0.681
					c0.903,0.282,1.748,0.834,2.533,1.653c0.904,0.923,1.335,1.912,1.335,2.88C188.36,151.868,188.268,152.283,188.072,152.653z"/>
				<path fill="#5D9E6A" d="M213.966,147.171c-0.137,0.805-0.327,1.355-0.573,1.643c-1.358,1.528-3.253,2.379-5.717,2.569
					c-0.681,0.065-1.411,0.016-2.239-0.079c0.043,0.432,0.295,2.851,0.799,7.272c-0.318,0.337-0.713,0.504-1.237,0.547
					c-0.177,0.007-0.543,0.016-1.165,0.043c-0.635-2.942-1.123-6.856-1.46-11.762c-0.203-3.077-0.232-5.587-0.091-7.537
					c1.8-0.491,3.426-0.74,4.844-0.74c2.723,0,4.778,0.805,6.136,2.396c0.475,0.566,0.743,1.505,0.848,2.828
					C214.182,145.254,214.133,146.193,213.966,147.171z M210.765,142.711c-1.623-0.877-3.034-1.286-4.193-1.188
					c-0.409,0.019-1.008,0.134-1.813,0.344c0,0.671,0.029,1.394,0.062,2.16c0.059,0.674,0.177,2.209,0.406,4.589
					c1.293,0.102,2.134,0.134,2.572,0.118c1.207-0.098,2.288-0.589,3.197-1.502c0.33-0.334,0.458-1.191,0.357-2.595
					C211.296,143.532,211.08,142.891,210.765,142.711z"/>
				<path fill="#5D9E6A" d="M220.731,155.674h-0.583c-1.446,0-2.448-0.651-3.04-1.95c-0.258-0.563-0.494-1.44-0.697-2.631
					c-0.049-0.17-0.059-0.35-0.059-0.53c0-1.207,0.998-2.585,2.965-4.137c0.992-0.776,2.225-1.159,3.715-1.159
					c0.504,0,1.198,0.059,2.088,0.157c0.943,0.115,1.65,0.174,2.075,0.174c-0.029-1.702-0.713-2.936-2.075-3.675
					c-0.36-0.2-0.762-0.291-1.185-0.291c-0.615,0-1.303,0.249-2.108,0.756l-2.226,1.466c-0.314,0-0.586-0.17-0.811-0.517
					c-0.203-0.308-0.308-0.612-0.308-0.916c0-0.213,0.059-0.416,0.183-0.602c2.098-1.787,3.947-2.674,5.564-2.674
					c2.062,0,3.548,0.959,4.382,2.854c0.448,0.992,0.776,2.638,1.047,4.942c0.291,2.399,0.599,4.094,0.952,5.118
					C228.534,153.792,225.284,155.003,220.731,155.674z M226.56,147.924c-1.047-0.334-1.95-0.494-2.752-0.494
					c-1.823,0-3.338,0.795-4.49,2.389c-0.337,0.514-0.54,1.011-0.54,1.551c0,0.864,0.406,1.42,1.194,1.653
					c0.439,0.111,0.805,0.167,1.172,0.137c0.736-0.033,2.271-0.282,4.644-0.73c0.772-0.252,1.378-0.589,1.826-1.047l-0.183-1.892
					C227.283,148.749,226.999,148.225,226.56,147.924z"/>
				<path fill="#5D9E6A" d="M248.209,142.517c-0.628-0.596-1.46-0.955-2.441-1.093c-1.371-0.19-2.543-0.082-3.548,0.308
					c-0.871,0.347-1.892,1.021-3.011,2.039c-1.554,1.371-2.631,2.742-3.289,4.081c-0.102,0.88-0.137,1.905-0.049,3.057
					c0.049,0.596,0.177,1.839,0.409,3.711c0.137,0.966,0.2,1.715,0.265,2.222l-2.003,0.127c-0.102-1.122-0.239-2.428-0.458-3.927
					l-0.658-4.841c-0.379-2.772-0.576-5.059-0.576-6.876l0.373-0.016l0.242-0.039c0.442-0.262,0.73-0.402,0.896-0.402
					c0.203-0.013,0.396,0.036,0.514,0.18l0.249,3.171c2.255-3.482,5.112-5.354,8.578-5.606c0.592-0.046,1.466-0.006,2.618,0.111
					c1.342,0.141,2.121,0.344,2.389,0.596c0.115,0.531,0.18,1.054,0.18,1.558C248.89,141.922,248.651,142.468,248.209,142.517z"/>
				<path fill="#5D9E6A" d="M253.561,155.674h-0.589c-1.44,0-2.451-0.651-3.047-1.95c-0.245-0.563-0.491-1.44-0.7-2.631
					c-0.043-0.17-0.043-0.35-0.043-0.53c0-1.207,0.982-2.585,2.959-4.137c0.982-0.776,2.226-1.159,3.715-1.159
					c0.498,0,1.169,0.059,2.085,0.157c0.962,0.115,1.656,0.174,2.091,0.174c-0.03-1.702-0.733-2.936-2.091-3.675
					c-0.367-0.2-0.759-0.291-1.198-0.291c-0.609,0-1.309,0.249-2.098,0.756l-2.229,1.466c-0.292,0-0.557-0.17-0.792-0.517
					c-0.226-0.308-0.344-0.612-0.344-0.916c0-0.213,0.082-0.416,0.226-0.602c2.078-1.787,3.927-2.674,5.547-2.674
					c2.085,0,3.545,0.959,4.383,2.854c0.438,0.992,0.792,2.638,1.037,4.942c0.301,2.399,0.619,4.094,0.952,5.118
					C261.359,153.792,258.08,155.003,253.561,155.674z M259.366,147.924c-1.015-0.334-1.961-0.494-2.717-0.494
					c-1.862,0-3.371,0.795-4.51,2.389c-0.373,0.514-0.534,1.011-0.534,1.551c0,0.864,0.403,1.42,1.198,1.653
					c0.402,0.111,0.799,0.167,1.148,0.137c0.733-0.033,2.291-0.282,4.657-0.73c0.779-0.252,1.391-0.589,1.816-1.047l-0.17-1.892
					C260.09,148.749,259.824,148.225,259.366,147.924z"/>
				<path fill="#5D9E6A" d="M292.791,139.906c0.219,0.075,0.321,0.373,0.321,0.883c0,1.015-0.321,1.515-0.929,1.515l-6.231,1.119
					c0,0.396-0.016,0.92-0.069,1.561c-0.065,1.453-0.098,2.379-0.098,2.782c0,2.464,0.648,4.307,1.934,5.521
					c0.246,0.239,0.547,0.354,0.867,0.354c0.22,0,0.848-0.177,1.944-0.547c0.524-0.183,0.966-0.268,1.296-0.268
					c0.209,0,0.337,0,0.413,0.02c0.301,0.772,0.409,1.293,0.409,1.558c-0.857,1.083-2.497,1.617-4.814,1.617
					c-0.612,0-1.24-0.275-1.882-0.808c-1.378-1.168-2.202-3.652-2.504-7.445c-0.098-1.11-0.141-2.478-0.141-4.029
					c-1.548,0.174-2.798,0.376-3.669,0.599c-1.159,0.268-2.314,0.73-3.466,1.312c-0.052,0-0.226-0.396-0.514-1.198l-0.412-1.191
					c0.53-0.507,1.335-0.883,2.373-1.139c0.56-0.128,1.561-0.304,3.034-0.481c1.283-0.167,2.278-0.37,3.001-0.605
					c0.285-1.028,0.498-1.934,0.655-2.707c0.249-1.076,0.448-2.088,0.556-3.034c0.19-0.363,0.596-0.527,1.231-0.527
					c0.35,0,0.703,0.059,0.975,0.196c0,0.373-0.229,1.404-0.674,3.044c-0.203,0.782-0.301,1.453-0.301,2.01
					c0,0.219,0.01,0.458,0.062,0.697c0.71,0,2.285-0.2,4.736-0.612C291.721,139.981,292.349,139.906,292.791,139.906z"/>
				<path fill="#5D9E6A" d="M314.264,150.807c-0.746,3.266-3.083,4.893-7.069,4.893c-2.553,0-4.576-0.212-6.1-0.677
					c-1.856-0.553-3.325-1.617-4.324-3.197c-0.962-1.483-1.456-3.256-1.456-5.305c0-1.453,0.393-2.756,1.178-3.888
					c1.898-2.729,4.278-4.107,7.128-4.107c1.689,0,3.675,0.504,5.976,1.506c1.584,0.694,2.821,1.816,3.688,3.367
					c0.841,1.466,1.26,3.122,1.26,4.962C314.545,149.194,314.434,149.999,314.264,150.807z M312.022,150.081
					c0.232-0.471,0.36-1.014,0.36-1.633c0-1.142-0.402-2.304-1.201-3.463c-0.69-1.002-1.489-1.784-2.396-2.353
					c-1.803-1.109-3.587-1.679-5.338-1.679c-2.356,0-3.888,0.992-4.579,2.981c-0.579,1.627-0.877,2.857-0.877,3.702
					c0,0.648,0.111,1.299,0.353,1.911c0.468,1.398,1.656,2.294,3.522,2.68c0.144,0.023,0.576,0.088,1.339,0.177l0.488,0.069
					c2,0.255,3.168,0.373,3.502,0.373C309.388,152.846,311.03,151.927,312.022,150.081z"/>
				<path fill="#5D9E6A" d="M329.371,155.566c-0.871,0.167-1.564,0.471-2.072,0.871v-2.006c-0.933,0.357-1.754,0.583-2.53,0.681
					c-2.049,0.288-3.162,0.419-3.338,0.419c-1.591,0-2.854-0.71-3.761-2.186c-0.785-1.253-1.194-2.746-1.194-4.487
					c0-3.015,1.1-5.247,3.338-6.69c1.669-1.09,3.823-1.669,6.447-1.722c-0.314-2.167-0.478-4.245-0.478-6.225
					c0.144-0.206,0.419-0.295,0.766-0.295c0.658,0,1.152,0.245,1.584,0.766c0,0.18,0.301,3.057,0.848,8.643
					c0.337,3.463,0.507,6.356,0.507,8.67C329.489,153.213,329.433,154.404,329.371,155.566z M326.926,145.947
					c-0.043-0.949-0.203-1.735-0.445-2.347c-0.553-0.088-1.083-0.131-1.574-0.131c-1.479,0-3.047,0.485-4.68,1.486
					c-0.497,0.311-0.877,0.939-1.181,1.902c-0.206,0.795-0.337,1.607-0.337,2.409c0,1.231,0.468,2.186,1.42,2.854
					c0.615,0.451,1.159,0.671,1.656,0.671c2.134,0,3.904-0.671,5.25-2.016C327.034,149.24,326.988,147.636,326.926,145.947z"/>
				<path fill="#5D9E6A" d="M351.328,150.807c-0.749,3.266-3.125,4.893-7.053,4.893c-2.572,0-4.582-0.212-6.113-0.677
					c-1.885-0.553-3.322-1.617-4.333-3.197c-0.946-1.483-1.456-3.256-1.456-5.305c0-1.453,0.386-2.756,1.175-3.888
					c1.918-2.729,4.278-4.107,7.154-4.107c1.682,0,3.666,0.504,5.983,1.506c1.551,0.694,2.798,1.816,3.672,3.367
					c0.825,1.466,1.218,3.122,1.218,4.962C351.574,149.194,351.492,149.999,351.328,150.807z M349.063,150.081
					c0.252-0.471,0.376-1.014,0.376-1.633c0-1.142-0.399-2.304-1.198-3.463c-0.7-1.002-1.473-1.784-2.396-2.353
					c-1.803-1.109-3.567-1.679-5.364-1.679c-2.343,0-3.875,0.992-4.576,2.981c-0.563,1.627-0.857,2.857-0.857,3.702
					c0,0.648,0.118,1.299,0.334,1.911c0.497,1.398,1.676,2.294,3.564,2.68c0.121,0.023,0.553,0.088,1.312,0.177l0.491,0.069
					c2.009,0.255,3.191,0.373,3.525,0.373C346.468,152.846,348.059,151.927,349.063,150.081z"/>
				<path fill="#5D9E6A" d="M367.171,152.653c-0.766,1.561-2.415,2.474-4.974,2.788c-0.858,0.095-1.911,0.157-3.181,0.157h-0.877
					h-0.491h-2.789c-0.72-0.586-1.093-1.286-1.093-2.127c0-0.085,0.023-0.249,0.049-0.468c0.065-0.059,0.128-0.092,0.252-0.092
					l1.041,0.223c0.138,0.033,0.995,0.088,2.53,0.174c0.838,0.026,1.479,0.026,1.81,0.026c3.194,0,4.903-0.766,5.086-2.32
					c0.072-0.677-1.663-1.659-5.148-2.913c-0.435-0.151-1.692-0.589-3.787-1.303c-0.353-0.118-0.717-0.373-1.044-0.753
					c-0.416-0.481-0.658-1.018-0.658-1.61c0-0.134,0.046-0.321,0.092-0.553c0.451-1.312,2.536-2.566,6.257-3.741
					c1.479-0.485,2.808-0.799,4.022-0.939l0.226,1.676c-0.35,0.327-1.129,0.655-2.36,1.018c-1.43,0.416-2.386,0.736-2.834,0.995
					c-0.897,0.458-1.361,1.064-1.361,1.81c0,0.553,1.011,1.06,3.053,1.502c1.322,0.294,2.18,0.514,2.599,0.681
					c0.903,0.282,1.741,0.834,2.504,1.653c0.9,0.923,1.352,1.912,1.352,2.88C367.447,151.868,367.375,152.283,367.171,152.653z"/>
			</g>
			<g>
				<path fill="#87868A" d="M595.957,101.054c-5.491,0-9.948,4.579-9.948,10.199c0,5.631,4.457,10.206,9.948,10.206
					c5.48,0,9.937-4.575,9.937-10.206C605.894,105.632,601.437,101.054,595.957,101.054z M595.957,120.151
					c-4.789,0-8.674-3.988-8.674-8.899c0-4.912,3.884-8.885,8.674-8.885c4.783,0,8.663,3.974,8.663,8.885
					C604.62,116.164,600.739,120.151,595.957,120.151z"/>
				<g>
					<path fill="#87868A" d="M591.468,117.198v-11.874h5.126c1.035,0,1.818,0.107,2.352,0.319c0.537,0.215,0.967,0.591,1.289,1.128
						c0.319,0.541,0.476,1.131,0.476,1.79c0,0.845-0.265,1.553-0.791,2.123c-0.53,0.584-1.357,0.949-2.467,1.11
						c0.408,0.197,0.716,0.397,0.924,0.584c0.447,0.43,0.873,0.952,1.271,1.582l2.015,3.239h-1.933l-1.521-2.477
						c-0.448-0.709-0.82-1.253-1.103-1.632c-0.297-0.383-0.555-0.648-0.784-0.798c-0.222-0.143-0.458-0.254-0.702-0.312
						c-0.165-0.036-0.451-0.061-0.848-0.061H593v5.28H591.468z M593,110.558h3.286c0.698,0,1.246-0.075,1.647-0.218
						c0.394-0.154,0.694-0.387,0.891-0.709c0.211-0.33,0.312-0.687,0.312-1.07c0-0.566-0.197-1.031-0.602-1.385
						c-0.39-0.354-1.02-0.541-1.872-0.541H593V110.558z"/>
				</g>
			</g>
		</g>
	</g>
	<rect x="28.08" y="165.717" fill="#E6B54A" width="577.814" height="52.392"/>
	<g>
		<path fill="#FFFFFF" d="M42.498,182.439h4.027v14.322h7.645v3.517H42.498V182.439z"/>
		<path fill="#FFFFFF" d="M64.44,200.278v-1.605c-0.459,0.577-1.053,1.019-1.784,1.325c-0.731,0.306-1.572,0.458-2.523,0.458
			c-1.444,0-2.591-0.395-3.441-1.185c-0.85-0.791-1.274-1.823-1.274-3.096c0-1.291,0.454-2.298,1.364-3.02
			c0.908-0.722,2.195-1.092,3.861-1.108h3.772v-0.255c0-0.73-0.242-1.295-0.726-1.694c-0.484-0.4-1.194-0.6-2.128-0.6
			c-1.274,0-2.634,0.4-4.078,1.198l-1.223-2.702c1.087-0.543,2.106-0.943,3.058-1.197c0.951-0.255,1.996-0.383,3.134-0.383
			c1.835,0,3.258,0.433,4.269,1.3c1.011,0.866,1.525,2.073,1.542,3.619l0.026,8.945H64.44z M63.345,197.067
			c0.594-0.391,0.951-0.883,1.07-1.478v-1.223h-3.084c-0.765,0-1.33,0.124-1.695,0.37c-0.365,0.246-0.548,0.641-0.548,1.185
			c0,0.527,0.191,0.948,0.573,1.262c0.382,0.315,0.904,0.471,1.567,0.471C62.045,197.653,62.75,197.458,63.345,197.067z"/>
		<path fill="#FFFFFF" d="M83.439,187.32c0.977,0.586,1.733,1.414,2.269,2.485c0.535,1.07,0.803,2.302,0.803,3.695
			c0,1.376-0.264,2.587-0.79,3.632c-0.526,1.044-1.27,1.855-2.23,2.433c-0.96,0.578-2.077,0.867-3.351,0.867
			c-0.951,0-1.797-0.183-2.535-0.548c-0.739-0.365-1.364-0.897-1.873-1.593v1.988h-3.925v-18.91h3.925v7.212
			c0.492-0.696,1.108-1.227,1.848-1.592s1.567-0.548,2.485-0.548C81.336,186.44,82.462,186.733,83.439,187.32z M81.591,196.111
			c0.628-0.705,0.943-1.618,0.943-2.739c0-1.104-0.315-2.009-0.943-2.714c-0.628-0.705-1.444-1.058-2.446-1.058
			c-1.003,0-1.822,0.353-2.46,1.058c-0.637,0.706-0.955,1.61-0.955,2.714c0,1.138,0.319,2.055,0.955,2.752
			c0.637,0.697,1.457,1.045,2.46,1.045C80.147,197.169,80.963,196.817,81.591,196.111z"/>
		<path fill="#FFFFFF" d="M99.137,187.307c1.113,0.578,1.975,1.393,2.587,2.446c0.612,1.054,0.917,2.277,0.917,3.669
			c0,1.376-0.306,2.596-0.917,3.657s-1.474,1.886-2.587,2.472c-1.113,0.586-2.391,0.88-3.836,0.88c-1.461,0-2.748-0.294-3.861-0.88
			c-1.113-0.586-1.975-1.41-2.587-2.472c-0.612-1.062-0.917-2.281-0.917-3.657c0-1.392,0.306-2.615,0.917-3.669
			c0.612-1.053,1.474-1.868,2.587-2.446s2.4-0.867,3.861-0.867C96.745,186.44,98.024,186.729,99.137,187.307z M92.817,190.746
			c-0.637,0.698-0.956,1.606-0.956,2.727c0,1.121,0.319,2.031,0.956,2.727c0.637,0.697,1.465,1.044,2.484,1.044
			c1.002,0,1.822-0.347,2.46-1.044c0.637-0.697,0.955-1.606,0.955-2.727c0-1.121-0.319-2.03-0.955-2.727
			c-0.637-0.696-1.457-1.045-2.46-1.045C94.282,189.702,93.454,190.051,92.817,190.746z"/>
		<path fill="#FFFFFF" d="M111.025,187.103c0.764-0.442,1.657-0.671,2.676-0.689v3.696c-0.136-0.017-0.34-0.026-0.612-0.026
			c-1.206,0-2.162,0.328-2.867,0.981c-0.705,0.654-1.058,1.525-1.058,2.612v6.6h-3.925v-13.711h3.925v2.472
			C109.641,188.19,110.261,187.544,111.025,187.103z"/>
		<path fill="#FFFFFF" d="M123.359,200.278v-1.605c-0.459,0.577-1.053,1.019-1.784,1.325c-0.731,0.306-1.572,0.458-2.523,0.458
			c-1.444,0-2.591-0.395-3.441-1.185c-0.85-0.791-1.274-1.823-1.274-3.096c0-1.291,0.454-2.298,1.364-3.02
			c0.908-0.722,2.195-1.092,3.861-1.108h3.772v-0.255c0-0.73-0.242-1.295-0.726-1.694c-0.484-0.4-1.194-0.6-2.128-0.6
			c-1.274,0-2.634,0.4-4.078,1.198l-1.223-2.702c1.087-0.543,2.106-0.943,3.058-1.197c0.951-0.255,1.996-0.383,3.134-0.383
			c1.835,0,3.258,0.433,4.269,1.3c1.011,0.866,1.525,2.073,1.542,3.619l0.026,8.945H123.359z M122.264,197.067
			c0.594-0.391,0.951-0.883,1.07-1.478v-1.223h-3.084c-0.765,0-1.33,0.124-1.695,0.37c-0.365,0.246-0.548,0.641-0.548,1.185
			c0,0.527,0.191,0.948,0.573,1.262c0.382,0.315,0.904,0.471,1.567,0.471C120.964,197.653,121.669,197.458,122.264,197.067z"/>
		<path fill="#FFFFFF" d="M139.083,199.513c-0.51,0.306-1.075,0.54-1.695,0.702c-0.62,0.161-1.245,0.241-1.873,0.241
			c-1.274,0-2.311-0.365-3.109-1.095s-1.197-1.775-1.197-3.135v-6.345h-1.911v-2.702h1.911v-3.771h3.899v3.771h3.721v2.727h-3.721
			v5.657c0,1.053,0.416,1.579,1.249,1.579c0.577,0,1.214-0.169,1.911-0.51L139.083,199.513z"/>
		<path fill="#FFFFFF" d="M151.379,187.307c1.113,0.578,1.975,1.393,2.587,2.446c0.612,1.054,0.917,2.277,0.917,3.669
			c0,1.376-0.306,2.596-0.917,3.657s-1.474,1.886-2.587,2.472c-1.113,0.586-2.391,0.88-3.836,0.88c-1.461,0-2.748-0.294-3.861-0.88
			c-1.113-0.586-1.975-1.41-2.587-2.472c-0.612-1.062-0.917-2.281-0.917-3.657c0-1.392,0.306-2.615,0.917-3.669
			c0.612-1.053,1.474-1.868,2.587-2.446c1.113-0.578,2.4-0.867,3.861-0.867C148.988,186.44,150.266,186.729,151.379,187.307z
			 M145.059,190.746c-0.637,0.698-0.956,1.606-0.956,2.727c0,1.121,0.319,2.031,0.956,2.727c0.637,0.697,1.465,1.044,2.484,1.044
			c1.002,0,1.822-0.347,2.46-1.044c0.637-0.697,0.955-1.606,0.955-2.727c0-1.121-0.319-2.03-0.955-2.727
			c-0.637-0.696-1.457-1.045-2.46-1.045C146.524,189.702,145.696,190.051,145.059,190.746z"/>
		<path fill="#FFFFFF" d="M163.267,187.103c0.764-0.442,1.657-0.671,2.676-0.689v3.696c-0.136-0.017-0.34-0.026-0.612-0.026
			c-1.206,0-2.162,0.328-2.867,0.981c-0.705,0.654-1.058,1.525-1.058,2.612v6.6h-3.925v-13.711h3.925v2.472
			C161.883,188.19,162.503,187.544,163.267,187.103z"/>
		<path fill="#FFFFFF" d="M171.563,181.088c0.399,0.408,0.599,0.934,0.599,1.58c0,0.645-0.2,1.172-0.599,1.579
			c-0.399,0.408-0.913,0.612-1.542,0.612c-0.612,0-1.117-0.208-1.517-0.624c-0.399-0.416-0.599-0.938-0.599-1.566
			c0-0.646,0.199-1.173,0.599-1.58c0.399-0.408,0.905-0.612,1.517-0.612C170.649,180.477,171.163,180.681,171.563,181.088z
			 M168.084,186.568h3.925v13.711h-3.925V186.568z"/>
		<path fill="#FFFFFF" d="M185.808,187.307c1.113,0.578,1.975,1.393,2.587,2.446c0.612,1.054,0.917,2.277,0.917,3.669
			c0,1.376-0.306,2.596-0.917,3.657s-1.474,1.886-2.587,2.472c-1.113,0.586-2.391,0.88-3.836,0.88c-1.461,0-2.748-0.294-3.861-0.88
			c-1.113-0.586-1.975-1.41-2.587-2.472c-0.612-1.062-0.917-2.281-0.917-3.657c0-1.392,0.306-2.615,0.917-3.669
			c0.612-1.053,1.474-1.868,2.587-2.446c1.113-0.578,2.4-0.867,3.861-0.867C183.417,186.44,184.695,186.729,185.808,187.307z
			 M179.488,190.746c-0.637,0.698-0.956,1.606-0.956,2.727c0,1.121,0.319,2.031,0.956,2.727c0.637,0.697,1.465,1.044,2.484,1.044
			c1.002,0,1.822-0.347,2.46-1.044c0.637-0.697,0.955-1.606,0.955-2.727c0-1.121-0.319-2.03-0.955-2.727
			c-0.637-0.696-1.457-1.045-2.46-1.045C180.953,189.702,180.125,190.051,179.488,190.746z"/>
		<path fill="#FFFFFF" d="M203.965,189.779c-0.985,0-1.788,0.335-2.408,1.006c-0.62,0.671-0.93,1.559-0.93,2.663
			c0,1.104,0.306,2.001,0.917,2.689s1.393,1.032,2.345,1.032c1.427,0,2.489-0.535,3.185-1.605l2.702,1.835
			c-0.578,0.969-1.389,1.716-2.434,2.242c-1.045,0.527-2.264,0.791-3.657,0.791c-1.376,0-2.591-0.289-3.645-0.867
			c-1.053-0.578-1.873-1.393-2.459-2.446c-0.586-1.054-0.879-2.268-0.879-3.645c0-1.393,0.293-2.62,0.879-3.682
			s1.41-1.886,2.472-2.472c1.062-0.587,2.289-0.88,3.683-0.88c1.308,0,2.472,0.251,3.491,0.752c1.019,0.501,1.835,1.21,2.447,2.128
			l-2.651,1.912C206.242,190.263,205.222,189.779,203.965,189.779z"/>
		<path fill="#FFFFFF" d="M212.35,181.368h3.925v18.91h-3.925V181.368z"/>
		<path fill="#FFFFFF" d="M223.027,180.782l3.465,1.351l-3.465,2.803l-2.854-0.255L223.027,180.782z M220.198,186.568h3.925v13.711
			h-3.925V186.568z"/>
		<path fill="#FFFFFF" d="M240.217,187.842c0.908,0.951,1.363,2.226,1.363,3.822v8.614h-3.925v-7.467
			c0-0.866-0.242-1.55-0.726-2.051c-0.484-0.501-1.142-0.751-1.975-0.751c-0.969,0.017-1.733,0.352-2.294,1.006
			c-0.561,0.654-0.841,1.49-0.841,2.51v6.754h-3.925v-13.711h3.925v2.396c0.951-1.665,2.531-2.515,4.74-2.549
			C238.089,186.414,239.307,186.89,240.217,187.842z"/>
		<path fill="#FFFFFF" d="M248.447,181.088c0.399,0.408,0.599,0.934,0.599,1.58c0,0.645-0.2,1.172-0.599,1.579
			c-0.399,0.408-0.913,0.612-1.542,0.612c-0.612,0-1.117-0.208-1.517-0.624c-0.399-0.416-0.599-0.938-0.599-1.566
			c0-0.646,0.199-1.173,0.599-1.58c0.399-0.408,0.905-0.612,1.517-0.612C247.534,180.477,248.048,180.681,248.447,181.088z
			 M244.969,186.568h3.925v13.711h-3.925V186.568z"/>
		<path fill="#FFFFFF" d="M258.756,189.779c-0.985,0-1.788,0.335-2.408,1.006c-0.62,0.671-0.93,1.559-0.93,2.663
			c0,1.104,0.306,2.001,0.917,2.689c0.612,0.688,1.393,1.032,2.345,1.032c1.427,0,2.489-0.535,3.185-1.605l2.702,1.835
			c-0.578,0.969-1.389,1.716-2.434,2.242c-1.045,0.527-2.264,0.791-3.657,0.791c-1.376,0-2.591-0.289-3.645-0.867
			c-1.053-0.578-1.873-1.393-2.459-2.446c-0.586-1.054-0.879-2.268-0.879-3.645c0-1.393,0.293-2.62,0.879-3.682
			c0.586-1.062,1.41-1.886,2.472-2.472c1.062-0.587,2.289-0.88,3.683-0.88c1.308,0,2.472,0.251,3.491,0.752
			c1.019,0.501,1.835,1.21,2.447,2.128l-2.651,1.912C261.032,190.263,260.013,189.779,258.756,189.779z"/>
		<path fill="#FFFFFF" d="M276.607,187.307c1.113,0.578,1.975,1.393,2.587,2.446c0.612,1.054,0.917,2.277,0.917,3.669
			c0,1.376-0.306,2.596-0.917,3.657c-0.612,1.062-1.474,1.886-2.587,2.472c-1.113,0.586-2.391,0.88-3.836,0.88
			c-1.461,0-2.748-0.294-3.861-0.88c-1.113-0.586-1.975-1.41-2.587-2.472c-0.612-1.062-0.917-2.281-0.917-3.657
			c0-1.392,0.306-2.615,0.917-3.669c0.612-1.053,1.474-1.868,2.587-2.446c1.113-0.578,2.4-0.867,3.861-0.867
			C274.216,186.44,275.495,186.729,276.607,187.307z M270.287,190.746c-0.637,0.698-0.956,1.606-0.956,2.727
			c0,1.121,0.319,2.031,0.956,2.727c0.637,0.697,1.465,1.044,2.484,1.044c1.002,0,1.822-0.347,2.46-1.044
			c0.637-0.697,0.955-1.606,0.955-2.727c0-1.121-0.319-2.03-0.955-2.727c-0.637-0.696-1.457-1.045-2.46-1.045
			C271.752,189.702,270.924,190.051,270.287,190.746z"/>
		<path fill="#FFFFFF" d="M298.842,190.67v2.6h-4.358v4.307h-2.498v-4.307h-4.358v-2.6h4.358v-4.332h2.498v4.332H298.842z"/>
		<path fill="#FFFFFF" d="M307.609,182.439h4.027v17.839h-4.027V182.439z"/>
		<path fill="#FFFFFF" d="M337.26,187.829c0.892,0.943,1.338,2.222,1.338,3.835v8.614h-3.899v-7.467c0-0.883-0.238-1.57-0.713-2.064
			c-0.476-0.492-1.121-0.738-1.938-0.738c-0.934,0.017-1.673,0.348-2.217,0.994c-0.544,0.646-0.815,1.478-0.815,2.498v6.779h-3.899
			v-7.467c0-0.866-0.235-1.55-0.702-2.051c-0.467-0.501-1.108-0.751-1.924-0.751c-0.934,0.017-1.678,0.348-2.229,0.994
			c-0.552,0.646-0.828,1.478-0.828,2.498v6.779h-3.925v-13.711h3.925v2.37c0.951-1.648,2.497-2.489,4.638-2.523
			c1.155,0,2.132,0.277,2.93,0.828c0.799,0.552,1.368,1.33,1.708,2.332c0.441-1.036,1.083-1.818,1.924-2.345
			c0.841-0.526,1.848-0.798,3.02-0.815C335.166,186.414,336.368,186.886,337.26,187.829z"/>
		<path fill="#FFFFFF" d="M349.938,200.278v-1.605c-0.459,0.577-1.054,1.019-1.784,1.325c-0.73,0.306-1.571,0.458-2.523,0.458
			c-1.444,0-2.591-0.395-3.44-1.185c-0.85-0.791-1.275-1.823-1.275-3.096c0-1.291,0.454-2.298,1.364-3.02
			c0.908-0.722,2.196-1.092,3.86-1.108h3.772v-0.255c0-0.73-0.242-1.295-0.726-1.694c-0.484-0.4-1.193-0.6-2.128-0.6
			c-1.275,0-2.634,0.4-4.078,1.198l-1.223-2.702c1.087-0.543,2.107-0.943,3.058-1.197c0.952-0.255,1.996-0.383,3.135-0.383
			c1.835,0,3.258,0.433,4.269,1.3c1.01,0.866,1.524,2.073,1.542,3.619l0.025,8.945H349.938z M348.842,197.067
			c0.595-0.391,0.952-0.883,1.071-1.478v-1.223h-3.084c-0.765,0-1.33,0.124-1.695,0.37c-0.365,0.246-0.547,0.641-0.547,1.185
			c0,0.527,0.191,0.948,0.573,1.262c0.382,0.315,0.904,0.471,1.568,0.471C347.542,197.653,348.247,197.458,348.842,197.067z"/>
		<path fill="#FFFFFF" d="M370.02,186.568v12.436c0,1.291-0.306,2.417-0.917,3.377c-0.612,0.959-1.47,1.698-2.574,2.217
			c-1.104,0.519-2.379,0.778-3.823,0.778c-1.121,0-2.188-0.162-3.198-0.485c-1.011-0.323-1.933-0.764-2.765-1.325l1.453-2.752
			c1.29,0.917,2.709,1.376,4.256,1.376c1.121,0,2.013-0.276,2.676-0.827c0.662-0.553,0.994-1.295,0.994-2.23v-1.555
			c-0.459,0.646-1.036,1.139-1.733,1.478c-0.697,0.339-1.495,0.51-2.396,0.51c-1.173,0-2.213-0.276-3.122-0.828
			c-0.908-0.552-1.614-1.329-2.115-2.331c-0.502-1.002-0.752-2.158-0.752-3.466c0-1.29,0.25-2.424,0.752-3.402
			c0.501-0.977,1.206-1.737,2.115-2.281c0.909-0.543,1.949-0.815,3.122-0.815c0.884,0,1.673,0.174,2.37,0.522
			s1.283,0.837,1.758,1.466v-1.86H370.02z M365.229,195.601c0.594-0.653,0.892-1.507,0.892-2.561c0-1.053-0.298-1.911-0.892-2.574
			c-0.595-0.662-1.369-0.994-2.32-0.994c-0.952,0-1.725,0.332-2.319,0.994c-0.596,0.663-0.901,1.521-0.917,2.574
			c0.016,1.054,0.318,1.908,0.904,2.561c0.586,0.654,1.364,0.982,2.331,0.982C363.86,196.583,364.634,196.255,365.229,195.601z"/>
		<path fill="#FFFFFF" d="M384.533,188.352c1.147,1.274,1.72,3.05,1.72,5.326c0,0.408-0.009,0.722-0.026,0.943h-9.836
			c0.221,0.866,0.645,1.542,1.274,2.026c0.628,0.485,1.385,0.726,2.268,0.726c0.646,0,1.266-0.123,1.86-0.369
			s1.13-0.608,1.606-1.084l2.064,2.09c-0.697,0.782-1.542,1.38-2.536,1.797c-0.994,0.416-2.102,0.624-3.325,0.624
			c-1.445,0-2.706-0.289-3.785-0.867s-1.911-1.393-2.497-2.446c-0.587-1.054-0.88-2.268-0.88-3.645c0-1.393,0.297-2.62,0.892-3.682
			c0.595-1.062,1.428-1.886,2.498-2.472c1.071-0.587,2.294-0.88,3.67-0.88C381.707,186.44,383.386,187.077,384.533,188.352z
			 M382.557,192.301c-0.035-0.9-0.323-1.622-0.867-2.166c-0.543-0.543-1.266-0.815-2.166-0.815c-0.849,0-1.559,0.268-2.128,0.803
			c-0.569,0.535-0.93,1.262-1.083,2.179H382.557z"/>
		<path fill="#FFFFFF" d="M401.148,187.842c0.909,0.951,1.364,2.226,1.364,3.822v8.614h-3.925v-7.467
			c0-0.866-0.242-1.55-0.726-2.051c-0.484-0.501-1.143-0.751-1.975-0.751c-0.968,0.017-1.733,0.352-2.293,1.006
			c-0.561,0.654-0.841,1.49-0.841,2.51v6.754h-3.925v-13.711h3.925v2.396c0.951-1.665,2.531-2.515,4.74-2.549
			C399.02,186.414,400.239,186.89,401.148,187.842z"/>
		<path fill="#FFFFFF" d="M415.93,187.307c1.112,0.578,1.974,1.393,2.586,2.446c0.613,1.054,0.918,2.277,0.918,3.669
			c0,1.376-0.306,2.596-0.918,3.657c-0.612,1.062-1.473,1.886-2.586,2.472c-1.113,0.586-2.392,0.88-3.836,0.88
			c-1.462,0-2.749-0.294-3.861-0.88c-1.113-0.586-1.975-1.41-2.587-2.472c-0.612-1.062-0.917-2.281-0.917-3.657
			c0-1.392,0.306-2.615,0.917-3.669c0.612-1.053,1.473-1.868,2.587-2.446c1.112-0.578,2.4-0.867,3.861-0.867
			C413.538,186.44,414.816,186.729,415.93,187.307z M409.609,190.746c-0.637,0.698-0.956,1.606-0.956,2.727
			c0,1.121,0.319,2.031,0.956,2.727c0.637,0.697,1.466,1.044,2.485,1.044c1.002,0,1.822-0.347,2.459-1.044
			c0.637-0.697,0.956-1.606,0.956-2.727c0-1.121-0.319-2.03-0.956-2.727c-0.637-0.696-1.457-1.045-2.459-1.045
			C411.075,189.702,410.247,190.051,409.609,190.746z"/>
		<path fill="#FFFFFF" d="M422.159,181.368h3.925v18.91h-3.925V181.368z"/>
		<path fill="#FFFFFF" d="M440.038,187.307c1.112,0.578,1.974,1.393,2.586,2.446c0.613,1.054,0.918,2.277,0.918,3.669
			c0,1.376-0.306,2.596-0.918,3.657c-0.612,1.062-1.473,1.886-2.586,2.472c-1.113,0.586-2.392,0.88-3.836,0.88
			c-1.462,0-2.749-0.294-3.861-0.88c-1.113-0.586-1.975-1.41-2.587-2.472s-0.917-2.281-0.917-3.657c0-1.392,0.306-2.615,0.917-3.669
			c0.612-1.053,1.473-1.868,2.587-2.446c1.112-0.578,2.4-0.867,3.861-0.867C437.646,186.44,438.924,186.729,440.038,187.307z
			 M433.717,190.746c-0.637,0.698-0.956,1.606-0.956,2.727c0,1.121,0.319,2.031,0.956,2.727c0.637,0.697,1.466,1.044,2.485,1.044
			c1.002,0,1.822-0.347,2.459-1.044c0.637-0.697,0.956-1.606,0.956-2.727c0-1.121-0.319-2.03-0.956-2.727
			c-0.637-0.696-1.457-1.045-2.459-1.045C435.183,189.702,434.355,190.051,433.717,190.746z"/>
		<path fill="#FFFFFF" d="M458.984,186.568v12.436c0,1.291-0.306,2.417-0.917,3.377c-0.612,0.959-1.47,1.698-2.574,2.217
			c-1.104,0.519-2.379,0.778-3.823,0.778c-1.121,0-2.188-0.162-3.198-0.485c-1.011-0.323-1.933-0.764-2.765-1.325l1.453-2.752
			c1.29,0.917,2.709,1.376,4.256,1.376c1.121,0,2.013-0.276,2.676-0.827c0.662-0.553,0.994-1.295,0.994-2.23v-1.555
			c-0.459,0.646-1.036,1.139-1.733,1.478c-0.697,0.339-1.495,0.51-2.396,0.51c-1.173,0-2.213-0.276-3.122-0.828
			c-0.908-0.552-1.614-1.329-2.115-2.331c-0.502-1.002-0.752-2.158-0.752-3.466c0-1.29,0.25-2.424,0.752-3.402
			c0.501-0.977,1.206-1.737,2.115-2.281c0.909-0.543,1.949-0.815,3.122-0.815c0.884,0,1.673,0.174,2.37,0.522
			s1.282,0.837,1.758,1.466v-1.86H458.984z M454.194,195.601c0.594-0.653,0.892-1.507,0.892-2.561c0-1.053-0.298-1.911-0.892-2.574
			c-0.595-0.662-1.369-0.994-2.32-0.994c-0.952,0-1.725,0.332-2.319,0.994c-0.596,0.663-0.901,1.521-0.917,2.574
			c0.016,1.054,0.318,1.908,0.904,2.561c0.586,0.654,1.364,0.982,2.331,0.982C452.825,196.583,453.599,196.255,454.194,195.601z"/>
		<path fill="#FFFFFF" d="M465.406,180.782l3.466,1.351l-3.466,2.803l-2.854-0.255L465.406,180.782z M462.578,186.568h3.925v13.711
			h-3.925V186.568z"/>
		<path fill="#FFFFFF" d="M478.225,200.278v-1.605c-0.459,0.577-1.054,1.019-1.784,1.325c-0.73,0.306-1.571,0.458-2.523,0.458
			c-1.444,0-2.591-0.395-3.44-1.185c-0.85-0.791-1.275-1.823-1.275-3.096c0-1.291,0.454-2.298,1.364-3.02
			c0.908-0.722,2.196-1.092,3.86-1.108h3.772v-0.255c0-0.73-0.242-1.295-0.726-1.694c-0.484-0.4-1.193-0.6-2.128-0.6
			c-1.275,0-2.634,0.4-4.078,1.198l-1.223-2.702c1.087-0.543,2.107-0.943,3.058-1.197c0.952-0.255,1.996-0.383,3.135-0.383
			c1.835,0,3.258,0.433,4.269,1.3c1.01,0.866,1.524,2.073,1.542,3.619l0.025,8.945H478.225z M477.129,197.067
			c0.595-0.391,0.952-0.883,1.071-1.478v-1.223h-3.084c-0.765,0-1.33,0.124-1.695,0.37c-0.365,0.246-0.547,0.641-0.547,1.185
			c0,0.527,0.191,0.948,0.573,1.262c0.382,0.315,0.904,0.471,1.567,0.471C475.83,197.653,476.534,197.458,477.129,197.067z"/>
		<path fill="#FFFFFF" d="M501.593,190.67v2.6h-4.358v4.307h-2.497v-4.307h-4.358v-2.6h4.358v-4.332h2.497v4.332H501.593z"/>
		<path fill="#FFFFFF" d="M510.36,182.439h4.027v14.322h7.645v3.517H510.36V182.439z"/>
		<path fill="#FFFFFF" d="M535.271,188.352c1.147,1.274,1.72,3.05,1.72,5.326c0,0.408-0.009,0.722-0.026,0.943h-9.836
			c0.221,0.866,0.645,1.542,1.274,2.026c0.628,0.485,1.385,0.726,2.268,0.726c0.646,0,1.266-0.123,1.86-0.369
			s1.13-0.608,1.606-1.084l2.064,2.09c-0.697,0.782-1.542,1.38-2.536,1.797c-0.994,0.416-2.102,0.624-3.325,0.624
			c-1.445,0-2.706-0.289-3.785-0.867c-1.079-0.578-1.911-1.393-2.497-2.446c-0.587-1.054-0.88-2.268-0.88-3.645
			c0-1.393,0.297-2.62,0.892-3.682c0.595-1.062,1.428-1.886,2.498-2.472c1.071-0.587,2.294-0.88,3.67-0.88
			C532.446,186.44,534.124,187.077,535.271,188.352z M533.296,192.301c-0.035-0.9-0.323-1.622-0.867-2.166
			c-0.543-0.543-1.266-0.815-2.166-0.815c-0.849,0-1.559,0.268-2.128,0.803c-0.569,0.535-0.93,1.262-1.083,2.179H533.296z"/>
		<path fill="#FFFFFF" d="M551.886,187.842c0.909,0.951,1.364,2.226,1.364,3.822v8.614h-3.925v-7.467
			c0-0.866-0.242-1.55-0.726-2.051c-0.484-0.501-1.143-0.751-1.975-0.751c-0.968,0.017-1.733,0.352-2.293,1.006
			c-0.561,0.654-0.841,1.49-0.841,2.51v6.754h-3.925v-13.711h3.925v2.396c0.951-1.665,2.531-2.515,4.74-2.549
			C549.759,186.414,550.978,186.89,551.886,187.842z"/>
		<path fill="#FFFFFF" d="M565.125,199.513c-0.51,0.306-1.075,0.54-1.694,0.702c-0.62,0.161-1.245,0.241-1.873,0.241
			c-1.275,0-2.311-0.365-3.109-1.095s-1.197-1.775-1.197-3.135v-6.345h-1.912v-2.702h1.912v-3.771h3.899v3.771h3.721v2.727h-3.721
			v5.657c0,1.053,0.417,1.579,1.249,1.579c0.577,0,1.214-0.169,1.911-0.51L565.125,199.513z"/>
		<path fill="#FFFFFF" d="M578.314,188.352c1.147,1.274,1.72,3.05,1.72,5.326c0,0.408-0.009,0.722-0.026,0.943h-9.836
			c0.221,0.866,0.645,1.542,1.274,2.026c0.628,0.485,1.385,0.726,2.268,0.726c0.646,0,1.266-0.123,1.86-0.369
			s1.13-0.608,1.606-1.084l2.064,2.09c-0.697,0.782-1.542,1.38-2.536,1.797c-0.994,0.416-2.102,0.624-3.325,0.624
			c-1.445,0-2.706-0.289-3.785-0.867c-1.079-0.578-1.911-1.393-2.497-2.446c-0.587-1.054-0.88-2.268-0.88-3.645
			c0-1.393,0.297-2.62,0.892-3.682c0.595-1.062,1.428-1.886,2.498-2.472c1.071-0.587,2.294-0.88,3.67-0.88
			C575.489,186.44,577.167,187.077,578.314,188.352z M576.339,192.301c-0.035-0.9-0.323-1.622-0.867-2.166
			c-0.543-0.543-1.266-0.815-2.166-0.815c-0.849,0-1.559,0.268-2.128,0.803c-0.569,0.535-0.93,1.262-1.083,2.179H576.339z"/>
		<path fill="#FFFFFF" d="M589.029,189.612c-0.73-0.229-1.384-0.343-1.961-0.343c-0.476,0-0.859,0.085-1.147,0.254
			c-0.29,0.17-0.433,0.426-0.433,0.765c0,0.374,0.195,0.662,0.586,0.866c0.391,0.204,1.028,0.433,1.912,0.689
			c0.968,0.289,1.766,0.573,2.395,0.853c0.628,0.281,1.173,0.698,1.632,1.249c0.458,0.552,0.688,1.279,0.688,2.179
			c0,1.36-0.522,2.418-1.567,3.174c-1.045,0.756-2.383,1.134-4.014,1.134c-1.121,0-2.201-0.166-3.237-0.498
			c-1.036-0.331-1.937-0.803-2.701-1.414l1.274-2.65c0.697,0.543,1.474,0.964,2.332,1.262c0.857,0.297,1.668,0.445,2.433,0.445
			c0.526,0,0.947-0.089,1.262-0.267c0.314-0.178,0.471-0.446,0.471-0.803c0-0.391-0.2-0.697-0.599-0.918
			c-0.4-0.22-1.041-0.458-1.924-0.713c-0.935-0.271-1.712-0.543-2.332-0.815c-0.62-0.271-1.151-0.684-1.592-1.236
			c-0.442-0.551-0.663-1.27-0.663-2.153c0-1.359,0.51-2.413,1.529-3.16c1.019-0.748,2.311-1.121,3.874-1.121
			c0.934,0,1.868,0.132,2.803,0.395c0.934,0.263,1.783,0.641,2.548,1.134l-1.351,2.676
			C590.498,190.17,589.759,189.842,589.029,189.612z"/>
	</g>
</g>
</svg>
