<?xml version="1.0" encoding="utf-8"?>
<!-- Generator: Adobe Illustrator 23.0.2, SVG Export Plug-In . SVG Version: 6.00 Build 0)  -->
<svg version="1.1" id="Capa_1" xmlns="http://www.w3.org/2000/svg" xmlns:xlink="http://www.w3.org/1999/xlink" x="0px" y="0px"
	 viewBox="0 0 628.5 240" style="enable-background:new 0 0 628.5 240;" xml:space="preserve">
<style type="text/css">
	.st0{fill:#FFFFFF;}
	.st1{fill-rule:evenodd;clip-rule:evenodd;fill:#FFFFFF;}
</style>
<g>
	<g>
		<g>
			<g>
				<g>
					<path class="st0" d="M574.8,117.8c-0.1-1.4-0.2-3-0.3-4.7c-0.1-1.7-0.1-3.4-0.1-5.2V88.5c0-3.3-0.3-6.4-1.2-9.3
						c-0.8-2.9-2.2-5.4-4-7.7c-1.8-2.2-4.3-3.9-7.4-5.2c-3.1-1.3-6.9-1.9-11.4-1.9l-0.4,0c-3.1,0-6,0.3-8.6,0.8
						c-2.7,0.5-5.1,1.1-7.1,1.9c-2,0.8-3.7,1.5-5,2.3l3.1,11.2c1.2-0.8,2.6-1.5,4.3-2.1c1.6-0.6,3.3-1.2,5.2-1.5
						c1.9-0.4,3.7-0.6,5.6-0.6c0.9,0,1.8,0.1,2.6,0.2c0.9,0.1,1.8,0.3,2.5,0.6c1.3,0.5,2.3,1,3,1.8c0.7,0.7,1.2,1.5,1.5,2.3
						c0.3,0.9,0.4,1.6,0.4,2.4v0.8c-2.6,0-5,0.1-7.3,0.3c-2,0.2-3.9,0.5-5.8,0.9c-3.9,0.9-7.3,2.2-10.1,3.9c-2.8,1.8-5,4-6.5,6.7
						c-1.5,2.7-2.3,5.8-2.3,9.5c0,2.2,0.4,4.4,1.2,6.4c0.8,2,1.9,3.9,3.5,5.5c1.5,1.6,3.3,2.9,5.5,3.8c2.2,0.9,4.7,1.4,7.4,1.4
						c2.5,0,4.8-0.4,7-1c0.6-0.2,1.2-0.4,1.9-0.7c2.6-1.2,4.9-2.9,6.7-5.1h0.3l1,5.6h15.2C575.1,120.4,575,119.2,574.8,117.8z
						 M558,101.1c0,0.5,0,1-0.1,1.5c-0.1,0.5-0.2,1-0.3,1.4c-0.4,1.2-1,2.3-1.8,3.2c-0.8,1-1.8,1.7-3,2.3c-0.8,0.4-1.7,0.6-2.7,0.8
						c-0.4,0.1-0.8,0.1-1.3,0.1c-1.3,0-2.4-0.2-3.4-0.7c-1-0.5-1.8-1.2-2.4-2.2c-0.6-1-0.9-2.2-0.9-3.7c0-2.2,0.8-4,2.1-5.3
						c1.4-1.3,3.3-2.2,5.6-2.8l0.2,0c2.3-0.5,4.9-0.8,7.9-0.7V101.1z"/>
					<path class="st0" d="M440.9,72.3h-0.2c-0.9-1.5-2.1-2.9-3.5-4.1c-1.4-1.2-3-2.1-4.9-2.8c-1.2-0.4-2.5-0.7-3.8-0.9
						c-0.9-0.1-1.8-0.1-2.7-0.2c-3.3,0-6.5,0.7-9.5,2.1c-3,1.4-5.6,3.3-7.9,5.9c-2.3,2.6-4.1,5.6-5.4,9.2c-1.3,3.6-2,7.6-2,12.1
						c0,4,0.6,7.7,1.7,11.1c1.1,3.3,2.7,6.2,4.8,8.6c2,2.4,4.5,4.3,7.3,5.6c2.8,1.3,5.9,2,9.3,2c1.6,0,3-0.2,4.4-0.5
						c1.4-0.3,2.8-0.8,4.1-1.4c2.5-1.3,4.6-3,6.2-5.4h0.2v3.7c0,3.4-0.6,6.2-1.9,8.4c-1.2,2.2-2.9,3.8-5,4.8c-1.1,0.6-2.3,1-3.6,1.2
						c-1.2,0.2-2.4,0.3-3.6,0.3c-2.1,0-4.2-0.2-6.2-0.6c-2-0.4-3.8-1-5.4-1.6c-1.6-0.6-3-1.3-4.2-2l-3.3,13.1c1.6,1,3.5,1.8,5.7,2.4
						c2.1,0.6,4.3,1.1,6.7,1.4c2.4,0.3,4.8,0.5,7.1,0.5c1.1,0,2.1,0,3.2-0.1c1.6-0.1,3.2-0.3,4.8-0.5c2.6-0.4,5.1-1.1,7.5-2.1
						c2.4-1,4.6-2.4,6.6-4.1c2-1.9,3.6-4.1,4.9-6.6c1.2-2.5,2.1-5.3,2.6-8.5c0.5-3.1,0.8-6.5,0.8-10V82.2c0-2.8,0-5.2,0.1-7.2
						c0-2,0.1-3.8,0.2-5.3c0.1-1.5,0.1-2.8,0.2-4h-14.7L440.9,72.3z M438.8,96.6c0,0.8,0,1.6-0.1,2.4c-0.1,0.8-0.2,1.6-0.4,2.2
						c-0.4,1.4-1,2.6-1.9,3.7c-0.8,1.1-1.9,1.9-3.1,2.5c-1.2,0.6-2.5,0.9-4,0.9c-0.3,0-0.6,0-0.8,0c-2-0.2-3.8-0.8-5.2-2
						c-1.6-1.3-2.9-3.1-3.8-5.3c-0.9-2.2-1.3-4.7-1.3-7.5c0-3.4,0.6-6.3,1.5-8.6c1-2.3,2.3-4.1,4-5.4c1.4-1.1,3-1.7,4.8-1.8
						c0.3,0,0.6,0,0.8,0c1.5,0,3,0.3,4.2,1c1.2,0.6,2.2,1.5,3.1,2.7c0.8,1.1,1.5,2.5,1.9,4c0.1,0.4,0.2,1,0.3,1.5
						c0.1,0.5,0.1,1.1,0.1,1.7L438.8,96.6L438.8,96.6z"/>
					<path class="st0" d="M512.7,70.2c-1.8-2-3.8-3.4-6.2-4.4c-2.4-1-4.9-1.4-7.7-1.4c-2.2,0-4.3,0.3-6.1,0.9
						c-1.8,0.6-3.5,1.3-4.8,2.2c-1.4,0.9-2.6,1.9-3.6,2.9c-1,1-1.7,2-2.3,2.9h-0.3l-0.8-7.7h-14.7c0.1,2.5,0.2,5.2,0.3,8.1
						c0.1,3,0.1,6.2,0.1,9.7v38h16.9V89.3c0-0.8,0.1-1.6,0.1-2.3c0.1-0.8,0.3-1.4,0.5-2c0.4-1.1,0.9-2.1,1.7-3.1
						c0.8-1,1.7-1.8,2.9-2.4c1.1-0.6,2.5-0.9,4-0.9c2,0,3.7,0.5,5,1.5c1.3,1,2.1,2.4,2.7,4.2c0.6,1.8,0.9,3.9,0.9,6.3v31h16.9V88.4
						c0-4.1-0.5-7.7-1.5-10.7C515.8,74.6,514.4,72.1,512.7,70.2z"/>
					<path class="st0" d="M362.1,59.3c-1.9-2.8-4.1-5.2-6.7-7.1c-2.4-1.9-5.1-3.4-8-4.6c-2.9-1.2-6.3-2.1-10-2.7
						c-1-0.2-1.9-0.3-3-0.4c-3-0.3-6.2-0.5-9.7-0.5c-4.3,0-8.4,0.1-12.4,0.4c-3.9,0.3-7.4,0.7-10.6,1.2v75.6
						c2.1,0.3,4.7,0.5,7.9,0.8c3.2,0.2,7,0.4,11.3,0.4c4.8,0,9.3-0.3,13.4-1c2.2-0.4,4.4-0.8,6.4-1.4c5.9-1.6,10.8-4.1,14.8-7.5
						c2.4-2.1,4.6-4.6,6.5-7.6c1.9-3,3.3-6.4,4.4-10.4c1.1-3.9,1.6-8.3,1.6-13.2c-0.1-4.5-0.5-8.6-1.6-12.3
						C365.5,65.3,364,62.1,362.1,59.3z M346.9,96.9c-2.1,4-5,7-8.8,8.9c-1.2,0.6-2.4,1.1-3.7,1.5c-2.9,0.9-6.2,1.4-9.7,1.3
						c-1.1,0-2.2,0-3.2,0c-1,0-1.9-0.1-2.7-0.3V58c0.7-0.2,1.7-0.3,3-0.5c1.3-0.1,2.8-0.2,4.7-0.2c2.9,0,5.5,0.3,7.9,1
						c1.7,0.4,3.2,1,4.7,1.8c3.5,1.8,6.2,4.6,8.1,8.2c1.9,3.6,2.8,8.1,2.8,13.4C350,87.8,349,92.9,346.9,96.9z"/>
					<rect x="376.4" y="65.6" class="st0" width="16.9" height="55.8"/>
				</g>
				<g>
					<path class="st0" d="M287.8,116.8c0-1.8-0.1-3.7-0.2-5.8c0-2.1-0.1-4.2-0.1-6.3V40.3h-16.9v30.4h-0.2c-1.2-2-3.1-3.5-5.6-4.6
						c-1.5-0.7-3.2-1.1-5.1-1.4c-1.2-0.2-2.4-0.2-3.7-0.3c-3.3,0-6.4,0.7-9.3,2c-2.9,1.3-5.5,3.3-7.8,5.8c-2.3,2.5-4,5.6-5.3,9.3
						c-1.3,3.7-1.9,7.9-1.9,12.6c0,4.3,0.6,8.3,1.8,11.8c1.2,3.5,2.9,6.5,5,9c2.1,2.5,4.6,4.4,7.4,5.8c2.8,1.3,5.8,2,9.1,2
						c1.6,0,3.2-0.2,4.8-0.5c0.7-0.2,1.3-0.3,2-0.5c2.2-0.7,4.1-1.7,5.8-3.2c1.8-1.4,3.3-3.2,4.4-5.2h0.2l0.8,8.2h15
						C288,120.2,287.9,118.6,287.8,116.8z M270.7,96.6c0,0.8,0,1.4-0.1,2.1c-0.1,0.7-0.2,1.3-0.4,1.9c-0.4,1.7-1,3.1-1.9,4.3
						c-0.9,1.3-2,2.2-3.4,2.9c-1.4,0.7-2.9,1.1-4.5,1.1c-0.2,0-0.5,0-0.7,0c-2.1-0.1-3.9-0.7-5.5-1.9c-1.7-1.3-3.1-3-4-5.3
						c-0.9-2.3-1.4-5-1.5-8.2c0-2.2,0.3-4.3,0.8-6.2c0.5-1.9,1.2-3.6,2.2-5c1-1.5,2.2-2.6,3.6-3.4c1.3-0.7,2.7-1.1,4.3-1.2
						c0.2,0,0.5,0,0.8,0c1.8,0,3.3,0.4,4.7,1.2c1.4,0.7,2.5,1.8,3.4,3.1c0.9,1.3,1.5,2.7,1.9,4.3c0.1,0.5,0.1,1,0.1,1.5
						c0.1,0.6,0.1,1.1,0.1,1.5L270.7,96.6L270.7,96.6z"/>
					<path class="st0" d="M134.2,113.1c-0.1-1.7-0.1-3.4-0.1-5.2V88.5c0-3.3-0.4-6.4-1.2-9.3c-0.8-2.9-2.1-5.4-4-7.7
						c-1.8-2.2-4.3-3.9-7.4-5.2c-3.1-1.3-6.9-1.9-11.4-1.9l-0.5,0c-3.1,0-6,0.3-8.6,0.8c-2.7,0.5-5.1,1.1-7.1,1.9
						c-2,0.8-3.7,1.5-5,2.3l3.1,11.2c1.2-0.8,2.6-1.5,4.2-2.1c1.6-0.6,3.4-1.2,5.2-1.5c1.8-0.4,3.7-0.6,5.6-0.6
						c0.9,0,1.8,0.1,2.5,0.2c1,0.1,1.8,0.3,2.5,0.6c1.3,0.5,2.3,1,3,1.8c0.7,0.7,1.2,1.5,1.4,2.3c0.3,0.9,0.4,1.6,0.4,2.4v0.8
						c-2.6,0-5,0.1-7.4,0.3c-2,0.2-3.9,0.5-5.8,0.9c-3.9,0.9-7.2,2.2-10.1,3.9c-2.8,1.8-5,4-6.5,6.7c-1.5,2.7-2.3,5.8-2.3,9.5
						c0,2.2,0.4,4.4,1.2,6.4c0.8,2,1.9,3.9,3.4,5.5c1.5,1.6,3.4,2.9,5.5,3.8c2.2,0.9,4.7,1.4,7.4,1.4c2.5,0,4.8-0.4,7-1
						c0.7-0.2,1.3-0.4,1.9-0.7c2.6-1.2,4.9-2.9,6.7-5.1h0.3l1,5.6h15.2c-0.2-1-0.3-2.3-0.4-3.7C134.3,116.3,134.3,114.8,134.2,113.1
						z M117.6,101.1c0,0.5,0,1-0.1,1.5c-0.1,0.5-0.2,1-0.3,1.4c-0.4,1.2-1,2.3-1.8,3.2c-0.8,1-1.9,1.7-3,2.3
						c-0.9,0.4-1.7,0.6-2.7,0.8c-0.4,0.1-0.8,0.1-1.2,0.1c-1.3,0-2.4-0.2-3.4-0.7c-1-0.5-1.8-1.2-2.3-2.2c-0.6-1-0.9-2.2-0.9-3.7
						c0.1-2.2,0.8-4,2.1-5.3c1.4-1.3,3.3-2.2,5.7-2.8l0.1,0c2.3-0.5,5-0.8,7.9-0.7L117.6,101.1L117.6,101.1z"/>
					<rect x="144.8" y="40.3" class="st0" width="16.9" height="81.2"/>
					<path class="st0" d="M224,103.5V65.6h-17.1v33.2c0,0.7,0,1.4-0.1,2c-0.1,0.6-0.2,1.2-0.5,1.7c-0.4,0.9-0.9,1.9-1.7,2.8
						c-0.7,0.9-1.6,1.7-2.8,2.3c-1.1,0.6-2.5,0.9-4,0.9c-2,0-3.6-0.5-4.8-1.6c-1.2-1-2.1-2.5-2.7-4.5c-0.6-1.9-0.9-4.3-0.9-7v-30
						h-17v32.8c0,4.3,0.5,8,1.5,11.1c0.9,3.1,2.3,5.6,4,7.5c1.7,1.9,3.7,3.4,6.1,4.3c2.3,0.9,4.9,1.4,7.6,1.4c2.4,0,4.6-0.3,6.5-1
						c1.9-0.6,3.5-1.4,4.9-2.3c1.4-0.9,2.5-1.9,3.5-3c0.9-1,1.7-2,2.2-2.9h0.3l0.8,7.9h14.7c-0.1-2.3-0.3-5-0.3-8
						C224,110.5,224,107.2,224,103.5z"/>
					<path class="st0" d="M71.1,81.5c-2.9-2.2-6.5-4.1-11-5.8c-3.2-1.2-5.9-2.4-7.9-3.4c-2-1-3.6-2.1-4.6-3.3
						c-1-1.1-1.4-2.5-1.4-4.2c0-1.4,0.4-2.6,1.2-3.7c0.8-1.1,2-2,3.6-2.7c1.6-0.7,3.6-1,6.1-1c2.5,0,4.7,0.2,6.7,0.6
						c2,0.4,3.7,0.9,5.3,1.4c1.5,0.6,2.8,1.1,3.8,1.6l3.8-13.9c-2.2-1.1-4.9-2.1-8.1-2.8c-3.2-0.8-6.9-1.1-11.1-1.2
						c-4.4,0-8.4,0.6-11.9,1.8c-3.5,1.2-6.5,2.8-8.9,4.9c-2.4,2.1-4.3,4.6-5.6,7.4c-1.3,2.8-1.9,5.9-2,9.2c0,3.7,0.9,7,2.6,9.9
						c1.7,2.8,4,5.3,7.1,7.5c3.1,2.1,6.7,3.9,10.9,5.4c3,1.1,5.4,2.1,7.2,3.2c1.9,1.1,3.2,2.2,4.1,3.4c0.9,1.2,1.3,2.6,1.3,4.2
						c0,1.7-0.4,3.2-1.4,4.4c-0.9,1.2-2.2,2.2-4,2.9c-1.8,0.7-4,1-6.6,1c-2.4,0-4.8-0.2-7.1-0.7c-2.3-0.4-4.5-1.1-6.4-1.8
						c-2-0.7-3.8-1.5-5.3-2.3l-3.5,14.4c1.4,0.8,3.3,1.6,5.5,2.3c2.2,0.7,4.7,1.3,7.4,1.8c2.7,0.5,5.5,0.7,8.4,0.7
						c5.1,0,9.6-0.7,13.4-1.9c3.8-1.3,7-3,9.5-5.2c2.5-2.2,4.4-4.7,5.6-7.6c1.2-2.9,1.8-5.9,1.8-9.2c0-3.6-0.7-6.8-2.1-9.6
						C76.1,86.3,74,83.7,71.1,81.5z"/>
				</g>
				<g>
					<path class="st1" d="M392.6,40.5c3.8,4.5,3.4,11.4-1,15.3c-4.4,4-11.1,3.5-14.9-1c-3.9-4.5-3.4-11.3,1-15.3
						C382.1,35.5,388.7,36,392.6,40.5z"/>
				</g>
			</g>
			<g>
				<path class="st0" d="M42.9,153.2c0,0.1,0,0.2,0,0.2c0.4,0.5,0.5,0.9,0.5,1.1c0,0.4-0.3,0.8-1.1,1.1c-0.3,0-0.9,0-1.6,0
					c-1.6,0-3.2-0.1-4.7-0.2c-4.7-0.5-7.3-1.6-7.8-3.2c0-5.4,0.2-10,0.7-14c0.2-2.2,0.6-4.3,1-6.3l1.9-0.5c0.1,0.8,0.1,1.6,0.1,2.4
					c0,1.2-0.1,2.6-0.3,4.1l-0.6,4.5c-0.2,1.7-0.3,3.2-0.3,4.4c0,1.5,0.1,3,0.4,4.3c1,0.6,2.5,1.1,4.5,1.4c1.5,0.2,3.1,0.4,4.8,0.5
					C41.3,153.1,42.1,153.2,42.9,153.2z"/>
				<path class="st0" d="M49.4,155.7h-0.6c-1.4,0-2.4-0.7-3-1.9c-0.3-0.6-0.5-1.4-0.7-2.6c0-0.2,0-0.4,0-0.5c0-1.2,1-2.6,3-4.1
					c1-0.8,2.2-1.2,3.7-1.2c0.5,0,1.2,0.1,2.1,0.2c0.9,0.1,1.6,0.2,2.1,0.2c0-1.7-0.7-2.9-2.1-3.7c-0.4-0.2-0.8-0.3-1.2-0.3
					c-0.6,0-1.3,0.2-2.1,0.8l-2.2,1.5c-0.3,0-0.6-0.2-0.8-0.5c-0.2-0.3-0.3-0.6-0.3-0.9c0-0.2,0.1-0.4,0.2-0.6
					c2.1-1.8,3.9-2.7,5.6-2.7c2.1,0,3.6,1,4.4,2.9c0.4,1,0.8,2.6,1.1,4.9c0.3,2.4,0.6,4.1,0.9,5.1C57.2,153.8,53.9,155,49.4,155.7z
					 M55.3,147.9c-1-0.3-2-0.5-2.7-0.5c-1.9,0-3.4,0.8-4.5,2.4c-0.4,0.5-0.5,1-0.5,1.6c0,0.9,0.4,1.4,1.2,1.7
					c0.4,0.1,0.8,0.2,1.2,0.1c0.7,0,2.2-0.3,4.6-0.7c0.8-0.3,1.4-0.6,1.8-1l-0.2-1.9C56,148.7,55.7,148.2,55.3,147.9z"/>
				<path class="st0" d="M86.9,152.7c-0.7,1.6-2.4,2.5-5,2.8c-0.8,0.1-1.9,0.2-3.2,0.2h-0.9h-0.5h-2.8c-0.7-0.6-1.1-1.3-1.1-2.1
					c0-0.1,0-0.2,0.1-0.5c0-0.1,0.2-0.1,0.3-0.1l1,0.2c0.2,0,1,0.1,2.5,0.2c0.8,0,1.5,0,1.8,0c3.2,0,4.9-0.8,5.1-2.3
					c0.1-0.7-1.7-1.7-5.2-2.9c-0.4-0.2-1.7-0.6-3.8-1.3c-0.4-0.1-0.7-0.4-1-0.8c-0.4-0.5-0.7-1-0.7-1.6c0-0.1,0-0.3,0.1-0.6
					c0.4-1.3,2.5-2.6,6.2-3.7c1.5-0.5,2.8-0.8,4-0.9l0.2,1.7c-0.3,0.3-1.1,0.7-2.3,1c-1.4,0.4-2.4,0.7-2.8,1
					c-0.9,0.5-1.4,1.1-1.4,1.8c0,0.6,1,1.1,3.1,1.5c1.3,0.3,2.2,0.5,2.6,0.7c0.9,0.3,1.7,0.8,2.5,1.7c0.9,0.9,1.4,1.9,1.4,2.9
					C87.2,151.9,87.1,152.3,86.9,152.7z"/>
				<path class="st0" d="M93.2,155.7h-0.6c-1.4,0-2.5-0.7-3-1.9c-0.2-0.6-0.5-1.4-0.7-2.6c0-0.2,0-0.4,0-0.5c0-1.2,1-2.6,3-4.1
					c1-0.8,2.2-1.2,3.7-1.2c0.5,0,1.2,0.1,2.1,0.2c1,0.1,1.7,0.2,2.1,0.2c0-1.7-0.7-2.9-2.1-3.7c-0.4-0.2-0.8-0.3-1.2-0.3
					c-0.6,0-1.3,0.2-2.1,0.8l-2.2,1.5c-0.3,0-0.6-0.2-0.8-0.5c-0.2-0.3-0.3-0.6-0.3-0.9c0-0.2,0.1-0.4,0.2-0.6
					c2.1-1.8,3.9-2.7,5.5-2.7c2.1,0,3.6,1,4.4,2.9c0.4,1,0.8,2.6,1.1,4.9c0.3,2.4,0.6,4.1,0.9,5.1C101,153.8,97.7,155,93.2,155.7z
					 M99,147.9c-1-0.3-2-0.5-2.7-0.5c-1.9,0-3.4,0.8-4.5,2.4c-0.4,0.5-0.6,1-0.6,1.6c0,0.9,0.4,1.4,1.2,1.7c0.4,0.1,0.8,0.2,1.1,0.1
					c0.7,0,2.3-0.3,4.6-0.7c0.8-0.3,1.4-0.6,1.8-1l-0.2-1.9C99.8,148.7,99.5,148.2,99,147.9z"/>
				<path class="st0" d="M108.4,140l-0.3,5.5c-0.1,1.8-0.2,3.4-0.2,4.6c0,2,0.1,3.7,0.3,5.2c-0.6,0.2-1,0.4-1.2,0.4
					c-0.4,0.2-0.7,0.4-1,0.7c-0.3-1.7-0.5-4-0.5-6.8c0-3.5,0.3-8.6,0.9-15.3c0.2,0,0.4,0,0.5,0c0.6,0.1,1.1,0.3,1.6,0.8
					C108.5,136.8,108.4,138.3,108.4,140z"/>
				<path class="st0" d="M125.8,155.3c-0.5-0.5-0.9-1-1.2-1.3c-0.5-0.6-0.9-1.3-1.1-2.1c-0.3,0.2-1.1,0.7-2.2,1.4
					c-0.9,0.6-1.7,1.1-2.4,1.3c-0.9,0.4-1.9,0.6-2.8,0.6h-0.5c-0.1,0-0.2,0-0.3,0c-2.6,0-4-3.9-4-11.9V142c0-1,0.8-1.5,2.3-1.5
					c0.3,0.8,0.4,2.1,0.5,3.9c0.1,2.4,0.1,3.8,0.2,4.3c0.2,1.6,0.8,2.8,1.6,3.5c0.2,0.1,0.4,0.2,0.7,0.2c1.4,0,3-0.9,4.7-2.6
					c1.4-1.4,2.2-3.5,2.2-6.3c0-0.9,0-1.5,0-1.7c0-0.3-0.1-0.6-0.1-1.1c0-0.2,0.2-0.5,0.5-0.6c0.3-0.2,0.6-0.3,0.9-0.3
					c0.3,0,0.5,0.1,0.7,0.2c0.4,0.3,0.7,1.1,0.7,2.4c0,0.6-0.1,1.5-0.2,2.5c-0.3,2.3-0.4,3.6-0.4,3.8c0,0.2,0,0.3,0,0.3
					c0.1,1.1,0.2,2,0.4,2.4c0.2,0.4,0.5,0.9,1.1,1.4c0.6,0.6,1.1,1.1,1.4,1.5C128,154.9,127.1,155.3,125.8,155.3z"/>
				<path class="st0" d="M141.6,155.6c-0.9,0.2-1.6,0.5-2.1,0.9v-2c-0.9,0.4-1.8,0.6-2.5,0.7c-2,0.3-3.2,0.4-3.3,0.4
					c-1.6,0-2.9-0.7-3.8-2.2c-0.8-1.3-1.2-2.7-1.2-4.5c0-3,1.1-5.2,3.3-6.7c1.7-1.1,3.8-1.7,6.5-1.7c-0.3-2.2-0.5-4.2-0.5-6.2
					c0.2-0.2,0.4-0.3,0.8-0.3c0.6,0,1.2,0.2,1.6,0.8c0,0.2,0.3,3.1,0.9,8.6c0.4,3.5,0.5,6.4,0.5,8.7
					C141.7,153.2,141.7,154.4,141.6,155.6z M139.2,145.9c0-0.9-0.2-1.7-0.5-2.3c-0.6-0.1-1.1-0.1-1.6-0.1c-1.5,0-3.1,0.5-4.7,1.5
					c-0.5,0.3-0.9,0.9-1.2,1.9c-0.2,0.8-0.3,1.6-0.3,2.4c0,1.2,0.5,2.2,1.4,2.9c0.6,0.5,1.2,0.7,1.7,0.7c2.2,0,3.9-0.7,5.2-2
					C139.3,149.2,139.2,147.6,139.2,145.9z"/>
				<path class="st0" d="M173.7,153.7c0,0.1-0.7,0.4-2.2,0.8c-2.2,0.6-4.8,0.8-7.9,0.8H162c-1.9,0-3.6-0.9-5.2-2.7
					c-0.7-1-1.1-2.2-1.1-3.7c0-3.9,1.7-6.6,5.1-8.2c1.8-0.8,3.6-1.2,5.4-1.2c1.2,0,2.3,0.5,3.3,1.6c0.7,0.7,1.3,1.6,1.6,2.6
					c0,0.1,0,0.2,0.1,0.3c0,0.1,0,0.2,0.1,0.3c-0.1,0-0.1,0.1-0.2,0.2c-4,2.3-8.3,3.9-12.9,4.8c-0.1,0-0.1,0.1-0.1,0.2
					c0,0.4,0.2,0.9,0.5,1.5c0.3,0.6,0.7,1,1,1.1c1.3,0.6,2.7,0.8,4.2,0.8c0.9,0,1.9-0.1,3-0.3l3.4-0.7c1.3-0.3,2.3-0.4,2.9-0.4
					c0.2,0,0.3,0.1,0.4,0.2c0,0,0,0.1,0,0.4L173.7,153.7z M167.5,143.5c-0.2-1.2-1-1.8-2.4-1.8c-0.4,0-0.8,0.1-1.4,0.2
					c-1.8,0.4-3.3,1.4-4.5,2.8c-0.5,0.6-0.8,1.1-0.8,1.6c0,0.3,0.1,0.5,0.3,0.6c0.9-0.2,1.9-0.5,3-1c0.5-0.2,1.6-0.7,3.2-1.4
					c0.3-0.1,1-0.4,1.9-0.8C166.8,143.8,167.1,143.7,167.5,143.5z"/>
				<path class="st0" d="M188.1,152.7c-0.7,1.6-2.4,2.5-5,2.8c-0.8,0.1-1.9,0.2-3.2,0.2h-0.9h-0.5h-2.8c-0.7-0.6-1.1-1.3-1.1-2.1
					c0-0.1,0-0.2,0.1-0.5c0-0.1,0.1-0.1,0.2-0.1l1.1,0.2c0.1,0,1,0.1,2.5,0.2c0.9,0,1.5,0,1.8,0c3.2,0,4.9-0.8,5.1-2.3
					c0.1-0.7-1.6-1.7-5.2-2.9c-0.4-0.2-1.7-0.6-3.8-1.3c-0.4-0.1-0.7-0.4-1-0.8c-0.4-0.5-0.6-1-0.6-1.6c0-0.1,0-0.3,0.1-0.6
					c0.4-1.3,2.5-2.6,6.3-3.7c1.5-0.5,2.8-0.8,4-0.9l0.2,1.7c-0.3,0.3-1.1,0.7-2.4,1c-1.4,0.4-2.4,0.7-2.8,1
					c-0.9,0.5-1.4,1.1-1.4,1.8c0,0.6,1,1.1,3.1,1.5c1.3,0.3,2.2,0.5,2.6,0.7c0.9,0.3,1.7,0.8,2.5,1.7c0.9,0.9,1.3,1.9,1.3,2.9
					C188.4,151.9,188.3,152.3,188.1,152.7z"/>
				<path class="st0" d="M214,147.2c-0.1,0.8-0.3,1.4-0.6,1.6c-1.4,1.5-3.3,2.4-5.7,2.6c-0.7,0.1-1.4,0-2.2-0.1
					c0,0.4,0.3,2.9,0.8,7.3c-0.3,0.3-0.7,0.5-1.2,0.5c-0.2,0-0.5,0-1.2,0c-0.6-2.9-1.1-6.9-1.5-11.8c-0.2-3.1-0.2-5.6-0.1-7.5
					c1.8-0.5,3.4-0.7,4.8-0.7c2.7,0,4.8,0.8,6.1,2.4c0.5,0.6,0.7,1.5,0.8,2.8C214.2,145.3,214.1,146.2,214,147.2z M210.8,142.7
					c-1.6-0.9-3-1.3-4.2-1.2c-0.4,0-1,0.1-1.8,0.3c0,0.7,0,1.4,0.1,2.2c0.1,0.7,0.2,2.2,0.4,4.6c1.3,0.1,2.1,0.1,2.6,0.1
					c1.2-0.1,2.3-0.6,3.2-1.5c0.3-0.3,0.5-1.2,0.4-2.6C211.3,143.5,211.1,142.9,210.8,142.7z"/>
				<path class="st0" d="M220.7,155.7h-0.6c-1.4,0-2.4-0.7-3-1.9c-0.3-0.6-0.5-1.4-0.7-2.6c0-0.2-0.1-0.4-0.1-0.5c0-1.2,1-2.6,3-4.1
					c1-0.8,2.2-1.2,3.7-1.2c0.5,0,1.2,0.1,2.1,0.2c0.9,0.1,1.6,0.2,2.1,0.2c0-1.7-0.7-2.9-2.1-3.7c-0.4-0.2-0.8-0.3-1.2-0.3
					c-0.6,0-1.3,0.2-2.1,0.8l-2.2,1.5c-0.3,0-0.6-0.2-0.8-0.5c-0.2-0.3-0.3-0.6-0.3-0.9c0-0.2,0.1-0.4,0.2-0.6
					c2.1-1.8,3.9-2.7,5.6-2.7c2.1,0,3.5,1,4.4,2.9c0.4,1,0.8,2.6,1,4.9c0.3,2.4,0.6,4.1,1,5.1C228.5,153.8,225.3,155,220.7,155.7z
					 M226.6,147.9c-1-0.3-1.9-0.5-2.8-0.5c-1.8,0-3.3,0.8-4.5,2.4c-0.3,0.5-0.5,1-0.5,1.6c0,0.9,0.4,1.4,1.2,1.7
					c0.4,0.1,0.8,0.2,1.2,0.1c0.7,0,2.3-0.3,4.6-0.7c0.8-0.3,1.4-0.6,1.8-1l-0.2-1.9C227.3,148.7,227,148.2,226.6,147.9z"/>
				<path class="st0" d="M248.2,142.5c-0.6-0.6-1.5-1-2.4-1.1c-1.4-0.2-2.5-0.1-3.5,0.3c-0.9,0.3-1.9,1-3,2
					c-1.6,1.4-2.6,2.7-3.3,4.1c-0.1,0.9-0.1,1.9,0,3.1c0,0.6,0.2,1.8,0.4,3.7c0.1,1,0.2,1.7,0.3,2.2l-2,0.1
					c-0.1-1.1-0.2-2.4-0.5-3.9l-0.7-4.8c-0.4-2.8-0.6-5.1-0.6-6.9l0.4,0l0.2,0c0.4-0.3,0.7-0.4,0.9-0.4c0.2,0,0.4,0,0.5,0.2l0.2,3.2
					c2.3-3.5,5.1-5.4,8.6-5.6c0.6,0,1.5,0,2.6,0.1c1.3,0.1,2.1,0.3,2.4,0.6c0.1,0.5,0.2,1.1,0.2,1.6
					C248.9,141.9,248.7,142.5,248.2,142.5z"/>
				<path class="st0" d="M253.6,155.7H253c-1.4,0-2.5-0.7-3-1.9c-0.2-0.6-0.5-1.4-0.7-2.6c0-0.2,0-0.4,0-0.5c0-1.2,1-2.6,3-4.1
					c1-0.8,2.2-1.2,3.7-1.2c0.5,0,1.2,0.1,2.1,0.2c1,0.1,1.7,0.2,2.1,0.2c0-1.7-0.7-2.9-2.1-3.7c-0.4-0.2-0.8-0.3-1.2-0.3
					c-0.6,0-1.3,0.2-2.1,0.8l-2.2,1.5c-0.3,0-0.6-0.2-0.8-0.5c-0.2-0.3-0.3-0.6-0.3-0.9c0-0.2,0.1-0.4,0.2-0.6
					c2.1-1.8,3.9-2.7,5.5-2.7c2.1,0,3.5,1,4.4,2.9c0.4,1,0.8,2.6,1,4.9c0.3,2.4,0.6,4.1,1,5.1C261.4,153.8,258.1,155,253.6,155.7z
					 M259.4,147.9c-1-0.3-2-0.5-2.7-0.5c-1.9,0-3.4,0.8-4.5,2.4c-0.4,0.5-0.5,1-0.5,1.6c0,0.9,0.4,1.4,1.2,1.7
					c0.4,0.1,0.8,0.2,1.1,0.1c0.7,0,2.3-0.3,4.7-0.7c0.8-0.3,1.4-0.6,1.8-1l-0.2-1.9C260.1,148.7,259.8,148.2,259.4,147.9z"/>
				<path class="st0" d="M292.8,139.9c0.2,0.1,0.3,0.4,0.3,0.9c0,1-0.3,1.5-0.9,1.5l-6.2,1.1c0,0.4,0,0.9-0.1,1.6
					c-0.1,1.5-0.1,2.4-0.1,2.8c0,2.5,0.6,4.3,1.9,5.5c0.2,0.2,0.5,0.4,0.9,0.4c0.2,0,0.8-0.2,1.9-0.5c0.5-0.2,1-0.3,1.3-0.3
					c0.2,0,0.3,0,0.4,0c0.3,0.8,0.4,1.3,0.4,1.6c-0.9,1.1-2.5,1.6-4.8,1.6c-0.6,0-1.2-0.3-1.9-0.8c-1.4-1.2-2.2-3.7-2.5-7.4
					c-0.1-1.1-0.1-2.5-0.1-4c-1.5,0.2-2.8,0.4-3.7,0.6c-1.2,0.3-2.3,0.7-3.5,1.3c-0.1,0-0.2-0.4-0.5-1.2l-0.4-1.2
					c0.5-0.5,1.3-0.9,2.4-1.1c0.6-0.1,1.6-0.3,3-0.5c1.3-0.2,2.3-0.4,3-0.6c0.3-1,0.5-1.9,0.7-2.7c0.2-1.1,0.4-2.1,0.6-3
					c0.2-0.4,0.6-0.5,1.2-0.5c0.4,0,0.7,0.1,1,0.2c0,0.4-0.2,1.4-0.7,3c-0.2,0.8-0.3,1.5-0.3,2c0,0.2,0,0.5,0.1,0.7
					c0.7,0,2.3-0.2,4.7-0.6C291.7,140,292.3,139.9,292.8,139.9z"/>
				<path class="st0" d="M314.3,150.8c-0.7,3.3-3.1,4.9-7.1,4.9c-2.6,0-4.6-0.2-6.1-0.7c-1.9-0.6-3.3-1.6-4.3-3.2
					c-1-1.5-1.5-3.3-1.5-5.3c0-1.5,0.4-2.8,1.2-3.9c1.9-2.7,4.3-4.1,7.1-4.1c1.7,0,3.7,0.5,6,1.5c1.6,0.7,2.8,1.8,3.7,3.4
					c0.8,1.5,1.3,3.1,1.3,5C314.5,149.2,314.4,150,314.3,150.8z M312,150.1c0.2-0.5,0.4-1,0.4-1.6c0-1.1-0.4-2.3-1.2-3.5
					c-0.7-1-1.5-1.8-2.4-2.4c-1.8-1.1-3.6-1.7-5.3-1.7c-2.4,0-3.9,1-4.6,3c-0.6,1.6-0.9,2.9-0.9,3.7c0,0.6,0.1,1.3,0.4,1.9
					c0.5,1.4,1.7,2.3,3.5,2.7c0.1,0,0.6,0.1,1.3,0.2l0.5,0.1c2,0.3,3.2,0.4,3.5,0.4C309.4,152.8,311,151.9,312,150.1z"/>
				<path class="st0" d="M329.4,155.6c-0.9,0.2-1.6,0.5-2.1,0.9v-2c-0.9,0.4-1.8,0.6-2.5,0.7c-2,0.3-3.2,0.4-3.3,0.4
					c-1.6,0-2.9-0.7-3.8-2.2c-0.8-1.3-1.2-2.7-1.2-4.5c0-3,1.1-5.2,3.3-6.7c1.7-1.1,3.8-1.7,6.4-1.7c-0.3-2.2-0.5-4.2-0.5-6.2
					c0.1-0.2,0.4-0.3,0.8-0.3c0.7,0,1.2,0.2,1.6,0.8c0,0.2,0.3,3.1,0.8,8.6c0.3,3.5,0.5,6.4,0.5,8.7
					C329.5,153.2,329.4,154.4,329.4,155.6z M326.9,145.9c0-0.9-0.2-1.7-0.4-2.3c-0.6-0.1-1.1-0.1-1.6-0.1c-1.5,0-3,0.5-4.7,1.5
					c-0.5,0.3-0.9,0.9-1.2,1.9c-0.2,0.8-0.3,1.6-0.3,2.4c0,1.2,0.5,2.2,1.4,2.9c0.6,0.5,1.2,0.7,1.7,0.7c2.1,0,3.9-0.7,5.3-2
					C327,149.2,327,147.6,326.9,145.9z"/>
				<path class="st0" d="M351.3,150.8c-0.7,3.3-3.1,4.9-7.1,4.9c-2.6,0-4.6-0.2-6.1-0.7c-1.9-0.6-3.3-1.6-4.3-3.2
					c-0.9-1.5-1.5-3.3-1.5-5.3c0-1.5,0.4-2.8,1.2-3.9c1.9-2.7,4.3-4.1,7.2-4.1c1.7,0,3.7,0.5,6,1.5c1.6,0.7,2.8,1.8,3.7,3.4
					c0.8,1.5,1.2,3.1,1.2,5C351.6,149.2,351.5,150,351.3,150.8z M349.1,150.1c0.3-0.5,0.4-1,0.4-1.6c0-1.1-0.4-2.3-1.2-3.5
					c-0.7-1-1.5-1.8-2.4-2.4c-1.8-1.1-3.6-1.7-5.4-1.7c-2.3,0-3.9,1-4.6,3c-0.6,1.6-0.9,2.9-0.9,3.7c0,0.6,0.1,1.3,0.3,1.9
					c0.5,1.4,1.7,2.3,3.6,2.7c0.1,0,0.6,0.1,1.3,0.2l0.5,0.1c2,0.3,3.2,0.4,3.5,0.4C346.5,152.8,348.1,151.9,349.1,150.1z"/>
				<path class="st0" d="M367.2,152.7c-0.8,1.6-2.4,2.5-5,2.8c-0.9,0.1-1.9,0.2-3.2,0.2h-0.9h-0.5h-2.8c-0.7-0.6-1.1-1.3-1.1-2.1
					c0-0.1,0-0.2,0-0.5c0.1-0.1,0.1-0.1,0.3-0.1l1,0.2c0.1,0,1,0.1,2.5,0.2c0.8,0,1.5,0,1.8,0c3.2,0,4.9-0.8,5.1-2.3
					c0.1-0.7-1.7-1.7-5.1-2.9c-0.4-0.2-1.7-0.6-3.8-1.3c-0.4-0.1-0.7-0.4-1-0.8c-0.4-0.5-0.7-1-0.7-1.6c0-0.1,0-0.3,0.1-0.6
					c0.5-1.3,2.5-2.6,6.3-3.7c1.5-0.5,2.8-0.8,4-0.9l0.2,1.7c-0.4,0.3-1.1,0.7-2.4,1c-1.4,0.4-2.4,0.7-2.8,1
					c-0.9,0.5-1.4,1.1-1.4,1.8c0,0.6,1,1.1,3.1,1.5c1.3,0.3,2.2,0.5,2.6,0.7c0.9,0.3,1.7,0.8,2.5,1.7c0.9,0.9,1.4,1.9,1.4,2.9
					C367.4,151.9,367.4,152.3,367.2,152.7z"/>
			</g>
			<g>
				<path class="st0" d="M596,101.1c-5.5,0-9.9,4.6-9.9,10.2c0,5.6,4.5,10.2,9.9,10.2c5.5,0,9.9-4.6,9.9-10.2
					C605.9,105.6,601.4,101.1,596,101.1z M596,120.2c-4.8,0-8.7-4-8.7-8.9c0-4.9,3.9-8.9,8.7-8.9c4.8,0,8.7,4,8.7,8.9
					C604.6,116.2,600.7,120.2,596,120.2z"/>
				<g>
					<path class="st0" d="M591.5,117.2v-11.9h5.1c1,0,1.8,0.1,2.4,0.3c0.5,0.2,1,0.6,1.3,1.1c0.3,0.5,0.5,1.1,0.5,1.8
						c0,0.8-0.3,1.6-0.8,2.1c-0.5,0.6-1.4,0.9-2.5,1.1c0.4,0.2,0.7,0.4,0.9,0.6c0.4,0.4,0.9,1,1.3,1.6l2,3.2h-1.9l-1.5-2.5
						c-0.4-0.7-0.8-1.3-1.1-1.6c-0.3-0.4-0.6-0.6-0.8-0.8c-0.2-0.1-0.5-0.3-0.7-0.3c-0.2,0-0.5-0.1-0.8-0.1H593v5.3L591.5,117.2
						L591.5,117.2z M593,110.6h3.3c0.7,0,1.2-0.1,1.6-0.2c0.4-0.2,0.7-0.4,0.9-0.7c0.2-0.3,0.3-0.7,0.3-1.1c0-0.6-0.2-1-0.6-1.4
						c-0.4-0.4-1-0.5-1.9-0.5H593V110.6z"/>
				</g>
			</g>
		</g>
	</g>
	<rect x="28.1" y="165.7" class="st0" width="577.8" height="52.4"/>
	<g>
		<path d="M42.5,182.4h4v14.3h7.6v3.5H42.5V182.4z"/>
		<path d="M64.4,200.3v-1.6c-0.5,0.6-1.1,1-1.8,1.3s-1.6,0.5-2.5,0.5c-1.4,0-2.6-0.4-3.4-1.2c-0.8-0.8-1.3-1.8-1.3-3.1
			c0-1.3,0.5-2.3,1.4-3c0.9-0.7,2.2-1.1,3.9-1.1h3.8v-0.3c0-0.7-0.2-1.3-0.7-1.7c-0.5-0.4-1.2-0.6-2.1-0.6c-1.3,0-2.6,0.4-4.1,1.2
			l-1.2-2.7c1.1-0.5,2.1-0.9,3.1-1.2c1-0.3,2-0.4,3.1-0.4c1.8,0,3.3,0.4,4.3,1.3c1,0.9,1.5,2.1,1.5,3.6l0,8.9L64.4,200.3L64.4,200.3
			z M63.3,197.1c0.6-0.4,1-0.9,1.1-1.5v-1.2h-3.1c-0.8,0-1.3,0.1-1.7,0.4c-0.4,0.2-0.5,0.6-0.5,1.2c0,0.5,0.2,0.9,0.6,1.3
			c0.4,0.3,0.9,0.5,1.6,0.5C62,197.7,62.8,197.5,63.3,197.1z"/>
		<path d="M83.4,187.3c1,0.6,1.7,1.4,2.3,2.5c0.5,1.1,0.8,2.3,0.8,3.7c0,1.4-0.3,2.6-0.8,3.6c-0.5,1-1.3,1.9-2.2,2.4
			c-1,0.6-2.1,0.9-3.4,0.9c-1,0-1.8-0.2-2.5-0.5c-0.7-0.4-1.4-0.9-1.9-1.6v2h-3.9v-18.9h3.9v7.2c0.5-0.7,1.1-1.2,1.8-1.6
			s1.6-0.5,2.5-0.5C81.3,186.4,82.5,186.7,83.4,187.3z M81.6,196.1c0.6-0.7,0.9-1.6,0.9-2.7c0-1.1-0.3-2-0.9-2.7s-1.4-1.1-2.4-1.1
			c-1,0-1.8,0.4-2.5,1.1c-0.6,0.7-1,1.6-1,2.7c0,1.1,0.3,2.1,1,2.8c0.6,0.7,1.5,1,2.5,1C80.1,197.2,81,196.8,81.6,196.1z"/>
		<path d="M99.1,187.3c1.1,0.6,2,1.4,2.6,2.4c0.6,1.1,0.9,2.3,0.9,3.7c0,1.4-0.3,2.6-0.9,3.7s-1.5,1.9-2.6,2.5s-2.4,0.9-3.8,0.9
			c-1.5,0-2.7-0.3-3.9-0.9s-2-1.4-2.6-2.5s-0.9-2.3-0.9-3.7c0-1.4,0.3-2.6,0.9-3.7c0.6-1.1,1.5-1.9,2.6-2.4s2.4-0.9,3.9-0.9
			C96.7,186.4,98,186.7,99.1,187.3z M92.8,190.7c-0.6,0.7-1,1.6-1,2.7s0.3,2,1,2.7c0.6,0.7,1.5,1,2.5,1c1,0,1.8-0.3,2.5-1
			c0.6-0.7,1-1.6,1-2.7s-0.3-2-1-2.7c-0.6-0.7-1.5-1-2.5-1C94.3,189.7,93.5,190.1,92.8,190.7z"/>
		<path d="M111,187.1c0.8-0.4,1.7-0.7,2.7-0.7v3.7c-0.1,0-0.3,0-0.6,0c-1.2,0-2.2,0.3-2.9,1c-0.7,0.7-1.1,1.5-1.1,2.6v6.6h-3.9
			v-13.7h3.9v2.5C109.6,188.2,110.3,187.5,111,187.1z"/>
		<path d="M123.4,200.3v-1.6c-0.5,0.6-1.1,1-1.8,1.3c-0.7,0.3-1.6,0.5-2.5,0.5c-1.4,0-2.6-0.4-3.4-1.2c-0.8-0.8-1.3-1.8-1.3-3.1
			c0-1.3,0.5-2.3,1.4-3c0.9-0.7,2.2-1.1,3.9-1.1h3.8v-0.3c0-0.7-0.2-1.3-0.7-1.7c-0.5-0.4-1.2-0.6-2.1-0.6c-1.3,0-2.6,0.4-4.1,1.2
			l-1.2-2.7c1.1-0.5,2.1-0.9,3.1-1.2c1-0.3,2-0.4,3.1-0.4c1.8,0,3.3,0.4,4.3,1.3c1,0.9,1.5,2.1,1.5,3.6l0,8.9L123.4,200.3
			L123.4,200.3z M122.3,197.1c0.6-0.4,1-0.9,1.1-1.5v-1.2h-3.1c-0.8,0-1.3,0.1-1.7,0.4s-0.5,0.6-0.5,1.2c0,0.5,0.2,0.9,0.6,1.3
			c0.4,0.3,0.9,0.5,1.6,0.5C121,197.7,121.7,197.5,122.3,197.1z"/>
		<path d="M139.1,199.5c-0.5,0.3-1.1,0.5-1.7,0.7c-0.6,0.2-1.2,0.2-1.9,0.2c-1.3,0-2.3-0.4-3.1-1.1s-1.2-1.8-1.2-3.1v-6.3h-1.9v-2.7
			h1.9v-3.8h3.9v3.8h3.7v2.7h-3.7v5.7c0,1.1,0.4,1.6,1.2,1.6c0.6,0,1.2-0.2,1.9-0.5L139.1,199.5z"/>
		<path d="M151.4,187.3c1.1,0.6,2,1.4,2.6,2.4c0.6,1.1,0.9,2.3,0.9,3.7c0,1.4-0.3,2.6-0.9,3.7s-1.5,1.9-2.6,2.5s-2.4,0.9-3.8,0.9
			c-1.5,0-2.7-0.3-3.9-0.9c-1.1-0.6-2-1.4-2.6-2.5s-0.9-2.3-0.9-3.7c0-1.4,0.3-2.6,0.9-3.7c0.6-1.1,1.5-1.9,2.6-2.4s2.4-0.9,3.9-0.9
			C149,186.4,150.3,186.7,151.4,187.3z M145.1,190.7c-0.6,0.7-1,1.6-1,2.7s0.3,2,1,2.7c0.6,0.7,1.5,1,2.5,1c1,0,1.8-0.3,2.5-1
			c0.6-0.7,1-1.6,1-2.7s-0.3-2-1-2.7c-0.6-0.7-1.5-1-2.5-1C146.5,189.7,145.7,190.1,145.1,190.7z"/>
		<path d="M163.3,187.1c0.8-0.4,1.7-0.7,2.7-0.7v3.7c-0.1,0-0.3,0-0.6,0c-1.2,0-2.2,0.3-2.9,1c-0.7,0.7-1.1,1.5-1.1,2.6v6.6h-3.9
			v-13.7h3.9v2.5C161.9,188.2,162.5,187.5,163.3,187.1z"/>
		<path d="M171.6,181.1c0.4,0.4,0.6,0.9,0.6,1.6c0,0.6-0.2,1.2-0.6,1.6c-0.4,0.4-0.9,0.6-1.5,0.6c-0.6,0-1.1-0.2-1.5-0.6
			c-0.4-0.4-0.6-0.9-0.6-1.6c0-0.6,0.2-1.2,0.6-1.6c0.4-0.4,0.9-0.6,1.5-0.6C170.6,180.5,171.2,180.7,171.6,181.1z M168.1,186.6h3.9
			v13.7h-3.9V186.6z"/>
		<path d="M185.8,187.3c1.1,0.6,2,1.4,2.6,2.4c0.6,1.1,0.9,2.3,0.9,3.7c0,1.4-0.3,2.6-0.9,3.7s-1.5,1.9-2.6,2.5s-2.4,0.9-3.8,0.9
			c-1.5,0-2.7-0.3-3.9-0.9s-2-1.4-2.6-2.5s-0.9-2.3-0.9-3.7c0-1.4,0.3-2.6,0.9-3.7c0.6-1.1,1.5-1.9,2.6-2.4s2.4-0.9,3.9-0.9
			C183.4,186.4,184.7,186.7,185.8,187.3z M179.5,190.7c-0.6,0.7-1,1.6-1,2.7s0.3,2,1,2.7c0.6,0.7,1.5,1,2.5,1c1,0,1.8-0.3,2.5-1
			c0.6-0.7,1-1.6,1-2.7s-0.3-2-1-2.7c-0.6-0.7-1.5-1-2.5-1C181,189.7,180.1,190.1,179.5,190.7z"/>
		<path d="M204,189.8c-1,0-1.8,0.3-2.4,1c-0.6,0.7-0.9,1.6-0.9,2.7c0,1.1,0.3,2,0.9,2.7s1.4,1,2.3,1c1.4,0,2.5-0.5,3.2-1.6l2.7,1.8
			c-0.6,1-1.4,1.7-2.4,2.2c-1,0.5-2.3,0.8-3.7,0.8c-1.4,0-2.6-0.3-3.6-0.9c-1.1-0.6-1.9-1.4-2.5-2.4c-0.6-1.1-0.9-2.3-0.9-3.6
			c0-1.4,0.3-2.6,0.9-3.7s1.4-1.9,2.5-2.5c1.1-0.6,2.3-0.9,3.7-0.9c1.3,0,2.5,0.3,3.5,0.8c1,0.5,1.8,1.2,2.4,2.1l-2.7,1.9
			C206.2,190.3,205.2,189.8,204,189.8z"/>
		<path d="M212.4,181.4h3.9v18.9h-3.9V181.4z"/>
		<path d="M223,180.8l3.5,1.4l-3.5,2.8l-2.9-0.3L223,180.8z M220.2,186.6h3.9v13.7h-3.9V186.6z"/>
		<path d="M240.2,187.8c0.9,1,1.4,2.2,1.4,3.8v8.6h-3.9v-7.5c0-0.9-0.2-1.6-0.7-2.1c-0.5-0.5-1.1-0.8-2-0.8c-1,0-1.7,0.4-2.3,1
			c-0.6,0.7-0.8,1.5-0.8,2.5v6.8h-3.9v-13.7h3.9v2.4c1-1.7,2.5-2.5,4.7-2.5C238.1,186.4,239.3,186.9,240.2,187.8z"/>
		<path d="M248.4,181.1c0.4,0.4,0.6,0.9,0.6,1.6c0,0.6-0.2,1.2-0.6,1.6c-0.4,0.4-0.9,0.6-1.5,0.6c-0.6,0-1.1-0.2-1.5-0.6
			c-0.4-0.4-0.6-0.9-0.6-1.6c0-0.6,0.2-1.2,0.6-1.6c0.4-0.4,0.9-0.6,1.5-0.6C247.5,180.5,248,180.7,248.4,181.1z M245,186.6h3.9
			v13.7H245V186.6z"/>
		<path d="M258.8,189.8c-1,0-1.8,0.3-2.4,1c-0.6,0.7-0.9,1.6-0.9,2.7c0,1.1,0.3,2,0.9,2.7c0.6,0.7,1.4,1,2.3,1
			c1.4,0,2.5-0.5,3.2-1.6l2.7,1.8c-0.6,1-1.4,1.7-2.4,2.2c-1,0.5-2.3,0.8-3.7,0.8c-1.4,0-2.6-0.3-3.6-0.9c-1.1-0.6-1.9-1.4-2.5-2.4
			c-0.6-1.1-0.9-2.3-0.9-3.6c0-1.4,0.3-2.6,0.9-3.7c0.6-1.1,1.4-1.9,2.5-2.5c1.1-0.6,2.3-0.9,3.7-0.9c1.3,0,2.5,0.3,3.5,0.8
			c1,0.5,1.8,1.2,2.4,2.1l-2.7,1.9C261,190.3,260,189.8,258.8,189.8z"/>
		<path d="M276.6,187.3c1.1,0.6,2,1.4,2.6,2.4c0.6,1.1,0.9,2.3,0.9,3.7c0,1.4-0.3,2.6-0.9,3.7c-0.6,1.1-1.5,1.9-2.6,2.5
			s-2.4,0.9-3.8,0.9c-1.5,0-2.7-0.3-3.9-0.9s-2-1.4-2.6-2.5s-0.9-2.3-0.9-3.7c0-1.4,0.3-2.6,0.9-3.7c0.6-1.1,1.5-1.9,2.6-2.4
			s2.4-0.9,3.9-0.9C274.2,186.4,275.5,186.7,276.6,187.3z M270.3,190.7c-0.6,0.7-1,1.6-1,2.7s0.3,2,1,2.7c0.6,0.7,1.5,1,2.5,1
			c1,0,1.8-0.3,2.5-1c0.6-0.7,1-1.6,1-2.7s-0.3-2-1-2.7c-0.6-0.7-1.5-1-2.5-1C271.8,189.7,270.9,190.1,270.3,190.7z"/>
		<path d="M298.8,190.7v2.6h-4.4v4.3H292v-4.3h-4.4v-2.6h4.4v-4.3h2.5v4.3H298.8z"/>
		<path d="M307.6,182.4h4v17.8h-4V182.4z"/>
		<path d="M337.3,187.8c0.9,0.9,1.3,2.2,1.3,3.8v8.6h-3.9v-7.5c0-0.9-0.2-1.6-0.7-2.1c-0.5-0.5-1.1-0.7-1.9-0.7
			c-0.9,0-1.7,0.3-2.2,1s-0.8,1.5-0.8,2.5v6.8h-3.9v-7.5c0-0.9-0.2-1.6-0.7-2.1c-0.5-0.5-1.1-0.8-1.9-0.8c-0.9,0-1.7,0.3-2.2,1
			c-0.6,0.6-0.8,1.5-0.8,2.5v6.8h-3.9v-13.7h3.9v2.4c1-1.6,2.5-2.5,4.6-2.5c1.2,0,2.1,0.3,2.9,0.8c0.8,0.6,1.4,1.3,1.7,2.3
			c0.4-1,1.1-1.8,1.9-2.3c0.8-0.5,1.8-0.8,3-0.8C335.2,186.4,336.4,186.9,337.3,187.8z"/>
		<path d="M349.9,200.3v-1.6c-0.5,0.6-1.1,1-1.8,1.3s-1.6,0.5-2.5,0.5c-1.4,0-2.6-0.4-3.4-1.2c-0.9-0.8-1.3-1.8-1.3-3.1
			c0-1.3,0.5-2.3,1.4-3c0.9-0.7,2.2-1.1,3.9-1.1h3.8v-0.3c0-0.7-0.2-1.3-0.7-1.7c-0.5-0.4-1.2-0.6-2.1-0.6c-1.3,0-2.6,0.4-4.1,1.2
			l-1.2-2.7c1.1-0.5,2.1-0.9,3.1-1.2c1-0.3,2-0.4,3.1-0.4c1.8,0,3.3,0.4,4.3,1.3c1,0.9,1.5,2.1,1.5,3.6l0,8.9L349.9,200.3
			L349.9,200.3z M348.8,197.1c0.6-0.4,1-0.9,1.1-1.5v-1.2h-3.1c-0.8,0-1.3,0.1-1.7,0.4c-0.4,0.2-0.5,0.6-0.5,1.2
			c0,0.5,0.2,0.9,0.6,1.3c0.4,0.3,0.9,0.5,1.6,0.5C347.5,197.7,348.2,197.5,348.8,197.1z"/>
		<path d="M370,186.6V199c0,1.3-0.3,2.4-0.9,3.4c-0.6,1-1.5,1.7-2.6,2.2s-2.4,0.8-3.8,0.8c-1.1,0-2.2-0.2-3.2-0.5
			c-1-0.3-1.9-0.8-2.8-1.3l1.5-2.8c1.3,0.9,2.7,1.4,4.3,1.4c1.1,0,2-0.3,2.7-0.8c0.7-0.6,1-1.3,1-2.2v-1.6c-0.5,0.6-1,1.1-1.7,1.5
			c-0.7,0.3-1.5,0.5-2.4,0.5c-1.2,0-2.2-0.3-3.1-0.8c-0.9-0.6-1.6-1.3-2.1-2.3c-0.5-1-0.8-2.2-0.8-3.5c0-1.3,0.3-2.4,0.8-3.4
			c0.5-1,1.2-1.7,2.1-2.3c0.9-0.5,1.9-0.8,3.1-0.8c0.9,0,1.7,0.2,2.4,0.5s1.3,0.8,1.8,1.5v-1.9L370,186.6L370,186.6z M365.2,195.6
			c0.6-0.7,0.9-1.5,0.9-2.6c0-1.1-0.3-1.9-0.9-2.6c-0.6-0.7-1.4-1-2.3-1c-1,0-1.7,0.3-2.3,1c-0.6,0.7-0.9,1.5-0.9,2.6
			c0,1.1,0.3,1.9,0.9,2.6c0.6,0.7,1.4,1,2.3,1C363.9,196.6,364.6,196.3,365.2,195.6z"/>
		<path d="M384.5,188.4c1.1,1.3,1.7,3.1,1.7,5.3c0,0.4,0,0.7,0,0.9h-9.8c0.2,0.9,0.6,1.5,1.3,2c0.6,0.5,1.4,0.7,2.3,0.7
			c0.6,0,1.3-0.1,1.9-0.4s1.1-0.6,1.6-1.1l2.1,2.1c-0.7,0.8-1.5,1.4-2.5,1.8c-1,0.4-2.1,0.6-3.3,0.6c-1.4,0-2.7-0.3-3.8-0.9
			s-1.9-1.4-2.5-2.4c-0.6-1.1-0.9-2.3-0.9-3.6c0-1.4,0.3-2.6,0.9-3.7c0.6-1.1,1.4-1.9,2.5-2.5c1.1-0.6,2.3-0.9,3.7-0.9
			C381.7,186.4,383.4,187.1,384.5,188.4z M382.6,192.3c0-0.9-0.3-1.6-0.9-2.2c-0.5-0.5-1.3-0.8-2.2-0.8c-0.8,0-1.6,0.3-2.1,0.8
			c-0.6,0.5-0.9,1.3-1.1,2.2L382.6,192.3L382.6,192.3z"/>
		<path d="M401.1,187.8c0.9,1,1.4,2.2,1.4,3.8v8.6h-3.9v-7.5c0-0.9-0.2-1.6-0.7-2.1c-0.5-0.5-1.1-0.8-2-0.8c-1,0-1.7,0.4-2.3,1
			c-0.6,0.7-0.8,1.5-0.8,2.5v6.8h-3.9v-13.7h3.9v2.4c1-1.7,2.5-2.5,4.7-2.5C399,186.4,400.2,186.9,401.1,187.8z"/>
		<path d="M415.9,187.3c1.1,0.6,2,1.4,2.6,2.4c0.6,1.1,0.9,2.3,0.9,3.7c0,1.4-0.3,2.6-0.9,3.7c-0.6,1.1-1.5,1.9-2.6,2.5
			s-2.4,0.9-3.8,0.9c-1.5,0-2.7-0.3-3.9-0.9c-1.1-0.6-2-1.4-2.6-2.5s-0.9-2.3-0.9-3.7c0-1.4,0.3-2.6,0.9-3.7
			c0.6-1.1,1.5-1.9,2.6-2.4c1.1-0.6,2.4-0.9,3.9-0.9C413.5,186.4,414.8,186.7,415.9,187.3z M409.6,190.7c-0.6,0.7-1,1.6-1,2.7
			s0.3,2,1,2.7c0.6,0.7,1.5,1,2.5,1c1,0,1.8-0.3,2.5-1c0.6-0.7,1-1.6,1-2.7s-0.3-2-1-2.7c-0.6-0.7-1.5-1-2.5-1
			C411.1,189.7,410.2,190.1,409.6,190.7z"/>
		<path d="M422.2,181.4h3.9v18.9h-3.9V181.4z"/>
		<path d="M440,187.3c1.1,0.6,2,1.4,2.6,2.4c0.6,1.1,0.9,2.3,0.9,3.7c0,1.4-0.3,2.6-0.9,3.7c-0.6,1.1-1.5,1.9-2.6,2.5
			s-2.4,0.9-3.8,0.9c-1.5,0-2.7-0.3-3.9-0.9c-1.1-0.6-2-1.4-2.6-2.5s-0.9-2.3-0.9-3.7c0-1.4,0.3-2.6,0.9-3.7
			c0.6-1.1,1.5-1.9,2.6-2.4c1.1-0.6,2.4-0.9,3.9-0.9C437.6,186.4,438.9,186.7,440,187.3z M433.7,190.7c-0.6,0.7-1,1.6-1,2.7
			s0.3,2,1,2.7c0.6,0.7,1.5,1,2.5,1c1,0,1.8-0.3,2.5-1c0.6-0.7,1-1.6,1-2.7s-0.3-2-1-2.7c-0.6-0.7-1.5-1-2.5-1
			C435.2,189.7,434.4,190.1,433.7,190.7z"/>
		<path d="M459,186.6V199c0,1.3-0.3,2.4-0.9,3.4c-0.6,1-1.5,1.7-2.6,2.2s-2.4,0.8-3.8,0.8c-1.1,0-2.2-0.2-3.2-0.5
			c-1-0.3-1.9-0.8-2.8-1.3l1.5-2.8c1.3,0.9,2.7,1.4,4.3,1.4c1.1,0,2-0.3,2.7-0.8c0.7-0.6,1-1.3,1-2.2v-1.6c-0.5,0.6-1,1.1-1.7,1.5
			c-0.7,0.3-1.5,0.5-2.4,0.5c-1.2,0-2.2-0.3-3.1-0.8c-0.9-0.6-1.6-1.3-2.1-2.3c-0.5-1-0.8-2.2-0.8-3.5c0-1.3,0.3-2.4,0.8-3.4
			c0.5-1,1.2-1.7,2.1-2.3c0.9-0.5,1.9-0.8,3.1-0.8c0.9,0,1.7,0.2,2.4,0.5s1.3,0.8,1.8,1.5v-1.9L459,186.6L459,186.6z M454.2,195.6
			c0.6-0.7,0.9-1.5,0.9-2.6c0-1.1-0.3-1.9-0.9-2.6c-0.6-0.7-1.4-1-2.3-1c-1,0-1.7,0.3-2.3,1c-0.6,0.7-0.9,1.5-0.9,2.6
			c0,1.1,0.3,1.9,0.9,2.6c0.6,0.7,1.4,1,2.3,1C452.8,196.6,453.6,196.3,454.2,195.6z"/>
		<path d="M465.4,180.8l3.5,1.4l-3.5,2.8l-2.9-0.3L465.4,180.8z M462.6,186.6h3.9v13.7h-3.9V186.6z"/>
		<path d="M478.2,200.3v-1.6c-0.5,0.6-1.1,1-1.8,1.3s-1.6,0.5-2.5,0.5c-1.4,0-2.6-0.4-3.4-1.2c-0.9-0.8-1.3-1.8-1.3-3.1
			c0-1.3,0.5-2.3,1.4-3c0.9-0.7,2.2-1.1,3.9-1.1h3.8v-0.3c0-0.7-0.2-1.3-0.7-1.7c-0.5-0.4-1.2-0.6-2.1-0.6c-1.3,0-2.6,0.4-4.1,1.2
			L470,188c1.1-0.5,2.1-0.9,3.1-1.2c1-0.3,2-0.4,3.1-0.4c1.8,0,3.3,0.4,4.3,1.3c1,0.9,1.5,2.1,1.5,3.6l0,8.9L478.2,200.3
			L478.2,200.3z M477.1,197.1c0.6-0.4,1-0.9,1.1-1.5v-1.2h-3.1c-0.8,0-1.3,0.1-1.7,0.4c-0.4,0.2-0.5,0.6-0.5,1.2
			c0,0.5,0.2,0.9,0.6,1.3c0.4,0.3,0.9,0.5,1.6,0.5C475.8,197.7,476.5,197.5,477.1,197.1z"/>
		<path d="M501.6,190.7v2.6h-4.4v4.3h-2.5v-4.3h-4.4v-2.6h4.4v-4.3h2.5v4.3H501.6z"/>
		<path d="M510.4,182.4h4v14.3h7.6v3.5h-11.7V182.4z"/>
		<path d="M535.3,188.4c1.1,1.3,1.7,3.1,1.7,5.3c0,0.4,0,0.7,0,0.9h-9.8c0.2,0.9,0.6,1.5,1.3,2c0.6,0.5,1.4,0.7,2.3,0.7
			c0.6,0,1.3-0.1,1.9-0.4s1.1-0.6,1.6-1.1l2.1,2.1c-0.7,0.8-1.5,1.4-2.5,1.8c-1,0.4-2.1,0.6-3.3,0.6c-1.4,0-2.7-0.3-3.8-0.9
			s-1.9-1.4-2.5-2.4c-0.6-1.1-0.9-2.3-0.9-3.6c0-1.4,0.3-2.6,0.9-3.7c0.6-1.1,1.4-1.9,2.5-2.5c1.1-0.6,2.3-0.9,3.7-0.9
			C532.4,186.4,534.1,187.1,535.3,188.4z M533.3,192.3c0-0.9-0.3-1.6-0.9-2.2c-0.5-0.5-1.3-0.8-2.2-0.8c-0.8,0-1.6,0.3-2.1,0.8
			c-0.6,0.5-0.9,1.3-1.1,2.2L533.3,192.3L533.3,192.3z"/>
		<path d="M551.9,187.8c0.9,1,1.4,2.2,1.4,3.8v8.6h-3.9v-7.5c0-0.9-0.2-1.6-0.7-2.1c-0.5-0.5-1.1-0.8-2-0.8c-1,0-1.7,0.4-2.3,1
			c-0.6,0.7-0.8,1.5-0.8,2.5v6.8h-3.9v-13.7h3.9v2.4c1-1.7,2.5-2.5,4.7-2.5C549.8,186.4,551,186.9,551.9,187.8z"/>
		<path d="M565.1,199.5c-0.5,0.3-1.1,0.5-1.7,0.7c-0.6,0.2-1.2,0.2-1.9,0.2c-1.3,0-2.3-0.4-3.1-1.1s-1.2-1.8-1.2-3.1v-6.3h-1.9v-2.7
			h1.9v-3.8h3.9v3.8h3.7v2.7h-3.7v5.7c0,1.1,0.4,1.6,1.2,1.6c0.6,0,1.2-0.2,1.9-0.5L565.1,199.5z"/>
		<path d="M578.3,188.4c1.1,1.3,1.7,3.1,1.7,5.3c0,0.4,0,0.7,0,0.9h-9.8c0.2,0.9,0.6,1.5,1.3,2c0.6,0.5,1.4,0.7,2.3,0.7
			c0.6,0,1.3-0.1,1.9-0.4s1.1-0.6,1.6-1.1l2.1,2.1c-0.7,0.8-1.5,1.4-2.5,1.8c-1,0.4-2.1,0.6-3.3,0.6c-1.4,0-2.7-0.3-3.8-0.9
			s-1.9-1.4-2.5-2.4c-0.6-1.1-0.9-2.3-0.9-3.6c0-1.4,0.3-2.6,0.9-3.7c0.6-1.1,1.4-1.9,2.5-2.5c1.1-0.6,2.3-0.9,3.7-0.9
			C575.5,186.4,577.2,187.1,578.3,188.4z M576.3,192.3c0-0.9-0.3-1.6-0.9-2.2c-0.5-0.5-1.3-0.8-2.2-0.8c-0.8,0-1.6,0.3-2.1,0.8
			c-0.6,0.5-0.9,1.3-1.1,2.2L576.3,192.3L576.3,192.3z"/>
		<path d="M589,189.6c-0.7-0.2-1.4-0.3-2-0.3c-0.5,0-0.9,0.1-1.1,0.3c-0.3,0.2-0.4,0.4-0.4,0.8c0,0.4,0.2,0.7,0.6,0.9s1,0.4,1.9,0.7
			c1,0.3,1.8,0.6,2.4,0.9c0.6,0.3,1.2,0.7,1.6,1.2c0.5,0.6,0.7,1.3,0.7,2.2c0,1.4-0.5,2.4-1.6,3.2c-1,0.8-2.4,1.1-4,1.1
			c-1.1,0-2.2-0.2-3.2-0.5c-1-0.3-1.9-0.8-2.7-1.4l1.3-2.6c0.7,0.5,1.5,1,2.3,1.3c0.9,0.3,1.7,0.4,2.4,0.4c0.5,0,0.9-0.1,1.3-0.3
			c0.3-0.2,0.5-0.4,0.5-0.8c0-0.4-0.2-0.7-0.6-0.9c-0.4-0.2-1-0.5-1.9-0.7c-0.9-0.3-1.7-0.5-2.3-0.8c-0.6-0.3-1.2-0.7-1.6-1.2
			c-0.4-0.6-0.7-1.3-0.7-2.2c0-1.4,0.5-2.4,1.5-3.2c1-0.7,2.3-1.1,3.9-1.1c0.9,0,1.9,0.1,2.8,0.4c0.9,0.3,1.8,0.6,2.5,1.1l-1.4,2.7
			C590.5,190.2,589.8,189.8,589,189.6z"/>
	</g>
</g>
</svg>
