<?xml version="1.0" encoding="utf-8"?>
<!-- Generator: Adobe Illustrator 23.0.2, SVG Export Plug-In . SVG Version: 6.00 Build 0)  -->
<svg version="1.1" id="Capa_1" xmlns="http://www.w3.org/2000/svg" xmlns:xlink="http://www.w3.org/1999/xlink" x="0px" y="0px"
	 viewBox="0 0 200 50" style="enable-background:new 0 0 200 50;" xml:space="preserve">
<style type="text/css">
	.st0{opacity:0;}
	.st1{fill:#FFFFFF;}
	.st2{fill:#818080;fill-opacity:0;}
	.st3{fill-rule:evenodd;clip-rule:evenodd;fill:#FFFFFF;}
</style>
<g id="XMLID_4_">
	<g id="XMLID_145_" class="st0">
		<rect id="XMLID_146_" x="0.1" y="0" class="st1" width="199.9" height="50"/>
	</g>
	<g id="XMLID_135_">
		<rect id="XMLID_136_" x="1.8" y="2" class="st2" width="196.2" height="46"/>
	</g>
	<g id="XMLID_2_">
		<g id="XMLID_109_">
			<g id="XMLID_122_">
				<path id="XMLID_131_" class="st1" d="M187.5,29.4c0-0.5-0.1-1-0.1-1.6c0-0.6,0-1.1,0-1.7v-6.5c0-1.1-0.1-2.1-0.4-3.1
					c-0.3-1-0.7-1.8-1.3-2.6c-0.6-0.7-1.4-1.3-2.5-1.7c-1-0.4-2.3-0.6-3.8-0.6l-0.1,0c-1,0-2,0.1-2.9,0.3c-0.9,0.2-1.7,0.4-2.4,0.6
					c-0.7,0.3-1.2,0.5-1.7,0.8l1,3.7c0.4-0.3,0.9-0.5,1.4-0.7c0.5-0.2,1.1-0.4,1.7-0.5c0.6-0.1,1.2-0.2,1.9-0.2c0.3,0,0.6,0,0.9,0.1
					c0.3,0,0.6,0.1,0.8,0.2c0.4,0.2,0.8,0.3,1,0.6c0.2,0.2,0.4,0.5,0.5,0.8c0.1,0.3,0.1,0.5,0.1,0.8v0.3c-0.9,0-1.7,0-2.4,0.1
					c-0.7,0.1-1.3,0.2-1.9,0.3c-1.3,0.3-2.4,0.7-3.4,1.3c-0.9,0.6-1.7,1.3-2.2,2.2c-0.5,0.9-0.8,1.9-0.8,3.2c0,0.7,0.1,1.5,0.4,2.1
					c0.3,0.7,0.6,1.3,1.2,1.8c0.5,0.5,1.1,1,1.8,1.3c0.7,0.3,1.5,0.5,2.5,0.5c0.8,0,1.6-0.1,2.3-0.3c0.2-0.1,0.4-0.1,0.6-0.2
					c0.9-0.4,1.6-1,2.2-1.7h0.1l0.3,1.9h5.1C187.6,30.3,187.6,29.9,187.5,29.4z M182,23.8c0,0.2,0,0.3,0,0.5c0,0.2-0.1,0.3-0.1,0.5
					c-0.1,0.4-0.3,0.8-0.6,1.1c-0.3,0.3-0.6,0.6-1,0.8c-0.3,0.1-0.6,0.2-0.9,0.3c-0.1,0-0.3,0-0.4,0c-0.4,0-0.8-0.1-1.1-0.2
					c-0.3-0.2-0.6-0.4-0.8-0.7c-0.2-0.3-0.3-0.7-0.3-1.2c0-0.7,0.3-1.3,0.7-1.8c0.5-0.4,1.1-0.7,1.9-0.9l0.1,0
					c0.8-0.2,1.6-0.3,2.6-0.2V23.8z"/>
				<path id="XMLID_128_" class="st1" d="M142.9,14.2L142.9,14.2c-0.4-0.5-0.8-1-1.2-1.4c-0.5-0.4-1-0.7-1.6-0.9
					c-0.4-0.1-0.8-0.2-1.3-0.3c-0.3,0-0.6,0-0.9-0.1c-1.1,0-2.2,0.2-3.2,0.7c-1,0.5-1.9,1.1-2.6,2c-0.8,0.9-1.4,1.9-1.8,3.1
					c-0.4,1.2-0.7,2.5-0.7,4c0,1.3,0.2,2.6,0.6,3.7c0.4,1.1,0.9,2.1,1.6,2.9c0.7,0.8,1.5,1.4,2.4,1.9c0.9,0.4,2,0.7,3.1,0.7
					c0.5,0,1-0.1,1.5-0.2c0.5-0.1,0.9-0.3,1.4-0.5c0.8-0.4,1.5-1,2.1-1.8h0.1v1.2c0,1.1-0.2,2.1-0.6,2.8c-0.4,0.7-1,1.3-1.7,1.6
					c-0.4,0.2-0.8,0.3-1.2,0.4c-0.4,0.1-0.8,0.1-1.2,0.1c-0.7,0-1.4-0.1-2.1-0.2c-0.7-0.1-1.3-0.3-1.8-0.5c-0.5-0.2-1-0.4-1.4-0.7
					l-1.1,4.4c0.5,0.3,1.2,0.6,1.9,0.8c0.7,0.2,1.4,0.4,2.2,0.5c0.8,0.1,1.6,0.2,2.4,0.2c0.4,0,0.7,0,1.1,0c0.5,0,1.1-0.1,1.6-0.2
					c0.9-0.1,1.7-0.4,2.5-0.7c0.8-0.3,1.5-0.8,2.2-1.4c0.7-0.6,1.2-1.4,1.6-2.2c0.4-0.8,0.7-1.8,0.9-2.8c0.2-1,0.3-2.2,0.3-3.3V17.5
					c0-0.9,0-1.7,0-2.4c0-0.7,0-1.3,0.1-1.8c0-0.5,0-0.9,0.1-1.3h-4.9L142.9,14.2z M142.2,22.3c0,0.3,0,0.5,0,0.8
					c0,0.3-0.1,0.5-0.1,0.7c-0.1,0.5-0.3,0.9-0.6,1.2c-0.3,0.4-0.6,0.6-1,0.8c-0.4,0.2-0.8,0.3-1.3,0.3c-0.1,0-0.2,0-0.3,0
					c-0.7,0-1.2-0.3-1.7-0.6c-0.5-0.4-1-1-1.3-1.8c-0.3-0.7-0.4-1.6-0.4-2.5c0-1.1,0.2-2.1,0.5-2.9c0.3-0.8,0.8-1.4,1.3-1.8
					c0.5-0.4,1-0.6,1.6-0.6c0.1,0,0.2,0,0.3,0c0.5,0,1,0.1,1.4,0.3c0.4,0.2,0.7,0.5,1,0.9c0.3,0.4,0.5,0.8,0.6,1.3
					c0,0.1,0.1,0.3,0.1,0.5c0,0.2,0,0.4,0,0.6V22.3z"/>
				<path id="XMLID_44_" class="st1" d="M166.8,13.5c-0.6-0.7-1.3-1.1-2.1-1.5c-0.8-0.3-1.6-0.5-2.6-0.5c-0.7,0-1.4,0.1-2,0.3
					c-0.6,0.2-1.2,0.4-1.6,0.7c-0.5,0.3-0.9,0.6-1.2,1c-0.3,0.3-0.6,0.7-0.8,1h-0.1l-0.3-2.6h-4.9c0,0.8,0.1,1.7,0.1,2.7
					c0,1,0,2.1,0,3.2v12.7h5.6V19.9c0-0.3,0-0.5,0.1-0.8c0-0.3,0.1-0.5,0.2-0.7c0.1-0.4,0.3-0.7,0.6-1c0.3-0.3,0.6-0.6,1-0.8
					c0.4-0.2,0.8-0.3,1.3-0.3c0.7,0,1.2,0.2,1.7,0.5c0.4,0.3,0.7,0.8,0.9,1.4c0.2,0.6,0.3,1.3,0.3,2.1v10.3h5.6v-11
					c0-1.4-0.2-2.6-0.5-3.6C167.9,15,167.4,14.2,166.8,13.5z"/>
				<path id="XMLID_124_" class="st1" d="M116.7,9.9c-0.6-0.9-1.4-1.7-2.2-2.4c-0.8-0.6-1.7-1.1-2.7-1.5c-1-0.4-2.1-0.7-3.3-0.9
					c-0.3,0-0.6-0.1-1-0.1c-1-0.1-2.1-0.2-3.2-0.2c-1.4,0-2.8,0-4.1,0.1c-1.3,0.1-2.5,0.2-3.5,0.4v25.2c0.7,0.1,1.6,0.2,2.6,0.3
					c1.1,0.1,2.3,0.1,3.8,0.1c1.6,0,3.1-0.1,4.5-0.3c0.7-0.1,1.5-0.3,2.1-0.5c2-0.5,3.6-1.4,4.9-2.5c0.8-0.7,1.5-1.5,2.2-2.5
					c0.6-1,1.1-2.1,1.5-3.5c0.4-1.3,0.5-2.8,0.5-4.4c0-1.5-0.2-2.9-0.5-4.1C117.8,11.9,117.3,10.8,116.7,9.9z M111.6,22.4
					c-0.7,1.3-1.7,2.3-2.9,3c-0.4,0.2-0.8,0.4-1.2,0.5c-1,0.3-2.1,0.5-3.2,0.4c-0.4,0-0.7,0-1.1,0c-0.3,0-0.6,0-0.9-0.1V9.5
					c0.2-0.1,0.6-0.1,1-0.2c0.4,0,0.9-0.1,1.6-0.1c1,0,1.8,0.1,2.6,0.3c0.6,0.1,1.1,0.3,1.6,0.6c1.2,0.6,2.1,1.5,2.7,2.7
					c0.6,1.2,0.9,2.7,0.9,4.5C112.6,19.4,112.3,21.1,111.6,22.4z"/>
				<rect id="XMLID_41_" x="121.4" y="12" class="st1" width="5.6" height="18.6"/>
			</g>
			<g id="XMLID_112_">
				<path id="XMLID_119_" class="st1" d="M91.9,29.1c0-0.6,0-1.2-0.1-1.9c0-0.7,0-1.4,0-2.1V3.6h-5.6v10.1h-0.1
					c-0.4-0.6-1-1.2-1.9-1.5c-0.5-0.2-1.1-0.4-1.7-0.5c-0.4-0.1-0.8-0.1-1.2-0.1c-1.1,0-2.1,0.2-3.1,0.7c-1,0.4-1.8,1.1-2.6,1.9
					c-0.8,0.8-1.3,1.9-1.8,3.1c-0.4,1.2-0.6,2.6-0.6,4.2c0,1.4,0.2,2.8,0.6,3.9c0.4,1.2,1,2.2,1.7,3c0.7,0.8,1.5,1.5,2.5,1.9
					c0.9,0.4,1.9,0.7,3,0.7c0.5,0,1.1-0.1,1.6-0.2c0.2-0.1,0.4-0.1,0.7-0.2c0.7-0.2,1.4-0.6,1.9-1.1c0.6-0.5,1.1-1.1,1.5-1.7h0.1
					l0.3,2.7h5C92,30.2,91.9,29.7,91.9,29.1z M86.2,22.3c0,0.3,0,0.5,0,0.7c0,0.2-0.1,0.4-0.1,0.6c-0.1,0.6-0.3,1-0.6,1.4
					c-0.3,0.4-0.7,0.7-1.1,1c-0.5,0.2-1,0.4-1.5,0.4c-0.1,0-0.2,0-0.2,0c-0.7,0-1.3-0.2-1.8-0.6c-0.6-0.4-1-1-1.3-1.8
					c-0.3-0.8-0.5-1.7-0.5-2.7c0-0.7,0.1-1.4,0.3-2.1c0.2-0.6,0.4-1.2,0.7-1.7c0.3-0.5,0.7-0.9,1.2-1.1c0.4-0.2,0.9-0.4,1.4-0.4
					c0.1,0,0.2,0,0.3,0c0.6,0,1.1,0.1,1.6,0.4c0.4,0.2,0.8,0.6,1.1,1c0.3,0.4,0.5,0.9,0.6,1.4c0,0.2,0,0.3,0,0.5c0,0.2,0,0.4,0,0.5
					V22.3z"/>
				<path id="XMLID_116_" class="st1" d="M40.7,27.8c0-0.6,0-1.1,0-1.7v-6.5c0-1.1-0.1-2.1-0.4-3.1c-0.3-1-0.7-1.8-1.3-2.6
					c-0.6-0.7-1.4-1.3-2.4-1.7c-1-0.4-2.3-0.6-3.8-0.6l-0.2,0c-1,0-2,0.1-2.9,0.3c-0.9,0.2-1.7,0.4-2.4,0.6
					c-0.7,0.3-1.2,0.5-1.7,0.8l1,3.7c0.4-0.3,0.9-0.5,1.4-0.7c0.5-0.2,1.1-0.4,1.7-0.5c0.6-0.1,1.2-0.2,1.9-0.2c0.3,0,0.6,0,0.8,0.1
					c0.3,0,0.6,0.1,0.8,0.2c0.4,0.2,0.8,0.3,1,0.6c0.2,0.2,0.4,0.5,0.5,0.8c0.1,0.3,0.1,0.5,0.1,0.8v0.3c-0.9,0-1.7,0-2.5,0.1
					c-0.7,0.1-1.3,0.2-1.9,0.3c-1.3,0.3-2.4,0.7-3.3,1.3c-0.9,0.6-1.7,1.3-2.2,2.2c-0.5,0.9-0.8,1.9-0.8,3.2c0,0.7,0.1,1.5,0.4,2.1
					c0.3,0.7,0.6,1.3,1.1,1.8c0.5,0.5,1.1,1,1.8,1.3c0.7,0.3,1.6,0.5,2.5,0.5c0.8,0,1.6-0.1,2.3-0.3c0.2-0.1,0.4-0.1,0.6-0.2
					c0.9-0.4,1.6-1,2.2-1.7h0.1l0.3,1.9H41c-0.1-0.3-0.1-0.8-0.1-1.2C40.8,28.9,40.8,28.4,40.7,27.8z M35.2,23.8c0,0.2,0,0.3,0,0.5
					c0,0.2-0.1,0.3-0.1,0.5c-0.1,0.4-0.3,0.8-0.6,1.1c-0.3,0.3-0.6,0.6-1,0.8c-0.3,0.1-0.6,0.2-0.9,0.3c-0.1,0-0.3,0-0.4,0
					c-0.4,0-0.8-0.1-1.1-0.2c-0.3-0.2-0.6-0.4-0.8-0.7c-0.2-0.3-0.3-0.7-0.3-1.2c0-0.7,0.3-1.3,0.7-1.8c0.5-0.4,1.1-0.7,1.9-0.9l0,0
					c0.8-0.2,1.7-0.3,2.6-0.2V23.8z"/>
				<rect id="XMLID_36_" x="44.3" y="3.6" class="st1" width="5.6" height="27"/>
				<path id="XMLID_35_" class="st1" d="M70.7,24.6V12H65v11.1c0,0.2,0,0.5,0,0.7c0,0.2-0.1,0.4-0.2,0.6c-0.1,0.3-0.3,0.6-0.6,0.9
					c-0.2,0.3-0.5,0.6-0.9,0.8c-0.4,0.2-0.8,0.3-1.3,0.3c-0.7,0-1.2-0.2-1.6-0.5c-0.4-0.3-0.7-0.8-0.9-1.5c-0.2-0.6-0.3-1.4-0.3-2.3
					V12h-5.7v10.9c0,1.4,0.2,2.7,0.5,3.7c0.3,1,0.8,1.9,1.3,2.5c0.6,0.6,1.2,1.1,2,1.4c0.8,0.3,1.6,0.5,2.5,0.5
					c0.8,0,1.5-0.1,2.2-0.3c0.6-0.2,1.2-0.5,1.6-0.8c0.5-0.3,0.8-0.6,1.2-1c0.3-0.3,0.6-0.7,0.7-1h0.1l0.3,2.6h4.9
					c0-0.8-0.1-1.7-0.1-2.7C70.7,27,70.7,25.9,70.7,24.6z"/>
				<path id="XMLID_34_" class="st1" d="M19.7,17.3c-1-0.7-2.2-1.4-3.7-1.9c-1.1-0.4-2-0.8-2.6-1.1c-0.7-0.3-1.2-0.7-1.5-1.1
					c-0.3-0.4-0.5-0.8-0.5-1.4c0-0.5,0.1-0.9,0.4-1.2c0.3-0.4,0.7-0.7,1.2-0.9c0.5-0.2,1.2-0.3,2-0.3c0.8,0,1.6,0.1,2.2,0.2
					c0.7,0.1,1.2,0.3,1.8,0.5c0.5,0.2,0.9,0.4,1.3,0.5l1.3-4.6c-0.7-0.4-1.6-0.7-2.7-0.9c-1.1-0.3-2.3-0.4-3.7-0.4
					c-1.5,0-2.8,0.2-4,0.6C10,5.5,9,6.1,8.2,6.8C7.4,7.5,6.8,8.3,6.4,9.2c-0.4,0.9-0.6,2-0.7,3.1c0,1.2,0.3,2.3,0.9,3.3
					c0.6,0.9,1.3,1.8,2.4,2.5c1,0.7,2.2,1.3,3.6,1.8c1,0.4,1.8,0.7,2.4,1.1c0.6,0.4,1.1,0.7,1.4,1.1c0.3,0.4,0.4,0.9,0.4,1.4
					c0,0.6-0.1,1.1-0.5,1.5c-0.3,0.4-0.7,0.7-1.3,1c-0.6,0.2-1.3,0.3-2.2,0.3c-0.8,0-1.6-0.1-2.4-0.2c-0.8-0.1-1.5-0.4-2.1-0.6
					c-0.7-0.2-1.2-0.5-1.8-0.8l-1.2,4.8c0.5,0.3,1.1,0.5,1.8,0.8c0.7,0.2,1.6,0.4,2.5,0.6c0.9,0.2,1.8,0.2,2.8,0.2
					c1.7,0,3.2-0.2,4.5-0.6c1.3-0.4,2.3-1,3.1-1.7c0.8-0.7,1.5-1.6,1.9-2.5c0.4-1,0.6-2,0.6-3.1c0-1.2-0.2-2.3-0.7-3.2
					C21.4,18.9,20.7,18.1,19.7,17.3z"/>
			</g>
			<g id="XMLID_110_">
				<path id="XMLID_33_" class="st3" d="M126.8,3.6c1.3,1.5,1.1,3.8-0.3,5.1c-1.5,1.3-3.7,1.2-5-0.3c-1.3-1.5-1.1-3.8,0.3-5.1
					C123.3,2,125.5,2.1,126.8,3.6z"/>
			</g>
		</g>
		<g id="XMLID_62_">
			<path id="XMLID_107_" class="st1" d="M10.8,45.4C10.8,45.4,10.8,45.5,10.8,45.4c0.1,0.3,0.2,0.4,0.2,0.5c0,0.2-0.1,0.3-0.4,0.4
				c-0.1,0-0.3,0-0.6,0c-0.6,0-1.2,0-1.7-0.1c-1.7-0.2-2.7-0.6-2.8-1.2c0-2,0.1-3.7,0.2-5.1c0.1-0.8,0.2-1.6,0.4-2.3l0.7-0.2
				c0,0.3,0.1,0.6,0.1,0.9c0,0.4,0,0.9-0.1,1.5l-0.2,1.7c-0.1,0.6-0.1,1.1-0.1,1.6c0,0.6,0,1.1,0.2,1.6c0.4,0.2,0.9,0.4,1.7,0.5
				c0.5,0.1,1.1,0.1,1.7,0.2C10.2,45.4,10.5,45.4,10.8,45.4z"/>
			<path id="XMLID_104_" class="st1" d="M13.1,46.3h-0.2c-0.5,0-0.9-0.2-1.1-0.7c-0.1-0.2-0.2-0.5-0.3-1c0-0.1,0-0.1,0-0.2
				c0-0.4,0.4-0.9,1.1-1.5c0.4-0.3,0.8-0.4,1.4-0.4c0.2,0,0.4,0,0.8,0.1c0.3,0,0.6,0.1,0.8,0.1c0-0.6-0.3-1.1-0.8-1.3
				c-0.1-0.1-0.3-0.1-0.4-0.1c-0.2,0-0.5,0.1-0.8,0.3L12.7,42c-0.1,0-0.2-0.1-0.3-0.2c-0.1-0.1-0.1-0.2-0.1-0.3c0-0.1,0-0.2,0.1-0.2
				c0.8-0.7,1.4-1,2-1c0.8,0,1.3,0.3,1.6,1c0.2,0.4,0.3,1,0.4,1.8c0.1,0.9,0.2,1.5,0.3,1.9C16,45.6,14.8,46.1,13.1,46.3z M15.3,43.5
				c-0.4-0.1-0.7-0.2-1-0.2c-0.7,0-1.2,0.3-1.6,0.9c-0.1,0.2-0.2,0.4-0.2,0.6c0,0.3,0.2,0.5,0.4,0.6c0.1,0,0.3,0.1,0.4,0
				c0.3,0,0.8-0.1,1.7-0.3c0.3-0.1,0.5-0.2,0.7-0.4l-0.1-0.7C15.5,43.8,15.4,43.6,15.3,43.5z"/>
			<path id="XMLID_102_" class="st1" d="M26.8,45.2c-0.3,0.6-0.9,0.9-1.8,1c-0.3,0-0.7,0.1-1.2,0.1h-0.3h-0.2h-1
				c-0.3-0.2-0.4-0.5-0.4-0.8c0,0,0-0.1,0-0.2c0,0,0.1,0,0.1,0l0.4,0.1c0.1,0,0.4,0,0.9,0.1c0.3,0,0.5,0,0.7,0
				c1.2,0,1.8-0.3,1.8-0.8c0-0.2-0.6-0.6-1.9-1.1c-0.2-0.1-0.6-0.2-1.4-0.5c-0.1,0-0.3-0.1-0.4-0.3C22,42.6,22,42.4,22,42.2
				c0,0,0-0.1,0-0.2c0.2-0.5,0.9-0.9,2.3-1.4c0.5-0.2,1-0.3,1.5-0.3l0.1,0.6c-0.1,0.1-0.4,0.2-0.9,0.4c-0.5,0.2-0.9,0.3-1,0.4
				c-0.3,0.2-0.5,0.4-0.5,0.7c0,0.2,0.4,0.4,1.1,0.5c0.5,0.1,0.8,0.2,0.9,0.2c0.3,0.1,0.6,0.3,0.9,0.6c0.3,0.3,0.5,0.7,0.5,1
				C26.9,44.9,26.9,45.1,26.8,45.2z"/>
			<path id="XMLID_99_" class="st1" d="M29.1,46.3h-0.2c-0.5,0-0.9-0.2-1.1-0.7c-0.1-0.2-0.2-0.5-0.3-1c0-0.1,0-0.1,0-0.2
				c0-0.4,0.4-0.9,1.1-1.5c0.4-0.3,0.8-0.4,1.4-0.4c0.2,0,0.4,0,0.8,0.1c0.4,0,0.6,0.1,0.8,0.1c0-0.6-0.3-1.1-0.8-1.3
				c-0.1-0.1-0.3-0.1-0.4-0.1c-0.2,0-0.5,0.1-0.8,0.3L28.7,42c-0.1,0-0.2-0.1-0.3-0.2c-0.1-0.1-0.1-0.2-0.1-0.3c0-0.1,0-0.2,0.1-0.2
				c0.8-0.7,1.4-1,2-1c0.8,0,1.3,0.3,1.6,1c0.2,0.4,0.3,1,0.4,1.8c0.1,0.9,0.2,1.5,0.3,1.9C31.9,45.6,30.7,46.1,29.1,46.3z
				 M31.2,43.5c-0.4-0.1-0.7-0.2-1-0.2c-0.7,0-1.2,0.3-1.6,0.9c-0.1,0.2-0.2,0.4-0.2,0.6c0,0.3,0.2,0.5,0.5,0.6c0.1,0,0.3,0.1,0.4,0
				c0.3,0,0.8-0.1,1.7-0.3c0.3-0.1,0.5-0.2,0.7-0.4l-0.1-0.7C31.5,43.8,31.4,43.6,31.2,43.5z"/>
			<path id="XMLID_97_" class="st1" d="M34.6,40.6l-0.1,2c0,0.7-0.1,1.2-0.1,1.7c0,0.7,0,1.4,0.1,1.9c-0.2,0.1-0.4,0.1-0.4,0.2
				c-0.1,0.1-0.3,0.2-0.4,0.3c-0.1-0.6-0.2-1.5-0.2-2.5c0-1.3,0.1-3.1,0.3-5.6c0.1,0,0.1,0,0.2,0c0.2,0,0.4,0.1,0.6,0.3
				C34.7,39.4,34.7,40,34.6,40.6z"/>
			<path id="XMLID_95_" class="st1" d="M41,46.2c-0.2-0.2-0.3-0.4-0.4-0.5c-0.2-0.2-0.3-0.5-0.4-0.8c-0.1,0.1-0.4,0.2-0.8,0.5
				c-0.3,0.2-0.6,0.4-0.9,0.5c-0.3,0.2-0.7,0.2-1,0.2h-0.2c0,0-0.1,0-0.1,0c-1,0-1.5-1.4-1.5-4.3v-0.5c0-0.4,0.3-0.5,0.8-0.5
				c0.1,0.3,0.2,0.8,0.2,1.4c0,0.9,0.1,1.4,0.1,1.6c0.1,0.6,0.3,1,0.6,1.3c0.1,0.1,0.2,0.1,0.3,0.1c0.5,0,1.1-0.3,1.7-1
				c0.5-0.5,0.8-1.3,0.8-2.3c0-0.3,0-0.5,0-0.6c0-0.1,0-0.2,0-0.4c0-0.1,0.1-0.2,0.2-0.2c0.1-0.1,0.2-0.1,0.3-0.1
				c0.1,0,0.2,0,0.3,0.1c0.2,0.1,0.2,0.4,0.2,0.9c0,0.2,0,0.5-0.1,0.9c-0.1,0.8-0.1,1.3-0.1,1.4c0,0.1,0,0.1,0,0.1
				c0,0.4,0.1,0.7,0.1,0.9c0.1,0.2,0.2,0.3,0.4,0.5c0.2,0.2,0.4,0.4,0.5,0.6C41.8,46.1,41.5,46.2,41,46.2z"/>
			<path id="XMLID_92_" class="st1" d="M46.7,46.3c-0.3,0.1-0.6,0.2-0.8,0.3v-0.7c-0.3,0.1-0.6,0.2-0.9,0.2
				c-0.7,0.1-1.2,0.2-1.2,0.2c-0.6,0-1.1-0.3-1.4-0.8c-0.3-0.5-0.4-1-0.4-1.6c0-1.1,0.4-1.9,1.2-2.4c0.6-0.4,1.4-0.6,2.4-0.6
				c-0.1-0.8-0.2-1.5-0.2-2.3c0.1-0.1,0.2-0.1,0.3-0.1c0.2,0,0.4,0.1,0.6,0.3c0,0.1,0.1,1.1,0.3,3.1c0.1,1.3,0.2,2.3,0.2,3.2
				C46.8,45.4,46.8,45.9,46.7,46.3z M45.9,42.8c0-0.3-0.1-0.6-0.2-0.9c-0.2,0-0.4,0-0.6,0c-0.5,0-1.1,0.2-1.7,0.5
				c-0.2,0.1-0.3,0.3-0.4,0.7c-0.1,0.3-0.1,0.6-0.1,0.9c0,0.4,0.2,0.8,0.5,1c0.2,0.2,0.4,0.2,0.6,0.2c0.8,0,1.4-0.2,1.9-0.7
				C45.9,44,45.9,43.4,45.9,42.8z"/>
			<path id="XMLID_89_" class="st1" d="M58.4,45.6c0,0.1-0.3,0.1-0.8,0.3c-0.8,0.2-1.7,0.3-2.9,0.3h-0.6c-0.7,0-1.3-0.3-1.9-1
				c-0.2-0.4-0.4-0.8-0.4-1.4c0-1.4,0.6-2.4,1.9-3c0.6-0.3,1.3-0.4,2-0.4c0.4,0,0.8,0.2,1.2,0.6c0.3,0.3,0.5,0.6,0.6,1
				c0,0,0,0.1,0,0.1c0,0,0,0.1,0,0.1c0,0,0,0-0.1,0.1c-1.4,0.8-3,1.4-4.7,1.8c0,0,0,0,0,0.1c0,0.1,0.1,0.3,0.2,0.5
				c0.1,0.2,0.2,0.3,0.4,0.4c0.5,0.2,1,0.3,1.5,0.3c0.3,0,0.7,0,1.1-0.1l1.2-0.2c0.5-0.1,0.8-0.1,1.1-0.1c0.1,0,0.1,0,0.1,0.1
				c0,0,0,0.1,0,0.2L58.4,45.6z M56.2,41.9c-0.1-0.4-0.4-0.6-0.9-0.6c-0.1,0-0.3,0-0.5,0.1c-0.7,0.2-1.2,0.5-1.7,1
				c-0.2,0.2-0.3,0.4-0.3,0.6c0,0.1,0,0.2,0.1,0.2c0.3-0.1,0.7-0.2,1.1-0.4c0.2-0.1,0.6-0.3,1.2-0.5c0.1,0,0.3-0.2,0.7-0.3
				C55.9,42,56,42,56.2,41.9z"/>
			<path id="XMLID_87_" class="st1" d="M63.7,45.2c-0.3,0.6-0.9,0.9-1.8,1c-0.3,0-0.7,0.1-1.1,0.1h-0.3h-0.2h-1
				c-0.3-0.2-0.4-0.5-0.4-0.8c0,0,0-0.1,0-0.2c0,0,0,0,0.1,0l0.4,0.1c0.1,0,0.4,0,0.9,0.1c0.3,0,0.5,0,0.7,0c1.2,0,1.8-0.3,1.9-0.8
				c0-0.2-0.6-0.6-1.9-1.1c-0.2-0.1-0.6-0.2-1.4-0.5c-0.1,0-0.3-0.1-0.4-0.3c-0.2-0.2-0.2-0.4-0.2-0.6c0,0,0-0.1,0-0.2
				c0.2-0.5,0.9-0.9,2.3-1.4c0.5-0.2,1-0.3,1.5-0.3l0.1,0.6c-0.1,0.1-0.4,0.2-0.9,0.4c-0.5,0.2-0.9,0.3-1,0.4
				c-0.3,0.2-0.5,0.4-0.5,0.7c0,0.2,0.4,0.4,1.1,0.5c0.5,0.1,0.8,0.2,0.9,0.2c0.3,0.1,0.6,0.3,0.9,0.6c0.3,0.3,0.5,0.7,0.5,1
				C63.8,44.9,63.7,45.1,63.7,45.2z"/>
			<path id="XMLID_84_" class="st1" d="M73.1,43.2c-0.1,0.3-0.1,0.5-0.2,0.6c-0.5,0.6-1.2,0.9-2.1,0.9c-0.2,0-0.5,0-0.8,0
				c0,0.2,0.1,1,0.3,2.7c-0.1,0.1-0.3,0.2-0.5,0.2c-0.1,0-0.2,0-0.4,0c-0.2-1.1-0.4-2.5-0.5-4.3c-0.1-1.1-0.1-2,0-2.7
				c0.7-0.2,1.2-0.3,1.8-0.3c1,0,1.7,0.3,2.2,0.9c0.2,0.2,0.3,0.5,0.3,1C73.2,42.5,73.2,42.9,73.1,43.2z M71.9,41.6
				c-0.6-0.3-1.1-0.5-1.5-0.4c-0.1,0-0.4,0-0.7,0.1c0,0.2,0,0.5,0,0.8c0,0.2,0.1,0.8,0.1,1.7c0.5,0,0.8,0,0.9,0
				c0.4,0,0.8-0.2,1.2-0.5c0.1-0.1,0.2-0.4,0.1-0.9C72.1,41.9,72.1,41.7,71.9,41.6z"/>
			<path id="XMLID_81_" class="st1" d="M75.6,46.3h-0.2c-0.5,0-0.9-0.2-1.1-0.7c-0.1-0.2-0.2-0.5-0.3-1c0-0.1,0-0.1,0-0.2
				c0-0.4,0.4-0.9,1.1-1.5c0.4-0.3,0.8-0.4,1.4-0.4c0.2,0,0.4,0,0.8,0.1c0.3,0,0.6,0.1,0.8,0.1c0-0.6-0.3-1.1-0.8-1.3
				c-0.1-0.1-0.3-0.1-0.4-0.1c-0.2,0-0.5,0.1-0.8,0.3L75.2,42c-0.1,0-0.2-0.1-0.3-0.2c-0.1-0.1-0.1-0.2-0.1-0.3c0-0.1,0-0.2,0.1-0.2
				c0.8-0.7,1.4-1,2-1c0.8,0,1.3,0.3,1.6,1c0.2,0.4,0.3,1,0.4,1.8c0.1,0.9,0.2,1.5,0.3,1.9C78.4,45.6,77.2,46.1,75.6,46.3z
				 M77.7,43.5c-0.4-0.1-0.7-0.2-1-0.2c-0.7,0-1.2,0.3-1.6,0.9c-0.1,0.2-0.2,0.4-0.2,0.6c0,0.3,0.1,0.5,0.4,0.6c0.2,0,0.3,0.1,0.4,0
				c0.3,0,0.8-0.1,1.7-0.3c0.3-0.1,0.5-0.2,0.7-0.4L78,44.1C78,43.8,77.9,43.6,77.7,43.5z"/>
			<path id="XMLID_79_" class="st1" d="M85.6,41.5c-0.2-0.2-0.5-0.3-0.9-0.4c-0.5-0.1-0.9,0-1.3,0.1c-0.3,0.1-0.7,0.4-1.1,0.7
				c-0.6,0.5-1,1-1.2,1.5c0,0.3-0.1,0.7,0,1.1c0,0.2,0.1,0.7,0.1,1.4c0.1,0.4,0.1,0.6,0.1,0.8l-0.7,0c0-0.4-0.1-0.9-0.2-1.4
				l-0.2-1.8c-0.1-1-0.2-1.8-0.2-2.5l0.1,0l0.1,0c0.2-0.1,0.3-0.1,0.3-0.1c0.1,0,0.1,0,0.2,0.1l0.1,1.2c0.8-1.3,1.9-2,3.1-2
				c0.2,0,0.5,0,1,0c0.5,0.1,0.8,0.1,0.9,0.2c0,0.2,0.1,0.4,0.1,0.6C85.8,41.3,85.8,41.5,85.6,41.5z"/>
			<path id="XMLID_76_" class="st1" d="M87.5,46.3h-0.2c-0.5,0-0.9-0.2-1.1-0.7c-0.1-0.2-0.2-0.5-0.3-1c0-0.1,0-0.1,0-0.2
				c0-0.4,0.4-0.9,1.1-1.5c0.4-0.3,0.8-0.4,1.4-0.4c0.2,0,0.4,0,0.8,0.1c0.4,0,0.6,0.1,0.8,0.1c0-0.6-0.3-1.1-0.8-1.3
				c-0.1-0.1-0.3-0.1-0.4-0.1c-0.2,0-0.5,0.1-0.8,0.3L87.1,42c-0.1,0-0.2-0.1-0.3-0.2c-0.1-0.1-0.1-0.2-0.1-0.3c0-0.1,0-0.2,0.1-0.2
				c0.8-0.7,1.4-1,2-1c0.8,0,1.3,0.3,1.6,1c0.2,0.4,0.3,1,0.4,1.8c0.1,0.9,0.2,1.5,0.3,1.9C90.4,45.6,89.2,46.1,87.5,46.3z
				 M89.7,43.5c-0.4-0.1-0.7-0.2-1-0.2c-0.7,0-1.2,0.3-1.6,0.9c-0.1,0.2-0.2,0.4-0.2,0.6c0,0.3,0.1,0.5,0.4,0.6c0.1,0,0.3,0.1,0.4,0
				c0.3,0,0.8-0.1,1.7-0.3c0.3-0.1,0.5-0.2,0.7-0.4L90,44.1C89.9,43.8,89.8,43.6,89.7,43.5z"/>
			<path id="XMLID_74_" class="st1" d="M101.8,40.6c0.1,0,0.1,0.1,0.1,0.3c0,0.4-0.1,0.6-0.3,0.6l-2.3,0.4c0,0.1,0,0.3,0,0.6
				c0,0.5,0,0.9,0,1c0,0.9,0.2,1.6,0.7,2c0.1,0.1,0.2,0.1,0.3,0.1c0.1,0,0.3-0.1,0.7-0.2c0.2-0.1,0.4-0.1,0.5-0.1c0.1,0,0.1,0,0.1,0
				c0.1,0.3,0.1,0.5,0.1,0.6c-0.3,0.4-0.9,0.6-1.8,0.6c-0.2,0-0.5-0.1-0.7-0.3c-0.5-0.4-0.8-1.3-0.9-2.7c0-0.4-0.1-0.9-0.1-1.5
				c-0.6,0.1-1,0.1-1.3,0.2c-0.4,0.1-0.8,0.3-1.3,0.5c0,0-0.1-0.1-0.2-0.4l-0.2-0.4c0.2-0.2,0.5-0.3,0.9-0.4c0.2,0,0.6-0.1,1.1-0.2
				c0.5-0.1,0.8-0.1,1.1-0.2c0.1-0.4,0.2-0.7,0.2-1c0.1-0.4,0.2-0.8,0.2-1.1c0.1-0.1,0.2-0.2,0.4-0.2c0.1,0,0.3,0,0.4,0.1
				c0,0.1-0.1,0.5-0.2,1.1c-0.1,0.3-0.1,0.5-0.1,0.7c0,0.1,0,0.2,0,0.3c0.3,0,0.8-0.1,1.7-0.2C101.4,40.6,101.7,40.6,101.8,40.6z"/>
			<path id="XMLID_71_" class="st1" d="M109.7,44.6c-0.3,1.2-1.1,1.8-2.6,1.8c-0.9,0-1.7-0.1-2.2-0.2c-0.7-0.2-1.2-0.6-1.6-1.2
				c-0.4-0.5-0.5-1.2-0.5-1.9c0-0.5,0.1-1,0.4-1.4c0.7-1,1.6-1.5,2.6-1.5c0.6,0,1.3,0.2,2.2,0.5c0.6,0.3,1,0.7,1.3,1.2
				c0.3,0.5,0.5,1.1,0.5,1.8C109.8,44,109.7,44.3,109.7,44.6z M108.8,44.3c0.1-0.2,0.1-0.4,0.1-0.6c0-0.4-0.1-0.8-0.4-1.3
				c-0.3-0.4-0.5-0.6-0.9-0.9c-0.7-0.4-1.3-0.6-1.9-0.6c-0.9,0-1.4,0.4-1.7,1.1c-0.2,0.6-0.3,1-0.3,1.3c0,0.2,0,0.5,0.1,0.7
				c0.2,0.5,0.6,0.8,1.3,1c0.1,0,0.2,0,0.5,0.1l0.2,0c0.7,0.1,1.2,0.1,1.3,0.1C107.9,45.3,108.5,45,108.8,44.3z"/>
			<path id="XMLID_68_" class="st1" d="M115.2,46.3c-0.3,0.1-0.6,0.2-0.8,0.3v-0.7c-0.3,0.1-0.6,0.2-0.9,0.2
				c-0.7,0.1-1.2,0.2-1.2,0.2c-0.6,0-1-0.3-1.4-0.8c-0.3-0.5-0.4-1-0.4-1.6c0-1.1,0.4-1.9,1.2-2.4c0.6-0.4,1.4-0.6,2.3-0.6
				c-0.1-0.8-0.2-1.5-0.2-2.3c0.1-0.1,0.2-0.1,0.3-0.1c0.2,0,0.4,0.1,0.6,0.3c0,0.1,0.1,1.1,0.3,3.1c0.1,1.3,0.2,2.3,0.2,3.2
				C115.2,45.4,115.2,45.9,115.2,46.3z M114.3,42.8c0-0.3-0.1-0.6-0.2-0.9c-0.2,0-0.4,0-0.6,0c-0.5,0-1.1,0.2-1.7,0.5
				c-0.2,0.1-0.3,0.3-0.4,0.7c-0.1,0.3-0.1,0.6-0.1,0.9c0,0.4,0.2,0.8,0.5,1c0.2,0.2,0.4,0.2,0.6,0.2c0.8,0,1.4-0.2,1.9-0.7
				C114.3,44,114.3,43.4,114.3,42.8z"/>
			<path id="XMLID_65_" class="st1" d="M123.2,44.6c-0.3,1.2-1.1,1.8-2.6,1.8c-0.9,0-1.7-0.1-2.2-0.2c-0.7-0.2-1.2-0.6-1.6-1.2
				c-0.3-0.5-0.5-1.2-0.5-1.9c0-0.5,0.1-1,0.4-1.4c0.7-1,1.6-1.5,2.6-1.5c0.6,0,1.3,0.2,2.2,0.5c0.6,0.3,1,0.7,1.3,1.2
				c0.3,0.5,0.4,1.1,0.4,1.8C123.3,44,123.2,44.3,123.2,44.6z M122.3,44.3c0.1-0.2,0.1-0.4,0.1-0.6c0-0.4-0.1-0.8-0.4-1.3
				c-0.3-0.4-0.5-0.6-0.9-0.9c-0.7-0.4-1.3-0.6-2-0.6c-0.9,0-1.4,0.4-1.7,1.1c-0.2,0.6-0.3,1-0.3,1.3c0,0.2,0,0.5,0.1,0.7
				c0.2,0.5,0.6,0.8,1.3,1c0,0,0.2,0,0.5,0.1l0.2,0c0.7,0.1,1.2,0.1,1.3,0.1C121.4,45.3,122,45,122.3,44.3z"/>
			<path id="XMLID_63_" class="st1" d="M128.9,45.2c-0.3,0.6-0.9,0.9-1.8,1c-0.3,0-0.7,0.1-1.2,0.1h-0.3h-0.2h-1
				c-0.3-0.2-0.4-0.5-0.4-0.8c0,0,0-0.1,0-0.2c0,0,0,0,0.1,0l0.4,0.1c0.1,0,0.4,0,0.9,0.1c0.3,0,0.5,0,0.7,0c1.2,0,1.8-0.3,1.9-0.8
				c0-0.2-0.6-0.6-1.9-1.1c-0.2-0.1-0.6-0.2-1.4-0.5c-0.1,0-0.3-0.1-0.4-0.3c-0.2-0.2-0.2-0.4-0.2-0.6c0,0,0-0.1,0-0.2
				c0.2-0.5,0.9-0.9,2.3-1.4c0.5-0.2,1-0.3,1.5-0.3l0.1,0.6c-0.1,0.1-0.4,0.2-0.9,0.4c-0.5,0.2-0.9,0.3-1,0.4
				c-0.3,0.2-0.5,0.4-0.5,0.7c0,0.2,0.4,0.4,1.1,0.5c0.5,0.1,0.8,0.2,0.9,0.2c0.3,0.1,0.6,0.3,0.9,0.6c0.3,0.3,0.5,0.7,0.5,1
				C129,44.9,129,45.1,128.9,45.2z"/>
		</g>
		<g id="XMLID_54_">
			<path id="XMLID_59_" class="st1" d="M192.1,8.9c-1.8,0-3.2,1.5-3.2,3.3c0,1.8,1.4,3.3,3.2,3.3c1.7,0,3.2-1.5,3.2-3.3
				C195.3,10.4,193.8,8.9,192.1,8.9z M192.1,15c-1.5,0-2.8-1.3-2.8-2.8c0-1.6,1.2-2.8,2.8-2.8c1.5,0,2.8,1.3,2.8,2.8
				C194.9,13.7,193.6,15,192.1,15z"/>
			<g id="XMLID_55_">
				<path id="XMLID_56_" class="st1" d="M190.7,14.1v-3.8h1.6c0.3,0,0.6,0,0.8,0.1c0.2,0.1,0.3,0.2,0.4,0.4c0.1,0.2,0.2,0.4,0.2,0.6
					c0,0.3-0.1,0.5-0.3,0.7c-0.2,0.2-0.4,0.3-0.8,0.4c0.1,0.1,0.2,0.1,0.3,0.2c0.1,0.1,0.3,0.3,0.4,0.5l0.6,1h-0.6l-0.5-0.8
					c-0.1-0.2-0.3-0.4-0.4-0.5c-0.1-0.1-0.2-0.2-0.2-0.3c-0.1,0-0.1-0.1-0.2-0.1c-0.1,0-0.1,0-0.3,0h-0.6v1.7H190.7z M191.2,12h1
					c0.2,0,0.4,0,0.5-0.1c0.1,0,0.2-0.1,0.3-0.2c0.1-0.1,0.1-0.2,0.1-0.3c0-0.2-0.1-0.3-0.2-0.4c-0.1-0.1-0.3-0.2-0.6-0.2h-1.2V12z"
					/>
			</g>
		</g>
	</g>
</g>
</svg>
