<?xml version="1.0" encoding="utf-8"?>
<!-- Generator: Adobe Illustrator 19.0.0, SVG Export Plug-In . SVG Version: 6.00 Build 0)  -->
<svg version="1.1" id="Capa_1" xmlns="http://www.w3.org/2000/svg" xmlns:xlink="http://www.w3.org/1999/xlink" x="0px" y="0px"
	 viewBox="-374 276 50 50" style="enable-background:new -374 276 50 50;" xml:space="preserve">
<style type="text/css">
	.st0{opacity:0;}
	.st1{fill:#FFFFFF;}
	.st2{fill:#FFFFFF;fill-opacity:0;}
</style>
<g>
	<g>
		<g>
			<g class="st0">
				<rect x="-374" y="276" class="st1" width="50" height="50"/>
			</g>
		</g>
		<g id="XMLID_1_">
			<rect id="XMLID_5_" x="-372" y="278" class="st2" width="46" height="46"/>
		</g>
	</g>
	<path class="st1" d="M-351.6,299.9c3,0,5.5-2.5,5.5-5.5s-2.5-5.5-5.5-5.5c-3,0-5.5,2.5-5.5,5.5c0,0,0,0,0,0
		C-357.1,297.4-354.7,299.9-351.6,299.9z M-351.6,290.6c2.1,0,3.8,1.7,3.8,3.8s-1.7,3.8-3.8,3.8s-3.8-1.7-3.8-3.8c0,0,0,0,0,0
		C-355.5,292.3-353.7,290.6-351.6,290.6z M-351.6,301.5c-4.3,0-8.2,2.6-9.8,6.5l0,0c-0.1,0.3-0.1,0.7,0.2,1c5.4,4.9,13.7,4.9,19.2,0
		c0.3-0.3,0.4-0.7,0.1-1.1C-343.6,304.1-347.4,301.5-351.6,301.5z M-359.6,308.2c2.2-4.4,7.6-6.2,12-4c1.7,0.9,3.1,2.3,4,4
		C-348.3,312-355,312-359.6,308.2z M-329.7,315.9l-6.6-5.3c-0.3-0.3-0.7-0.5-1.1-0.6c6.4-7.9,5.1-19.5-2.8-25.9
		c-7.9-6.4-19.5-5.1-25.9,2.8s-5.1,19.5,2.8,25.9c6.7,5.4,16.3,5.4,23.1,0c0.2,0.4,0.4,0.7,0.7,1.1l5.3,6.6c0.5,0.7,1.4,1.6,2.6,1.7
		h0.2c0.9,0,1.7-0.5,2.3-1.1c0,0,0,0,0,0h0c0.7-0.6,1.2-1.5,1.2-2.4C-328.1,317.2-329,316.4-329.7,315.9L-329.7,315.9z
		 M-339.8,310.2c-6.5,6.5-17.1,6.5-23.7,0c-6.5-6.5-6.5-17.1,0-23.7c6.5-6.5,17.1-6.5,23.7,0c0,0,0,0,0,0c6.5,6.5,6.6,17,0.1,23.5
		C-339.7,310.1-339.8,310.2-339.8,310.2z M-330.3,319.7L-330.3,319.7L-330.3,319.7c-0.3,0.4-0.7,0.7-1.2,0.7c-0.4,0-0.8-0.4-1.4-1.1
		l-5.3-6.6c-0.7-0.9-0.5-1.1-0.4-1.2l0,0h0c0.1-0.1,0.3-0.3,1.2,0.4l6.5,5.3c0.7,0.5,1,1,1.1,1.4
		C-329.7,319-329.9,319.4-330.3,319.7L-330.3,319.7z"/>
</g>
</svg>
