<?xml version="1.0" encoding="utf-8"?>
<!-- Generator: Adobe Illustrator 19.0.0, SVG Export Plug-In . SVG Version: 6.00 Build 0)  -->
<svg version="1.1" id="Capa_1" xmlns="http://www.w3.org/2000/svg" xmlns:xlink="http://www.w3.org/1999/xlink" x="0px" y="0px"
	 viewBox="0 0 50 50" style="enable-background:new 0 0 50 50;" xml:space="preserve">
<style type="text/css">
	.st0{opacity:0;}
	.st1{fill:#FFFFFF;}
	.st2{fill:#FFFFFF;fill-opacity:0;}
</style>
<g>
	<g>
		<g class="st0">
			<rect class="st1" width="50" height="50"/>
		</g>
	</g>
	<g id="XMLID_1023_">
		<rect id="XMLID_485_" x="2" y="2" class="st2" width="46" height="46"/>
		<g id="XMLID_42_">
			<path id="XMLID_56_" class="st1" d="M39.3,21.9c3.7,0,6.7-3,6.7-6.7s-3-6.7-6.7-6.7s-6.7,3-6.7,6.7S35.6,21.8,39.3,21.9z
				 M39.3,10.3c2.7,0,4.9,2.2,4.9,4.9s-2.2,4.9-4.9,4.9s-4.9-2.2-4.9-4.9l0,0C34.4,12.5,36.6,10.3,39.3,10.3z M15.7,7.5
				c-0.2-0.5,0-1,0.4-1.2C21,4,26.6,3.7,31.7,5.4L31,3.9c-0.1-0.2-0.1-0.5,0-0.7c0.2-0.5,0.7-0.7,1.2-0.6c0.2,0.1,0.4,0.2,0.5,0.5
				l1.8,3.7c0,0.1,0,0.1,0,0.2v0.1v0.1c0,0.1,0,0.1,0,0.2v0.1c0,0,0,0.1-0.1,0.1c0,0.1-0.1,0.1-0.2,0.2L34,7.9h-0.1l-3.7,1.8
				c-0.1,0.1-0.3,0.1-0.4,0.1c-0.3,0-0.7-0.2-0.8-0.5c-0.1-0.2-0.1-0.5,0-0.7s0.2-0.4,0.5-0.5l1.8-0.9c-4.7-1.7-9.9-1.4-14.4,0.7
				C16.5,8.2,15.9,8,15.7,7.5z M33.2,42.6c0.2,0.5,0,1-0.5,1.2c-4.2,1.7-8.9,1.9-13.2,0.7l0.8,1.6c0.1,0.2,0.1,0.5,0,0.7
				s-0.2,0.4-0.5,0.5c-0.1,0.1-0.3,0.1-0.4,0.1c-0.3,0-0.7-0.2-0.8-0.5L17,43.5c-0.2-0.2-0.3-0.4-0.2-0.7c0-0.4,0.2-0.7,0.5-0.9
				l3.7-1.7c0.2-0.1,0.5-0.1,0.7,0s0.4,0.2,0.5,0.5c0.2,0.4,0,1-0.4,1.2l0,0L20,42.8c1.6,0.5,3.3,0.7,5,0.7c2.4,0,4.8-0.5,7-1.4
				c0.2-0.1,0.5-0.1,0.7,0C32.9,42.2,33.1,42.4,33.2,42.6L33.2,42.6z M46.4,27.1c0-2.2-1.2-4-2.7-4h-8.8c-0.8,0-1.5,0.5-1.9,1.2
				c-0.5,0.8-0.7,1.8-0.7,2.7l-0.9,10c0,2.2,1.2,4,2.7,4h10.4c0.8,0,1.6-0.5,1.9-1.2c0.5-0.9,0.8-1.8,0.7-2.8L46.4,27.1z M44.5,39.2
				H34.1c-0.3,0-0.9-0.8-0.9-2.1l0.8-9.9c0-1.3,0.6-2.2,0.9-2.2h8.8c0.3,0,0.9,0.9,0.9,2.2l0.7,9.8C45.3,38.4,44.7,39.2,44.5,39.2z
				 M10.7,21.9c3.7,0,6.7-3,6.7-6.7s-3-6.7-6.7-6.7S4,11.5,4,15.2l0,0C4,18.9,7,21.8,10.7,21.9z M10.7,10.3c2.7,0,4.9,2.2,4.9,4.9
				s-2.2,4.9-4.9,4.9s-4.9-2.2-4.9-4.9l0,0C5.9,12.5,8,10.3,10.7,10.3z M17.8,39.8c0.5-0.8,0.7-1.8,0.7-2.8l-0.7-9.8
				c0-2.2-1.2-4-2.7-4H6.3c-0.8,0-1.5,0.5-1.9,1.2c-0.5,0.8-0.8,1.8-0.7,2.7L2.9,37c0,2.2,1.2,4,2.7,4h10.3
				C16.7,41,17.4,40.5,17.8,39.8z M15.9,39.2H5.5c-0.3,0-0.9-0.8-0.9-2.1l0.8-9.9C5.4,25.8,6,25,6.3,25h8.8c0.3,0,0.9,0.9,0.9,2.2
				l0.7,9.8C16.7,38.4,16.1,39.2,15.9,39.2z"/>
		</g>
	</g>
</g>
</svg>
