<?xml version="1.0" encoding="utf-8"?>
<!-- Generator: Adobe Illustrator 19.0.0, SVG Export Plug-In . SVG Version: 6.00 Build 0)  -->
<svg version="1.1" id="Capa_1" xmlns="http://www.w3.org/2000/svg" xmlns:xlink="http://www.w3.org/1999/xlink" x="0px" y="0px"
	 viewBox="-374 276 50 50" style="enable-background:new -374 276 50 50;" xml:space="preserve">
<style type="text/css">
	.st0{opacity:0;}
	.st1{fill:#FFFFFF;}
	.st2{fill:#FFFFFF;fill-opacity:0;}
	.st3{fill:#FFFFFF;stroke:#FFFFFF;stroke-miterlimit:10;}
</style>
<g>
	<g>
		<g>
			<g class="st0">
				<rect x="-374" y="276" class="st1" width="50" height="50"/>
			</g>
		</g>
		<g id="XMLID_1_">
			<rect id="XMLID_5_" x="-372" y="278" class="st2" width="46" height="46"/>
		</g>
	</g>
	<g>
		<g>
			<path class="st3" d="M-349.6,317.1h-9.5c-2.6,0-4.7-2.1-4.7-4.7v-22.8c0-2.6,2.1-4.7,4.7-4.7h9.6c0.6,0,1-0.5,1-1s-0.5-1-1-1
				h-9.6c-3.7,0-6.7,3-6.7,6.7v22.8c0,3.7,3,6.7,6.7,6.7h9.5c0.6,0,1-0.5,1-1S-349,317.1-349.6,317.1z"/>
			<path class="st3" d="M-332.5,300.3l-6.6-6.6c-0.4-0.4-1.1-0.4-1.5,0s-0.4,1.1,0,1.5l4.8,4.8h-21.1c-0.6,0-1,0.5-1,1s0.5,1,1,1
				h21.1l-4.8,4.8c-0.4,0.4-0.4,1.1,0,1.5c0.2,0.2,0.5,0.3,0.7,0.3c0.3,0,0.5-0.1,0.7-0.3l6.6-6.6
				C-332.1,301.3-332.1,300.7-332.5,300.3z"/>
		</g>
	</g>
</g>
</svg>
